%TF.GenerationSoftware,KiCad,Pcbnew,8.99.0-unknown-a7d493a6a5~180~ubuntu22.04.1*%
%TF.CreationDate,2024-08-13T11:51:02-03:00*%
%TF.ProjectId,esp32_ads1256,65737033-325f-4616-9473-313235362e6b,rev?*%
%TF.SameCoordinates,Original*%
%TF.FileFunction,Copper,L1,Top*%
%TF.FilePolarity,Positive*%
%FSLAX46Y46*%
G04 Gerber Fmt 4.6, Leading zero omitted, Abs format (unit mm)*
G04 Created by KiCad (PCBNEW 8.99.0-unknown-a7d493a6a5~180~ubuntu22.04.1) date 2024-08-13 11:51:02*
%MOMM*%
%LPD*%
G01*
G04 APERTURE LIST*
G04 Aperture macros list*
%AMRoundRect*
0 Rectangle with rounded corners*
0 $1 Rounding radius*
0 $2 $3 $4 $5 $6 $7 $8 $9 X,Y pos of 4 corners*
0 Add a 4 corners polygon primitive as box body*
4,1,4,$2,$3,$4,$5,$6,$7,$8,$9,$2,$3,0*
0 Add four circle primitives for the rounded corners*
1,1,$1+$1,$2,$3*
1,1,$1+$1,$4,$5*
1,1,$1+$1,$6,$7*
1,1,$1+$1,$8,$9*
0 Add four rect primitives between the rounded corners*
20,1,$1+$1,$2,$3,$4,$5,0*
20,1,$1+$1,$4,$5,$6,$7,0*
20,1,$1+$1,$6,$7,$8,$9,0*
20,1,$1+$1,$8,$9,$2,$3,0*%
G04 Aperture macros list end*
%TA.AperFunction,SMDPad,CuDef*%
%ADD10RoundRect,0.250000X0.475000X-0.337500X0.475000X0.337500X-0.475000X0.337500X-0.475000X-0.337500X0*%
%TD*%
%TA.AperFunction,SMDPad,CuDef*%
%ADD11RoundRect,0.250000X0.350000X0.450000X-0.350000X0.450000X-0.350000X-0.450000X0.350000X-0.450000X0*%
%TD*%
%TA.AperFunction,SMDPad,CuDef*%
%ADD12RoundRect,0.225000X0.250000X-0.225000X0.250000X0.225000X-0.250000X0.225000X-0.250000X-0.225000X0*%
%TD*%
%TA.AperFunction,SMDPad,CuDef*%
%ADD13RoundRect,0.250000X0.337500X0.475000X-0.337500X0.475000X-0.337500X-0.475000X0.337500X-0.475000X0*%
%TD*%
%TA.AperFunction,SMDPad,CuDef*%
%ADD14RoundRect,0.225000X0.225000X0.250000X-0.225000X0.250000X-0.225000X-0.250000X0.225000X-0.250000X0*%
%TD*%
%TA.AperFunction,ComponentPad*%
%ADD15O,1.600000X1.200000*%
%TD*%
%TA.AperFunction,ComponentPad*%
%ADD16O,1.200000X1.200000*%
%TD*%
%TA.AperFunction,SMDPad,CuDef*%
%ADD17RoundRect,0.200000X-0.275000X0.200000X-0.275000X-0.200000X0.275000X-0.200000X0.275000X0.200000X0*%
%TD*%
%TA.AperFunction,SMDPad,CuDef*%
%ADD18R,1.981200X0.558800*%
%TD*%
%TA.AperFunction,SMDPad,CuDef*%
%ADD19RoundRect,0.225000X-0.250000X0.225000X-0.250000X-0.225000X0.250000X-0.225000X0.250000X0.225000X0*%
%TD*%
%TA.AperFunction,SMDPad,CuDef*%
%ADD20RoundRect,0.250000X0.450000X-0.350000X0.450000X0.350000X-0.450000X0.350000X-0.450000X-0.350000X0*%
%TD*%
%TA.AperFunction,ComponentPad*%
%ADD21RoundRect,0.250000X-0.600000X-0.725000X0.600000X-0.725000X0.600000X0.725000X-0.600000X0.725000X0*%
%TD*%
%TA.AperFunction,ComponentPad*%
%ADD22O,1.700000X1.950000*%
%TD*%
%TA.AperFunction,ComponentPad*%
%ADD23RoundRect,0.250001X0.799999X0.799999X-0.799999X0.799999X-0.799999X-0.799999X0.799999X-0.799999X0*%
%TD*%
%TA.AperFunction,ComponentPad*%
%ADD24C,2.100000*%
%TD*%
%TA.AperFunction,ComponentPad*%
%ADD25O,1.200000X1.600000*%
%TD*%
%TA.AperFunction,SMDPad,CuDef*%
%ADD26R,2.600000X1.000000*%
%TD*%
%TA.AperFunction,ComponentPad*%
%ADD27R,1.530000X1.530000*%
%TD*%
%TA.AperFunction,ComponentPad*%
%ADD28C,1.530000*%
%TD*%
%TA.AperFunction,SMDPad,CuDef*%
%ADD29R,0.558800X1.981200*%
%TD*%
%TA.AperFunction,SMDPad,CuDef*%
%ADD30RoundRect,0.200000X-0.200000X-0.275000X0.200000X-0.275000X0.200000X0.275000X-0.200000X0.275000X0*%
%TD*%
%TA.AperFunction,SMDPad,CuDef*%
%ADD31RoundRect,0.250000X-0.350000X-0.450000X0.350000X-0.450000X0.350000X0.450000X-0.350000X0.450000X0*%
%TD*%
%TA.AperFunction,SMDPad,CuDef*%
%ADD32RoundRect,0.250000X-0.337500X-0.475000X0.337500X-0.475000X0.337500X0.475000X-0.337500X0.475000X0*%
%TD*%
%TA.AperFunction,SMDPad,CuDef*%
%ADD33RoundRect,0.250000X-0.475000X0.337500X-0.475000X-0.337500X0.475000X-0.337500X0.475000X0.337500X0*%
%TD*%
%TA.AperFunction,SMDPad,CuDef*%
%ADD34RoundRect,0.250000X-0.450000X0.350000X-0.450000X-0.350000X0.450000X-0.350000X0.450000X0.350000X0*%
%TD*%
%TA.AperFunction,SMDPad,CuDef*%
%ADD35R,2.057400X0.431800*%
%TD*%
%TA.AperFunction,ViaPad*%
%ADD36C,0.600000*%
%TD*%
%TA.AperFunction,ViaPad*%
%ADD37C,0.800000*%
%TD*%
%TA.AperFunction,Conductor*%
%ADD38C,0.400000*%
%TD*%
%TA.AperFunction,Conductor*%
%ADD39C,0.200000*%
%TD*%
%TA.AperFunction,Conductor*%
%ADD40C,1.000000*%
%TD*%
%TA.AperFunction,Conductor*%
%ADD41C,0.300000*%
%TD*%
%TA.AperFunction,Conductor*%
%ADD42C,2.000000*%
%TD*%
%TA.AperFunction,Conductor*%
%ADD43C,0.500000*%
%TD*%
G04 APERTURE END LIST*
D10*
%TO.P,C1,1*%
%TO.N,Net-(U1-AIN0)*%
X90400000Y-101437500D03*
%TO.P,C1,2*%
%TO.N,GND*%
X90400000Y-99362500D03*
%TD*%
D11*
%TO.P,R5,1*%
%TO.N,Net-(U1-AIN1)*%
X88400000Y-103450000D03*
%TO.P,R5,2*%
%TO.N,/transimpedance/trans_out_b*%
X86400000Y-103450000D03*
%TD*%
D12*
%TO.P,C30,1*%
%TO.N,Net-(U6-IN-)*%
X83663800Y-85820000D03*
%TO.P,C30,2*%
%TO.N,GND*%
X83663800Y-84270000D03*
%TD*%
D13*
%TO.P,C18,1*%
%TO.N,/transimpedance/trans_out_a*%
X82237500Y-95900000D03*
%TO.P,C18,2*%
%TO.N,Net-(D3-K)*%
X80162500Y-95900000D03*
%TD*%
D14*
%TO.P,C10,1*%
%TO.N,+5V*%
X97000000Y-95200000D03*
%TO.P,C10,2*%
%TO.N,GND*%
X95450000Y-95200000D03*
%TD*%
%TO.P,C27,1*%
%TO.N,GND*%
X92550000Y-88000000D03*
%TO.P,C27,2*%
%TO.N,Net-(U6-IN+)*%
X91000000Y-88000000D03*
%TD*%
D11*
%TO.P,R1,1*%
%TO.N,Net-(U1-AIN0)*%
X88400000Y-101437500D03*
%TO.P,R1,2*%
%TO.N,/transimpedance/trans_out_a*%
X86400000Y-101437500D03*
%TD*%
D15*
%TO.P,D3,1,C*%
%TO.N,GND*%
X74730000Y-95900000D03*
D16*
%TO.P,D3,2,A*%
X76000000Y-97170000D03*
%TO.P,D3,3,K*%
%TO.N,Net-(D3-K)*%
X77270000Y-95900000D03*
%TD*%
D17*
%TO.P,R19,1*%
%TO.N,Net-(U6-IN-)*%
X91450000Y-90250000D03*
%TO.P,R19,2*%
%TO.N,/voltage_reference_buffer/vrefp*%
X91450000Y-91900000D03*
%TD*%
D18*
%TO.P,U2,1,OUTA*%
%TO.N,/transimpedance3/trans_out_a*%
X95950000Y-116104200D03*
%TO.P,U2,2,INA-*%
%TO.N,Net-(D1-K)*%
X95950000Y-117374200D03*
%TO.P,U2,3,INA+*%
%TO.N,GND*%
X95950000Y-118644200D03*
%TO.P,U2,4,V-*%
X95950000Y-119914200D03*
%TO.P,U2,5,INB+*%
X100877600Y-119914200D03*
%TO.P,U2,6,INB-*%
%TO.N,Net-(D2-K)*%
X100877600Y-118644200D03*
%TO.P,U2,7,OUTB*%
%TO.N,/transimpedance3/trans_out_b*%
X100877600Y-117374200D03*
%TO.P,U2,8,V+*%
%TO.N,+5V*%
X100877600Y-116104200D03*
%TD*%
D19*
%TO.P,C28,1*%
%TO.N,+5V*%
X80263800Y-90445000D03*
%TO.P,C28,2*%
%TO.N,GND*%
X80263800Y-91995000D03*
%TD*%
D20*
%TO.P,R10,1*%
%TO.N,Net-(D2-K)*%
X104450000Y-118644200D03*
%TO.P,R10,2*%
%TO.N,/transimpedance3/trans_out_b*%
X104450000Y-116644200D03*
%TD*%
D18*
%TO.P,U6,1,NC*%
%TO.N,unconnected-(U6-NC-Pad1)*%
X87463800Y-91540000D03*
%TO.P,U6,2,IN-*%
%TO.N,Net-(U6-IN-)*%
X87463800Y-90270000D03*
%TO.P,U6,3,IN+*%
%TO.N,Net-(U6-IN+)*%
X87463800Y-89000000D03*
%TO.P,U6,4,V-*%
%TO.N,GND*%
X87463800Y-87730000D03*
%TO.P,U6,5,NC*%
%TO.N,unconnected-(U6-NC-Pad5)*%
X82536200Y-87730000D03*
%TO.P,U6,6,OUTPUT*%
%TO.N,Net-(U6-IN-)*%
X82536200Y-89000000D03*
%TO.P,U6,7,V+*%
%TO.N,+5V*%
X82536200Y-90270000D03*
%TO.P,U6,8,NC*%
%TO.N,unconnected-(U6-NC-Pad8)*%
X82536200Y-91540000D03*
%TD*%
D21*
%TO.P,J1,1,Pin_1*%
%TO.N,GND*%
X57400000Y-87700000D03*
D22*
%TO.P,J1,2,Pin_2*%
%TO.N,/microcontroler/tx1*%
X59900000Y-87700000D03*
%TO.P,J1,3,Pin_3*%
%TO.N,/microcontroler/rx1*%
X62400000Y-87700000D03*
%TD*%
D12*
%TO.P,C13,1*%
%TO.N,GND*%
X108150000Y-107650000D03*
%TO.P,C13,2*%
%TO.N,Net-(U1-XTAL2)*%
X108150000Y-106100000D03*
%TD*%
D14*
%TO.P,C34,1*%
%TO.N,/voltage_reference_buffer/vrefn*%
X93050000Y-95550000D03*
%TO.P,C34,2*%
%TO.N,/voltage_reference_buffer/vrefp*%
X91500000Y-95550000D03*
%TD*%
D15*
%TO.P,D7,1,C*%
%TO.N,GND*%
X112000000Y-123000000D03*
D16*
%TO.P,D7,2,A*%
X110730000Y-121730000D03*
%TO.P,D7,3,K*%
%TO.N,Net-(D7-K)*%
X109460000Y-123000000D03*
%TD*%
D23*
%TO.P,J2,1,Pin_1*%
%TO.N,GND*%
X121000000Y-87000000D03*
D24*
%TO.P,J2,2,Pin_2*%
%TO.N,+5V*%
X116400000Y-87000000D03*
%TD*%
D25*
%TO.P,D5,1,C*%
%TO.N,GND*%
X69400000Y-121540000D03*
D16*
%TO.P,D5,2,A*%
X70670000Y-120270000D03*
%TO.P,D5,3,K*%
%TO.N,Net-(D5-K)*%
X69400000Y-119000000D03*
%TD*%
D26*
%TO.P,Y1,1,1*%
%TO.N,Net-(U1-XTAL1{slash}CLKIN)*%
X111800000Y-104500000D03*
%TO.P,Y1,2,2*%
%TO.N,Net-(U1-XTAL2)*%
X111800000Y-107500000D03*
%TD*%
D27*
%TO.P,U7,J1_1,3V3*%
%TO.N,+3.3V*%
X64300000Y-79000000D03*
D28*
%TO.P,U7,J1_2,3V3*%
X66840000Y-79000000D03*
%TO.P,U7,J1_3,RST*%
%TO.N,unconnected-(U7-RST-PadJ1_3)*%
X69380000Y-79000000D03*
%TO.P,U7,J1_4,GPIO4*%
%TO.N,Net-(J4-Pin_2)*%
X71920000Y-79000000D03*
%TO.P,U7,J1_5,GPIO5*%
%TO.N,Net-(J4-Pin_3)*%
X74460000Y-79000000D03*
%TO.P,U7,J1_6,GPIO6*%
%TO.N,unconnected-(U7-GPIO6-PadJ1_6)*%
X77000000Y-79000000D03*
%TO.P,U7,J1_7,GPIO7*%
%TO.N,unconnected-(U7-GPIO7-PadJ1_7)*%
X79540000Y-79000000D03*
%TO.P,U7,J1_8,GPIO15*%
%TO.N,unconnected-(U7-GPIO15-PadJ1_8)*%
X82080000Y-79000000D03*
%TO.P,U7,J1_9,GPIO16*%
%TO.N,unconnected-(U7-GPIO16-PadJ1_9)*%
X84620000Y-79000000D03*
%TO.P,U7,J1_10,GPIO17*%
%TO.N,unconnected-(U7-GPIO17-PadJ1_10)*%
X87160000Y-79000000D03*
%TO.P,U7,J1_11,GPIO18*%
%TO.N,unconnected-(U7-GPIO18-PadJ1_11)*%
X89700000Y-79000000D03*
%TO.P,U7,J1_12,GPIO8*%
%TO.N,unconnected-(U7-GPIO8-PadJ1_12)*%
X92240000Y-79000000D03*
%TO.P,U7,J1_13,GPIO3*%
%TO.N,unconnected-(U7-GPIO3-PadJ1_13)*%
X94780000Y-79000000D03*
%TO.P,U7,J1_14,GPIO46*%
%TO.N,unconnected-(U7-GPIO46-PadJ1_14)*%
X97320000Y-79000000D03*
%TO.P,U7,J1_15,GPIO9*%
%TO.N,unconnected-(U7-GPIO9-PadJ1_15)*%
X99860000Y-79000000D03*
%TO.P,U7,J1_16,GPIO10*%
%TO.N,/microcontroler/cs*%
X102400000Y-79000000D03*
%TO.P,U7,J1_17,GPIO11*%
%TO.N,/microcontroler/mosi*%
X104940000Y-79000000D03*
%TO.P,U7,J1_18,GPIO12*%
%TO.N,/microcontroler/sclk*%
X107480000Y-79000000D03*
%TO.P,U7,J1_19,GPIO13*%
%TO.N,/microcontroler/miso*%
X110020000Y-79000000D03*
%TO.P,U7,J1_20,GPIO14*%
%TO.N,/microcontroler/int_bar*%
X112560000Y-79000000D03*
%TO.P,U7,J1_21,5V0*%
%TO.N,+5V*%
X115100000Y-79000000D03*
%TO.P,U7,J1_22,GND*%
%TO.N,GND*%
X117640000Y-79000000D03*
%TO.P,U7,J3_1,GND*%
X64300000Y-56140000D03*
%TO.P,U7,J3_2,U0TXD/GPIO43*%
%TO.N,/microcontroler/tx1*%
X66840000Y-56140000D03*
%TO.P,U7,J3_3,U0RXD/GPIO44*%
%TO.N,/microcontroler/rx1*%
X69380000Y-56140000D03*
%TO.P,U7,J3_4,GPIO1*%
%TO.N,unconnected-(U7-GPIO1-PadJ3_4)*%
X71920000Y-56140000D03*
%TO.P,U7,J3_5,GPIO2*%
%TO.N,unconnected-(U7-GPIO2-PadJ3_5)*%
X74460000Y-56140000D03*
%TO.P,U7,J3_6,MTMS/GPIO42*%
%TO.N,unconnected-(U7-MTMS{slash}GPIO42-PadJ3_6)*%
X77000000Y-56140000D03*
%TO.P,U7,J3_7,MTDI/GPIO41*%
%TO.N,unconnected-(U7-MTDI{slash}GPIO41-PadJ3_7)*%
X79540000Y-56140000D03*
%TO.P,U7,J3_8,MTDO/GPIO40*%
%TO.N,unconnected-(U7-MTDO{slash}GPIO40-PadJ3_8)*%
X82080000Y-56140000D03*
%TO.P,U7,J3_9,MTCK/GPIO39*%
%TO.N,unconnected-(U7-MTCK{slash}GPIO39-PadJ3_9)*%
X84620000Y-56140000D03*
%TO.P,U7,J3_10,GPIO38*%
%TO.N,unconnected-(U7-GPIO38-PadJ3_10)*%
X87160000Y-56140000D03*
%TO.P,U7,J3_11,GPIO37*%
%TO.N,unconnected-(U7-GPIO37-PadJ3_11)*%
X89700000Y-56140000D03*
%TO.P,U7,J3_12,GPIO36*%
%TO.N,unconnected-(U7-GPIO36-PadJ3_12)*%
X92240000Y-56140000D03*
%TO.P,U7,J3_13,GPIO35*%
%TO.N,unconnected-(U7-GPIO35-PadJ3_13)*%
X94780000Y-56140000D03*
%TO.P,U7,J3_14,GPIO0*%
%TO.N,unconnected-(U7-GPIO0-PadJ3_14)*%
X97320000Y-56140000D03*
%TO.P,U7,J3_15,GPIO45*%
%TO.N,unconnected-(U7-GPIO45-PadJ3_15)*%
X99860000Y-56140000D03*
%TO.P,U7,J3_16,GPIO48*%
%TO.N,unconnected-(U7-GPIO48-PadJ3_16)*%
X102400000Y-56140000D03*
%TO.P,U7,J3_17,GPIO47*%
%TO.N,unconnected-(U7-GPIO47-PadJ3_17)*%
X104940000Y-56140000D03*
%TO.P,U7,J3_18,GPIO21*%
%TO.N,unconnected-(U7-GPIO21-PadJ3_18)*%
X107480000Y-56140000D03*
%TO.P,U7,J3_19,USB_D+/GPIO20*%
%TO.N,unconnected-(U7-USB_D+{slash}GPIO20-PadJ3_19)*%
X110020000Y-56140000D03*
%TO.P,U7,J3_20,USB_D-/GPIO19*%
%TO.N,unconnected-(U7-USB_D-{slash}GPIO19-PadJ3_20)*%
X112560000Y-56140000D03*
%TO.P,U7,J3_21,GND*%
%TO.N,GND*%
X115100000Y-56140000D03*
%TO.P,U7,J3_22,GND*%
X117640000Y-56140000D03*
%TD*%
D15*
%TO.P,D1,1,C*%
%TO.N,GND*%
X84810000Y-117411700D03*
D16*
%TO.P,D1,2,A*%
X86080000Y-118681700D03*
%TO.P,D1,3,K*%
%TO.N,Net-(D1-K)*%
X87350000Y-117411700D03*
%TD*%
D14*
%TO.P,C12,1*%
%TO.N,Net-(U1-\u002ARESET)*%
X102000000Y-111250000D03*
%TO.P,C12,2*%
%TO.N,GND*%
X100450000Y-111250000D03*
%TD*%
D15*
%TO.P,D6,1,C*%
%TO.N,GND*%
X63760000Y-104500000D03*
D16*
%TO.P,D6,2,A*%
X65030000Y-105770000D03*
%TO.P,D6,3,K*%
%TO.N,Net-(D6-K)*%
X66300000Y-104500000D03*
%TD*%
D29*
%TO.P,U3,1,OUTA*%
%TO.N,/transimpedance/trans_out_a*%
X81470000Y-100900000D03*
%TO.P,U3,2,INA-*%
%TO.N,Net-(D3-K)*%
X80200000Y-100900000D03*
%TO.P,U3,3,INA+*%
%TO.N,GND*%
X78930000Y-100900000D03*
%TO.P,U3,4,V-*%
X77660000Y-100900000D03*
%TO.P,U3,5,INB+*%
X77660000Y-105827600D03*
%TO.P,U3,6,INB-*%
%TO.N,Net-(D4-K)*%
X78930000Y-105827600D03*
%TO.P,U3,7,OUTB*%
%TO.N,/transimpedance/trans_out_b*%
X80200000Y-105827600D03*
%TO.P,U3,8,V+*%
%TO.N,+5V*%
X81470000Y-105827600D03*
%TD*%
D14*
%TO.P,C33,1*%
%TO.N,/voltage_reference_buffer/vrefn*%
X93050000Y-97350000D03*
%TO.P,C33,2*%
%TO.N,/voltage_reference_buffer/vrefp*%
X91500000Y-97350000D03*
%TD*%
D17*
%TO.P,R18,1*%
%TO.N,GND*%
X93150000Y-90200000D03*
%TO.P,R18,2*%
%TO.N,/voltage_reference_buffer/vrefn*%
X93150000Y-91850000D03*
%TD*%
D30*
%TO.P,R17,1*%
%TO.N,Net-(U6-IN+)*%
X91150000Y-86050000D03*
%TO.P,R17,2*%
%TO.N,+2V5*%
X92800000Y-86050000D03*
%TD*%
D15*
%TO.P,D8,1,C*%
%TO.N,GND*%
X87660000Y-124500000D03*
D16*
%TO.P,D8,2,A*%
X88930000Y-125770000D03*
%TO.P,D8,3,K*%
%TO.N,Net-(D8-K)*%
X90200000Y-124500000D03*
%TD*%
D31*
%TO.P,R12,1*%
%TO.N,Net-(D4-K)*%
X78930000Y-109400000D03*
%TO.P,R12,2*%
%TO.N,/transimpedance/trans_out_b*%
X80930000Y-109400000D03*
%TD*%
D32*
%TO.P,C4,1*%
%TO.N,Net-(U1-AIN6)*%
X91200000Y-109900000D03*
%TO.P,C4,2*%
%TO.N,GND*%
X93275000Y-109900000D03*
%TD*%
D14*
%TO.P,C32,1*%
%TO.N,/voltage_reference_buffer/vrefn*%
X93050000Y-93550000D03*
%TO.P,C32,2*%
%TO.N,/voltage_reference_buffer/vrefp*%
X91500000Y-93550000D03*
%TD*%
D13*
%TO.P,C16,1*%
%TO.N,+5V*%
X103087500Y-114000000D03*
%TO.P,C16,2*%
%TO.N,GND*%
X101012500Y-114000000D03*
%TD*%
D33*
%TO.P,C5,1*%
%TO.N,Net-(U1-AIN1)*%
X90400000Y-103450000D03*
%TO.P,C5,2*%
%TO.N,GND*%
X90400000Y-105525000D03*
%TD*%
D31*
%TO.P,R4,1*%
%TO.N,Net-(U1-AIN6)*%
X91200000Y-112150000D03*
%TO.P,R4,2*%
%TO.N,/transimpedance3/trans_out_a*%
X93200000Y-112150000D03*
%TD*%
D34*
%TO.P,R8,1*%
%TO.N,Net-(U1-AIN7)*%
X98300000Y-111800000D03*
%TO.P,R8,2*%
%TO.N,/transimpedance3/trans_out_b*%
X98300000Y-113800000D03*
%TD*%
D12*
%TO.P,C31,1*%
%TO.N,Net-(U6-IN-)*%
X85463800Y-85820000D03*
%TO.P,C31,2*%
%TO.N,GND*%
X85463800Y-84270000D03*
%TD*%
D21*
%TO.P,J4,1,Pin_1*%
%TO.N,+3.3V*%
X68400000Y-87300000D03*
D22*
%TO.P,J4,2,Pin_2*%
%TO.N,Net-(J4-Pin_2)*%
X70900000Y-87300000D03*
%TO.P,J4,3,Pin_3*%
%TO.N,Net-(J4-Pin_3)*%
X73400000Y-87300000D03*
%TO.P,J4,4,Pin_4*%
%TO.N,GND*%
X75900000Y-87300000D03*
%TD*%
D35*
%TO.P,U1,1,AVDD*%
%TO.N,+5V*%
X95142000Y-99000000D03*
%TO.P,U1,2,AGND*%
%TO.N,GND*%
X95142000Y-99650001D03*
%TO.P,U1,3,VREFN*%
%TO.N,/voltage_reference_buffer/vrefn*%
X95142000Y-100300000D03*
%TO.P,U1,4,VREFP*%
%TO.N,/voltage_reference_buffer/vrefp*%
X95142000Y-100950001D03*
%TO.P,U1,5,AINCOM*%
%TO.N,GND*%
X95142000Y-101599999D03*
%TO.P,U1,6,AIN0*%
%TO.N,Net-(U1-AIN0)*%
X95142000Y-102250001D03*
%TO.P,U1,7,AIN1*%
%TO.N,Net-(U1-AIN1)*%
X95142000Y-102899999D03*
%TO.P,U1,8,AIN2*%
%TO.N,Net-(U1-AIN2)*%
X95142000Y-103549998D03*
%TO.P,U1,9,AIN3*%
%TO.N,Net-(U1-AIN3)*%
X95142000Y-104199999D03*
%TO.P,U1,10,AIN4*%
%TO.N,Net-(U1-AIN4)*%
X95142000Y-104849998D03*
%TO.P,U1,11,AIN5*%
%TO.N,Net-(U1-AIN5)*%
X95142000Y-105499999D03*
%TO.P,U1,12,AIN6*%
%TO.N,Net-(U1-AIN6)*%
X95142000Y-106149998D03*
%TO.P,U1,13,AIN7*%
%TO.N,Net-(U1-AIN7)*%
X95142000Y-106799999D03*
%TO.P,U1,14,\u002ASYNC/\u002APDWN*%
%TO.N,Net-(U1-\u002ARESET)*%
X95142000Y-107449998D03*
%TO.P,U1,15,\u002ARESET*%
X102000000Y-107450000D03*
%TO.P,U1,16,DVDD*%
X102000000Y-106799999D03*
%TO.P,U1,17,DGND*%
%TO.N,GND*%
X102000000Y-106150000D03*
%TO.P,U1,18,XTAL2*%
%TO.N,Net-(U1-XTAL2)*%
X102000000Y-105499999D03*
%TO.P,U1,19,XTAL1/CLKIN*%
%TO.N,Net-(U1-XTAL1{slash}CLKIN)*%
X102000000Y-104850001D03*
%TO.P,U1,20,\u002ACS*%
%TO.N,/microcontroler/cs*%
X102000000Y-104199999D03*
%TO.P,U1,21,\u002ADRDY*%
%TO.N,/microcontroler/int_bar*%
X102000000Y-103550001D03*
%TO.P,U1,22,DOUT*%
%TO.N,/microcontroler/miso*%
X102000000Y-102899999D03*
%TO.P,U1,23,DIN*%
%TO.N,/microcontroler/mosi*%
X102000000Y-102250001D03*
%TO.P,U1,24,SCLK*%
%TO.N,/microcontroler/sclk*%
X102000000Y-101599999D03*
%TO.P,U1,25,D0/CLKOUT*%
%TO.N,unconnected-(U1-D0{slash}CLKOUT-Pad25)*%
X102000000Y-100950001D03*
%TO.P,U1,26,D1*%
%TO.N,unconnected-(U1-D1-Pad26)*%
X102000000Y-100300000D03*
%TO.P,U1,27,D2*%
%TO.N,unconnected-(U1-D2-Pad27)*%
X102000000Y-99650001D03*
%TO.P,U1,28,D3*%
%TO.N,unconnected-(U1-D3-Pad28)*%
X102000000Y-99000000D03*
%TD*%
D20*
%TO.P,R9,1*%
%TO.N,Net-(D1-K)*%
X92950000Y-117374200D03*
%TO.P,R9,2*%
%TO.N,/transimpedance3/trans_out_a*%
X92950000Y-115374200D03*
%TD*%
D14*
%TO.P,C11,1*%
%TO.N,Net-(U1-\u002ARESET)*%
X102000000Y-109550000D03*
%TO.P,C11,2*%
%TO.N,GND*%
X100450000Y-109550000D03*
%TD*%
D15*
%TO.P,D2,1,C*%
%TO.N,GND*%
X112540000Y-116000000D03*
D16*
%TO.P,D2,2,A*%
X111270000Y-114730000D03*
%TO.P,D2,3,K*%
%TO.N,Net-(D2-K)*%
X110000000Y-116000000D03*
%TD*%
D13*
%TO.P,C8,1*%
%TO.N,Net-(U1-AIN7)*%
X97687500Y-109900000D03*
%TO.P,C8,2*%
%TO.N,GND*%
X95612500Y-109900000D03*
%TD*%
%TO.P,C20,1*%
%TO.N,/transimpedance/trans_out_b*%
X81005000Y-111900000D03*
%TO.P,C20,2*%
%TO.N,Net-(D4-K)*%
X78930000Y-111900000D03*
%TD*%
D33*
%TO.P,C19,1*%
%TO.N,+5V*%
X83550000Y-105827600D03*
%TO.P,C19,2*%
%TO.N,GND*%
X83550000Y-107902600D03*
%TD*%
D19*
%TO.P,C14,1*%
%TO.N,GND*%
X109150000Y-102950000D03*
%TO.P,C14,2*%
%TO.N,Net-(U1-XTAL1{slash}CLKIN)*%
X109150000Y-104500000D03*
%TD*%
D14*
%TO.P,C9,1*%
%TO.N,+5V*%
X97000000Y-96850000D03*
%TO.P,C9,2*%
%TO.N,GND*%
X95450000Y-96850000D03*
%TD*%
D12*
%TO.P,C29,1*%
%TO.N,Net-(U6-IN-)*%
X81963800Y-85810000D03*
%TO.P,C29,2*%
%TO.N,GND*%
X81963800Y-84260000D03*
%TD*%
D33*
%TO.P,C15,1*%
%TO.N,/transimpedance3/trans_out_a*%
X90950000Y-115336700D03*
%TO.P,C15,2*%
%TO.N,Net-(D1-K)*%
X90950000Y-117411700D03*
%TD*%
D25*
%TO.P,D4,1,C*%
%TO.N,GND*%
X78930000Y-118440000D03*
D16*
%TO.P,D4,2,A*%
X80200000Y-117170000D03*
%TO.P,D4,3,K*%
%TO.N,Net-(D4-K)*%
X78930000Y-115900000D03*
%TD*%
D33*
%TO.P,C17,1*%
%TO.N,/transimpedance3/trans_out_b*%
X106950000Y-116569200D03*
%TO.P,C17,2*%
%TO.N,Net-(D2-K)*%
X106950000Y-118644200D03*
%TD*%
D31*
%TO.P,R11,1*%
%TO.N,Net-(D3-K)*%
X80200000Y-97900000D03*
%TO.P,R11,2*%
%TO.N,/transimpedance/trans_out_a*%
X82200000Y-97900000D03*
%TD*%
D36*
%TO.N,Net-(U1-\u002ARESET)*%
X93300000Y-107450000D03*
X104200000Y-107450000D03*
%TO.N,+5V*%
X115650000Y-83600000D03*
%TO.N,/microcontroler/mosi*%
X105050000Y-88200000D03*
%TO.N,/microcontroler/cs*%
X102350000Y-88600000D03*
D37*
%TO.N,Net-(U1-AIN2)*%
X92350000Y-103900000D03*
%TO.N,/microcontroler/int_bar*%
X112500000Y-96000000D03*
%TO.N,/microcontroler/miso*%
X110000000Y-95000000D03*
%TO.N,/microcontroler/sclk*%
X107450000Y-96000000D03*
%TO.N,GND*%
X88200000Y-113400000D03*
X89000000Y-96500000D03*
X95000000Y-87500000D03*
%TO.N,+5V*%
X85000000Y-105828000D03*
X97000000Y-85000000D03*
X92700000Y-119300000D03*
%TO.N,Net-(U1-AIN3)*%
X91900000Y-105400000D03*
%TO.N,Net-(U1-AIN4)*%
X99100000Y-108800000D03*
%TO.N,Net-(U1-AIN5)*%
X93015000Y-105565000D03*
%TD*%
D38*
%TO.N,Net-(U1-XTAL1{slash}CLKIN)*%
X109150000Y-104500000D02*
X107450000Y-104500000D01*
X107450000Y-104500000D02*
X107099999Y-104850001D01*
X107099999Y-104850001D02*
X102000000Y-104850001D01*
%TO.N,Net-(U1-AIN3)*%
X92650000Y-104800000D02*
X92500000Y-104800000D01*
X92500000Y-104800000D02*
X91900000Y-105400000D01*
X92650000Y-104800000D02*
X93250000Y-104200000D01*
X93250000Y-104200000D02*
X95141999Y-104200000D01*
X95141999Y-104200000D02*
X95142000Y-104199999D01*
%TO.N,Net-(U1-AIN7)*%
X95142000Y-106799999D02*
X96570700Y-106799999D01*
X96570700Y-106799999D02*
X97687500Y-107916799D01*
X97687500Y-107916799D02*
X97687500Y-109900000D01*
%TO.N,Net-(U1-\u002ARESET)*%
X102000000Y-106799999D02*
X102000000Y-111250000D01*
X102000000Y-107450000D02*
X104200000Y-107450000D01*
X93200002Y-107449998D02*
X93200000Y-107450000D01*
X95142000Y-107449998D02*
X93200002Y-107449998D01*
%TO.N,Net-(U1-AIN4)*%
X99100000Y-106450000D02*
X97500000Y-104850000D01*
X99100000Y-108800000D02*
X99100000Y-106450000D01*
X97500000Y-104850000D02*
X93950000Y-104850000D01*
D39*
%TO.N,Net-(U1-AIN7)*%
X97687500Y-109900000D02*
X98200000Y-109900000D01*
D40*
X97687500Y-109900000D02*
X98400000Y-110612500D01*
X98400000Y-110612500D02*
X98400000Y-110950000D01*
%TO.N,+5V*%
X97000000Y-85000000D02*
X114450000Y-85000000D01*
X114450000Y-85000000D02*
X115700000Y-83750000D01*
%TO.N,/microcontroler/cs*%
X102350000Y-88600000D02*
X98400000Y-92550000D01*
%TO.N,/microcontroler/mosi*%
X104940000Y-88560000D02*
X99800000Y-93700000D01*
X99800000Y-93700000D02*
X99800000Y-101549000D01*
D38*
%TO.N,Net-(U1-AIN2)*%
X92350000Y-103900000D02*
X92700000Y-103550000D01*
X92700000Y-103550000D02*
X93000000Y-103550000D01*
%TO.N,+5V*%
X97000000Y-98000000D02*
X97000000Y-98550000D01*
X97000000Y-98550000D02*
X96550000Y-99000000D01*
X96550000Y-99000000D02*
X95142000Y-99000000D01*
%TO.N,/microcontroler/int_bar*%
X106450000Y-103550000D02*
X102000001Y-103550000D01*
X102000001Y-103550000D02*
X102000000Y-103550001D01*
%TO.N,Net-(U1-XTAL2)*%
X104349999Y-105499999D02*
X102000002Y-105499999D01*
D41*
X104350000Y-105500000D02*
X104349999Y-105499999D01*
D38*
%TO.N,/microcontroler/cs*%
X99200000Y-104200000D02*
X103950000Y-104200000D01*
%TO.N,Net-(U1-AIN6)*%
X95142000Y-106149998D02*
X95141998Y-106150000D01*
X95141998Y-106150000D02*
X93450000Y-106150000D01*
X93450000Y-106150000D02*
X91400000Y-108200000D01*
%TO.N,Net-(U1-AIN5)*%
X93015000Y-105565000D02*
X93080000Y-105500000D01*
X93080000Y-105500000D02*
X95141999Y-105500000D01*
X95141999Y-105500000D02*
X95142000Y-105499999D01*
%TO.N,Net-(U1-AIN2)*%
X95142000Y-103549998D02*
X95141998Y-103550000D01*
X95141998Y-103550000D02*
X93000000Y-103550000D01*
%TO.N,Net-(U1-AIN1)*%
X95142000Y-102899999D02*
X95141999Y-102900000D01*
X95141999Y-102900000D02*
X91550000Y-102900000D01*
X91550000Y-102900000D02*
X91000000Y-103450000D01*
%TO.N,Net-(U1-AIN0)*%
X95142000Y-102250001D02*
X95141999Y-102250000D01*
X95141999Y-102250000D02*
X93000000Y-102250000D01*
X93000000Y-102250000D02*
X92200000Y-101450000D01*
X92200000Y-101450000D02*
X91000000Y-101450000D01*
%TO.N,/voltage_reference_buffer/vrefp*%
X91850000Y-98150000D02*
X92100000Y-98400000D01*
X92100000Y-98400000D02*
X92100000Y-100150000D01*
X92100000Y-100150000D02*
X92900000Y-100950000D01*
X92900000Y-100950000D02*
X95141999Y-100950000D01*
X95141999Y-100950000D02*
X95142000Y-100950001D01*
%TO.N,/voltage_reference_buffer/vrefn*%
X95142000Y-100300000D02*
X93945900Y-100300000D01*
X93945900Y-100300000D02*
X93050000Y-99404100D01*
D39*
%TO.N,Net-(U1-\u002ARESET)*%
X101975000Y-109404000D02*
X102000000Y-109429000D01*
X102000000Y-109429000D02*
X102000000Y-109550000D01*
X101975000Y-107558000D02*
X102000000Y-107533000D01*
X102000000Y-107533000D02*
X102000000Y-107450000D01*
D40*
%TO.N,GND*%
X78930000Y-118440000D02*
X79071700Y-118581700D01*
%TO.N,+5V*%
X103088000Y-114000100D02*
X103088000Y-114000000D01*
X85000000Y-105828000D02*
X85000000Y-112228932D01*
D39*
X103088000Y-114000200D02*
X103088000Y-114000100D01*
X103088000Y-114228000D02*
X103088000Y-114114000D01*
D41*
X100877500Y-116104000D02*
X100878000Y-116104000D01*
D42*
X69128973Y-126000000D02*
X67400000Y-126000000D01*
X84100300Y-119982000D02*
X82746766Y-121335534D01*
D41*
X100877600Y-116104100D02*
X100877600Y-116104200D01*
D40*
X97000000Y-85000000D02*
X96464466Y-84464466D01*
D38*
X80438800Y-90270000D02*
X80263800Y-90445000D01*
D39*
X103088000Y-114028000D02*
X103088000Y-114014000D01*
D40*
X78955002Y-90445000D02*
X76435507Y-92964495D01*
D39*
X97669000Y-112850000D02*
X97297300Y-113221000D01*
X103088000Y-114057000D02*
X103088000Y-114028000D01*
D40*
X82700000Y-118581700D02*
X84100300Y-119982000D01*
D42*
X68635505Y-92964495D02*
X76435507Y-92964495D01*
D40*
X103088000Y-114028000D02*
X103088000Y-114014000D01*
D41*
X103088000Y-114000000D02*
X103087500Y-114000000D01*
D40*
X81470400Y-105828000D02*
X83549600Y-105828000D01*
D39*
X97051200Y-119300000D02*
X92700000Y-119300000D01*
D40*
X79445000Y-90445000D02*
X80263800Y-90445000D01*
X80600000Y-83000000D02*
X80564466Y-83035534D01*
X81470000Y-105828000D02*
X81470100Y-105828000D01*
X103088000Y-114000500D02*
X103088000Y-114000200D01*
X103088000Y-114014000D02*
X103088000Y-114007000D01*
D39*
X81470400Y-105828000D02*
X81470200Y-105828000D01*
D41*
X83550000Y-105827600D02*
X83550000Y-105828000D01*
D40*
X79100000Y-86571068D02*
X79100000Y-90100000D01*
D39*
X81470100Y-105828000D02*
X81470000Y-105828000D01*
D41*
X81470100Y-105828000D02*
X81470000Y-105828000D01*
D39*
X97297300Y-119054000D02*
X97051200Y-119300000D01*
X100877000Y-116104000D02*
X99585300Y-116104000D01*
D40*
X92928932Y-83000000D02*
X80600000Y-83000000D01*
D42*
X67400000Y-126000000D02*
X61164466Y-119764466D01*
X79211232Y-122800000D02*
X76471068Y-122800000D01*
D39*
X99585300Y-113465000D02*
X98969700Y-112850000D01*
D41*
X83550400Y-105828000D02*
X83550000Y-105828000D01*
D39*
X83549600Y-105828000D02*
X83550000Y-105828000D01*
D40*
X103088000Y-114007000D02*
X103088000Y-114004000D01*
D39*
X81470200Y-105828000D02*
X81470100Y-105828000D01*
X103088000Y-114114000D02*
X103088000Y-114057000D01*
D40*
X103088000Y-114456000D02*
X103088000Y-114228000D01*
X83535534Y-115764466D02*
X82700000Y-116600000D01*
X83549600Y-105828000D02*
X83550000Y-105828000D01*
D39*
X103088000Y-114000500D02*
X103088000Y-114000200D01*
X98969700Y-112850000D02*
X97669000Y-112850000D01*
D40*
X81470200Y-105828000D02*
X81470400Y-105828000D01*
D38*
X82536200Y-90270000D02*
X80438800Y-90270000D01*
D40*
X83550400Y-105828000D02*
X85000000Y-105828000D01*
X91700000Y-120200000D02*
X92600000Y-119300000D01*
D41*
X81470000Y-105827600D02*
X81470000Y-105828000D01*
D39*
X103088000Y-114002000D02*
X103088000Y-114001000D01*
D40*
X103088000Y-114002000D02*
X103088000Y-114001000D01*
X103088000Y-114114000D02*
X103088000Y-114057000D01*
X84318300Y-120200000D02*
X91700000Y-120200000D01*
D41*
X100877500Y-116104000D02*
X100877600Y-116104100D01*
D40*
X103088000Y-114001000D02*
X103088000Y-114000500D01*
X101896000Y-116104000D02*
X103088000Y-114912000D01*
X97000000Y-95200000D02*
X97000000Y-96850000D01*
X79100000Y-90100000D02*
X79445000Y-90445000D01*
D42*
X72935534Y-124264466D02*
X72664466Y-124535534D01*
X61164466Y-100435534D02*
X68635505Y-92964495D01*
D40*
X103088000Y-114057000D02*
X103088000Y-114028000D01*
X103088000Y-114004000D02*
X103088000Y-114002000D01*
X81470100Y-105828000D02*
X81470200Y-105828000D01*
D39*
X103088000Y-114000100D02*
X103088000Y-114000000D01*
D40*
X100878000Y-116104000D02*
X101896000Y-116104000D01*
X80263800Y-90445000D02*
X78955002Y-90445000D01*
D39*
X97297300Y-113221000D02*
X97297300Y-119054000D01*
X103088000Y-114004000D02*
X103088000Y-114002000D01*
X92600000Y-119300000D02*
X92700000Y-119300000D01*
D40*
X84100300Y-119982000D02*
X84318300Y-120200000D01*
D41*
X100877000Y-116104000D02*
X100877500Y-116104000D01*
D39*
X99585300Y-116104000D02*
X99585300Y-113465000D01*
D40*
X103088000Y-114912000D02*
X103088000Y-114456000D01*
X103088000Y-114228000D02*
X103088000Y-114114000D01*
X82700000Y-116600000D02*
X82700000Y-118581700D01*
X97000000Y-95200000D02*
X97000000Y-85000000D01*
X97000000Y-96850000D02*
X97000000Y-98000000D01*
X83550000Y-105828000D02*
X83550400Y-105828000D01*
D42*
X59700000Y-116228932D02*
X59700000Y-103971068D01*
D41*
X81470100Y-105828000D02*
X81470000Y-105828000D01*
D40*
X103088000Y-114000200D02*
X103088000Y-114000100D01*
D39*
X103088000Y-114456000D02*
X103088000Y-114228000D01*
X103088000Y-114014000D02*
X103088000Y-114007000D01*
X103088000Y-114007000D02*
X103088000Y-114004000D01*
X103088000Y-114001000D02*
X103088000Y-114000500D01*
D42*
X59700000Y-103971068D02*
G75*
G02*
X61164482Y-100435550I5000000J-32D01*
G01*
X76471068Y-122800000D02*
G75*
G03*
X72935550Y-124264482I32J-5000000D01*
G01*
D40*
X96464466Y-84464466D02*
G75*
G03*
X92928932Y-82999977I-3535566J-3535534D01*
G01*
X79100000Y-86571068D02*
G75*
G02*
X80564482Y-83035550I5000000J-32D01*
G01*
D42*
X82746766Y-121335534D02*
G75*
G02*
X79211232Y-122800023I-3535566J3535534D01*
G01*
X61164466Y-119764466D02*
G75*
G02*
X59699977Y-116228932I3535534J3535566D01*
G01*
X72664466Y-124535534D02*
G75*
G02*
X69128973Y-125999981I-3535466J3535434D01*
G01*
D40*
X85000000Y-112228932D02*
G75*
G02*
X83535518Y-115764450I-5000000J32D01*
G01*
%TO.N,Net-(U1-XTAL2)*%
X104900000Y-106050000D02*
X104950000Y-106100000D01*
X110900000Y-107500000D02*
X111800000Y-107500000D01*
X104950000Y-106100000D02*
X108150000Y-106100000D01*
X108150000Y-106100000D02*
X109500000Y-106100000D01*
D38*
X104900000Y-106050000D02*
X104350000Y-105500000D01*
D40*
X109500000Y-106100000D02*
X110900000Y-107500000D01*
%TO.N,Net-(U1-XTAL1{slash}CLKIN)*%
X109150000Y-104500000D02*
X111800000Y-104500000D01*
%TO.N,/voltage_reference_buffer/vrefn*%
X93050000Y-91950000D02*
X93150000Y-91850000D01*
X93050000Y-93550000D02*
X93050000Y-91950000D01*
X93050000Y-95550000D02*
X93050000Y-93550000D01*
X93050000Y-99404100D02*
X93050000Y-97350000D01*
X93050000Y-97350000D02*
X93050000Y-95550000D01*
D41*
%TO.N,Net-(U1-AIN0)*%
X88400100Y-101438000D02*
X88400000Y-101438000D01*
X90400100Y-101438000D02*
X90400000Y-101437900D01*
D40*
X88400500Y-101438000D02*
X88400200Y-101438000D01*
D41*
X88400100Y-101438000D02*
X88400000Y-101438000D01*
D39*
X91000000Y-101450000D02*
X90988000Y-101438000D01*
D41*
X90400000Y-101437900D02*
X90400000Y-101437500D01*
D39*
X90400100Y-101438000D02*
X90400000Y-101438000D01*
D41*
X88400000Y-101437900D02*
X88400000Y-101437500D01*
D39*
X90400500Y-101438000D02*
X90400300Y-101438000D01*
X88400100Y-101438000D02*
X88400000Y-101438000D01*
X90400200Y-101438000D02*
X90400100Y-101438000D01*
D40*
X88400100Y-101438000D02*
X88400000Y-101438000D01*
D39*
X90400300Y-101438000D02*
X90400200Y-101438000D01*
D40*
X88400200Y-101438000D02*
X88400100Y-101438000D01*
D41*
X90400100Y-101438000D02*
X90400000Y-101438000D01*
D39*
X88400500Y-101438000D02*
X88400200Y-101438000D01*
X88400200Y-101438000D02*
X88400100Y-101438000D01*
D41*
X88400100Y-101438000D02*
X88400000Y-101437900D01*
D39*
X90400500Y-101438000D02*
X90400300Y-101438000D01*
D40*
X90400000Y-101438000D02*
X88400500Y-101438000D01*
D39*
X90400300Y-101438000D02*
X90400200Y-101438000D01*
X88400100Y-101438000D02*
X88400000Y-101438000D01*
X90988000Y-101438000D02*
X90400500Y-101438000D01*
X90400200Y-101438000D02*
X90400100Y-101438000D01*
X90400100Y-101438000D02*
X90400000Y-101438000D01*
D41*
X90400100Y-101438000D02*
X90400000Y-101438000D01*
D40*
%TO.N,/voltage_reference_buffer/vrefp*%
X91450000Y-94834700D02*
X91450000Y-93367300D01*
X91450000Y-93367300D02*
X91450000Y-91900000D01*
X91450000Y-96292300D02*
X91450000Y-94834700D01*
X91550000Y-92000000D02*
X91550000Y-93600000D01*
D41*
X91500000Y-96342300D02*
X91500000Y-97350000D01*
D40*
X91450000Y-91900000D02*
X91550000Y-92000000D01*
X91850000Y-98150000D02*
X91450000Y-97750000D01*
D41*
X91500000Y-93417300D02*
X91500000Y-93550000D01*
X91500000Y-94884700D02*
X91500000Y-95550000D01*
X91450000Y-94834700D02*
X91500000Y-94884700D01*
X91450000Y-96292300D02*
X91500000Y-96342300D01*
D40*
X91450000Y-97750000D02*
X91450000Y-96292300D01*
D41*
X91450000Y-93367300D02*
X91500000Y-93417300D01*
D40*
%TO.N,/microcontroler/int_bar*%
X112560000Y-96024900D02*
X112560000Y-97440000D01*
X112560000Y-97440000D02*
X106450000Y-103550000D01*
%TO.N,Net-(U1-AIN1)*%
X90400000Y-103450000D02*
X88400000Y-103450000D01*
D39*
X90400000Y-103450000D02*
X91000000Y-103450000D01*
D38*
%TO.N,/microcontroler/miso*%
X106000000Y-102000000D02*
X105100000Y-102900000D01*
D40*
X106000000Y-102000000D02*
X110000000Y-98000000D01*
X110000000Y-98000000D02*
X110000000Y-95000000D01*
D38*
X105100000Y-102900000D02*
X102000000Y-102900000D01*
D41*
%TO.N,/microcontroler/sclk*%
X103551000Y-101600000D02*
X102000001Y-101600000D01*
D39*
X104166000Y-100986000D02*
X104557000Y-100595000D01*
X104164000Y-100986000D02*
X104166000Y-100986000D01*
D40*
X107480000Y-97671500D02*
X107480000Y-96000000D01*
X104557000Y-100595000D02*
X107480000Y-97671500D01*
D38*
X104778000Y-100373000D02*
X104164000Y-100986000D01*
D41*
X102000001Y-101600000D02*
X102000000Y-101599999D01*
D38*
X104164000Y-100986000D02*
X103551000Y-101600000D01*
D41*
%TO.N,/microcontroler/mosi*%
X100501000Y-102250000D02*
X103600000Y-102250000D01*
D38*
X99800000Y-101549000D02*
X100501000Y-102250000D01*
%TO.N,/microcontroler/cs*%
X98400000Y-103400000D02*
X99200000Y-104200000D01*
D40*
%TO.N,Net-(D1-K)*%
X87350100Y-117412000D02*
X87350200Y-117412000D01*
D41*
X87350100Y-117412000D02*
X87350000Y-117412000D01*
D40*
X95912500Y-117412000D02*
X95949900Y-117374000D01*
D39*
X92950000Y-117374000D02*
X92950000Y-117374200D01*
D41*
X87350100Y-117412000D02*
X87350000Y-117411900D01*
X95950000Y-117374000D02*
X95950000Y-117374200D01*
D40*
X87350000Y-117412000D02*
X87350100Y-117412000D01*
D41*
X90950000Y-117411700D02*
X90950000Y-117412000D01*
D40*
X92950000Y-117412000D02*
X95912500Y-117412000D01*
D39*
X87350200Y-117412000D02*
X87350100Y-117412000D01*
D40*
X90950000Y-117412000D02*
X92950000Y-117412000D01*
X87350200Y-117412000D02*
X87350300Y-117412000D01*
D39*
X87350300Y-117412000D02*
X87350200Y-117412000D01*
X95950000Y-117374000D02*
X95949900Y-117374000D01*
X92950000Y-117374200D02*
X92950000Y-117412000D01*
D41*
X87350000Y-117411900D02*
X87350000Y-117411700D01*
D40*
X87350300Y-117412000D02*
X90950000Y-117412000D01*
D39*
X87350100Y-117412000D02*
X87350000Y-117412000D01*
D40*
X95949900Y-117374000D02*
X95950000Y-117374000D01*
D41*
X87350100Y-117412000D02*
X87350000Y-117412000D01*
D40*
%TO.N,Net-(D2-K)*%
X100878000Y-118644000D02*
X104449800Y-118644000D01*
D41*
X100878000Y-118644000D02*
X100877800Y-118644000D01*
X104449800Y-118644000D02*
X104450000Y-118644200D01*
D39*
X106949800Y-118644000D02*
X106950000Y-118644000D01*
D40*
X106950000Y-118644000D02*
X108356000Y-118644000D01*
D39*
X106450000Y-118644000D02*
X106949800Y-118644000D01*
D41*
X100877800Y-118644000D02*
X100877600Y-118644200D01*
D40*
X104449800Y-118644000D02*
X106450000Y-118644000D01*
X110000000Y-117000000D02*
X110000000Y-116000000D01*
X108356000Y-118644000D02*
X110000000Y-117000000D01*
D41*
X106949800Y-118644000D02*
X106950000Y-118644200D01*
D39*
%TO.N,/transimpedance/trans_out_a*%
X81470000Y-100599000D02*
X81470000Y-100900000D01*
D40*
X82237500Y-95900000D02*
X82237500Y-97406200D01*
D39*
X82237500Y-97406200D02*
X82200000Y-97443700D01*
D40*
X82237500Y-97406200D02*
X82237500Y-98912500D01*
D41*
X86399700Y-101438000D02*
X86400000Y-101437700D01*
D40*
X81550000Y-100519000D02*
X81550000Y-101438000D01*
X81550000Y-101438000D02*
X85737500Y-101438000D01*
X81550000Y-99600000D02*
X81550000Y-100519000D01*
D41*
X86400000Y-101437700D02*
X86400000Y-101437500D01*
X86399700Y-101438000D02*
X86399800Y-101438000D01*
X86399500Y-101438000D02*
X86399700Y-101438000D01*
D39*
X85737500Y-101438000D02*
X86399500Y-101438000D01*
X81550000Y-100519000D02*
X81470000Y-100599000D01*
D40*
X82237500Y-98912500D02*
X81550000Y-99600000D01*
D39*
X82200000Y-97443700D02*
X82200000Y-97900000D01*
D40*
%TO.N,/transimpedance/trans_out_b*%
X81005000Y-111900000D02*
X81005000Y-109475000D01*
X81005000Y-109475000D02*
X80930000Y-109400000D01*
X80200000Y-105827600D02*
X80200000Y-108670000D01*
X80200000Y-108670000D02*
X80930000Y-109400000D01*
D43*
X80200000Y-104350000D02*
X80200000Y-105827600D01*
D40*
X81100000Y-103450000D02*
X80200000Y-104350000D01*
X81100000Y-103450000D02*
X86400000Y-103450000D01*
%TO.N,/transimpedance3/trans_out_a*%
X94480000Y-116104000D02*
X93712500Y-115337000D01*
X95950000Y-116104000D02*
X95949900Y-116104000D01*
D41*
X90950000Y-115336700D02*
X90950000Y-115337000D01*
X92949600Y-115374000D02*
X92949800Y-115374000D01*
D40*
X92912800Y-115337000D02*
X93712500Y-115337000D01*
D41*
X92931400Y-115356000D02*
X92949600Y-115374000D01*
X95950000Y-116104000D02*
X95950000Y-116104200D01*
D40*
X90950000Y-115337000D02*
X92912800Y-115337000D01*
D39*
X95949900Y-116104000D02*
X95950000Y-116104000D01*
D41*
X92950000Y-115374200D02*
X92949800Y-115374000D01*
D39*
X95949800Y-116104000D02*
X95949900Y-116104000D01*
D40*
X95949800Y-116104000D02*
X94480000Y-116104000D01*
D39*
X92912800Y-115337000D02*
X92931400Y-115356000D01*
D40*
X95949900Y-116104000D02*
X95949800Y-116104000D01*
X93200000Y-112150000D02*
X93200000Y-114824000D01*
X93200000Y-114824000D02*
X93712500Y-115337000D01*
D39*
%TO.N,Net-(U1-AIN6)*%
X91250000Y-110225000D02*
X91200000Y-110175000D01*
D40*
X91200000Y-112150000D02*
X91250000Y-112100000D01*
D39*
X91200000Y-110175000D02*
X91200000Y-109900000D01*
D40*
X91250000Y-110225000D02*
X91250000Y-108350000D01*
X91250000Y-108350000D02*
X91400000Y-108200000D01*
X91250000Y-112100000D02*
X91250000Y-110225000D01*
%TO.N,Net-(U1-AIN7)*%
X98400000Y-110950000D02*
X98400000Y-112000000D01*
D39*
X98300000Y-111050000D02*
X98300000Y-111800000D01*
X98400000Y-110950000D02*
X98300000Y-111050000D01*
D41*
%TO.N,/transimpedance3/trans_out_b*%
X100877800Y-117374000D02*
X100877600Y-117374200D01*
D39*
X106950000Y-116569000D02*
X106949800Y-116569000D01*
D40*
X103255000Y-116569000D02*
X104450000Y-116569000D01*
D41*
X104450000Y-116644000D02*
X104450000Y-116644200D01*
D39*
X106949800Y-116569000D02*
X106450000Y-116569000D01*
D40*
X104450000Y-116569000D02*
X106450000Y-116569000D01*
X98300000Y-116550000D02*
X99150000Y-117400000D01*
X102450000Y-117374000D02*
X103255000Y-116569000D01*
X99725800Y-117374000D02*
X100877800Y-117374000D01*
X100877800Y-117374000D02*
X102450000Y-117374000D01*
X99150000Y-117400000D02*
X99700000Y-117400000D01*
X99700000Y-117400000D02*
X99725800Y-117374000D01*
X98300000Y-113800000D02*
X98300000Y-116550000D01*
D41*
X106949800Y-116569000D02*
X106950000Y-116569200D01*
D39*
X104450000Y-116644000D02*
X104450000Y-116569000D01*
%TO.N,Net-(U6-IN+)*%
X90665300Y-88334700D02*
X91000000Y-88000000D01*
D40*
X89819400Y-89000000D02*
X87463800Y-89000000D01*
X91150000Y-86050000D02*
X91150000Y-87669400D01*
X90484700Y-88334700D02*
X89819400Y-89000000D01*
X91150000Y-87669400D02*
X90484700Y-88334700D01*
D39*
X90484700Y-88334700D02*
X90665300Y-88334700D01*
D40*
%TO.N,Net-(U6-IN-)*%
X81973800Y-85820000D02*
X81413800Y-85820000D01*
X87463800Y-90250000D02*
X91450000Y-90250000D01*
D39*
X81973800Y-85820000D02*
X81963800Y-85810000D01*
D40*
X83663800Y-85820000D02*
X81973800Y-85820000D01*
X80513800Y-88377600D02*
X81136200Y-89000000D01*
X81136200Y-89000000D02*
X82536200Y-89000000D01*
X85463800Y-85820000D02*
X83663800Y-85820000D01*
X82536200Y-89000000D02*
X84793800Y-89000000D01*
X86083800Y-90250000D02*
X87463800Y-90250000D01*
X81413800Y-85820000D02*
X80513800Y-86720000D01*
X86063800Y-90270000D02*
X86083800Y-90250000D01*
X84793800Y-89000000D02*
X86063800Y-90270000D01*
X80513800Y-86720000D02*
X80513800Y-88377600D01*
D39*
X87463800Y-90270000D02*
X87463800Y-90250000D01*
D40*
%TO.N,Net-(D3-K)*%
X80162500Y-97854700D02*
X80162500Y-99971300D01*
D39*
X80162500Y-99971300D02*
X80200000Y-100009000D01*
D40*
X77270000Y-95900000D02*
X80162500Y-95900000D01*
D39*
X80162500Y-97854700D02*
X80200000Y-97892200D01*
D40*
X80162500Y-95900000D02*
X80162500Y-97854700D01*
D39*
X80200000Y-100009000D02*
X80200000Y-100900000D01*
X80200000Y-97892200D02*
X80200000Y-97900000D01*
D40*
X80162500Y-99971300D02*
X80162500Y-102088000D01*
%TO.N,Net-(D4-K)*%
X78930000Y-115900000D02*
X78930000Y-109400000D01*
D43*
X78930000Y-105828000D02*
X78930000Y-105827600D01*
D40*
X78930000Y-105828000D02*
X78930000Y-109400000D01*
%TO.N,/microcontroler/cs*%
X102400000Y-88550000D02*
X102350000Y-88600000D01*
X98400000Y-92550000D02*
X98400000Y-103400000D01*
%TD*%
%TA.AperFunction,Conductor*%
%TO.N,GND*%
G36*
X84498609Y-89770185D02*
G01*
X84519251Y-89786819D01*
X85476507Y-90744074D01*
X85476517Y-90744085D01*
X85480847Y-90748415D01*
X85480848Y-90748416D01*
X85585384Y-90852952D01*
X85649062Y-90895499D01*
X85708305Y-90935084D01*
X85708307Y-90935085D01*
X85708311Y-90935087D01*
X85844882Y-90991656D01*
X85844887Y-90991658D01*
X85844891Y-90991658D01*
X85844892Y-90991659D01*
X85989879Y-91020500D01*
X86114456Y-91020500D01*
X86181495Y-91040185D01*
X86227250Y-91092989D01*
X86237194Y-91162147D01*
X86236073Y-91168691D01*
X86222700Y-91235921D01*
X86222700Y-91844078D01*
X86237232Y-91917135D01*
X86237233Y-91917139D01*
X86237234Y-91917140D01*
X86292599Y-92000001D01*
X86375460Y-92055366D01*
X86375464Y-92055367D01*
X86448521Y-92069899D01*
X86448524Y-92069900D01*
X86448526Y-92069900D01*
X88479076Y-92069900D01*
X88479077Y-92069899D01*
X88552140Y-92055366D01*
X88635001Y-92000001D01*
X88690366Y-91917140D01*
X88704900Y-91844074D01*
X88704900Y-91235926D01*
X88704900Y-91235923D01*
X88704899Y-91235921D01*
X88687984Y-91150881D01*
X88691785Y-91150124D01*
X88686665Y-91102477D01*
X88717943Y-91040000D01*
X88778034Y-91004350D01*
X88808694Y-91000500D01*
X91038030Y-91000500D01*
X91105069Y-91020185D01*
X91150824Y-91072989D01*
X91160768Y-91142147D01*
X91131743Y-91205703D01*
X91099508Y-91231443D01*
X91099568Y-91231533D01*
X91098515Y-91232236D01*
X91096487Y-91233856D01*
X91094507Y-91234914D01*
X91057418Y-91259695D01*
X91029487Y-91273632D01*
X90962118Y-91297206D01*
X90852850Y-91377850D01*
X90772207Y-91487117D01*
X90772206Y-91487119D01*
X90727353Y-91615298D01*
X90727353Y-91615300D01*
X90724500Y-91645730D01*
X90724500Y-91688188D01*
X90722117Y-91712380D01*
X90699500Y-91826079D01*
X90699500Y-91826082D01*
X90699500Y-93293382D01*
X90699500Y-94760782D01*
X90699500Y-96218382D01*
X90699500Y-97823918D01*
X90699500Y-97823920D01*
X90699499Y-97823920D01*
X90728340Y-97968907D01*
X90728343Y-97968917D01*
X90784912Y-98105488D01*
X90784916Y-98105495D01*
X90801422Y-98130198D01*
X90801423Y-98130201D01*
X90867046Y-98228414D01*
X90867052Y-98228421D01*
X91371580Y-98732948D01*
X91371584Y-98732951D01*
X91494498Y-98815080D01*
X91494511Y-98815087D01*
X91572952Y-98847578D01*
X91627356Y-98891419D01*
X91649421Y-98957713D01*
X91649500Y-98962139D01*
X91649500Y-100209309D01*
X91664445Y-100265084D01*
X91680201Y-100323888D01*
X91709856Y-100375250D01*
X91739511Y-100426614D01*
X91739513Y-100426616D01*
X92100715Y-100787819D01*
X92134200Y-100849142D01*
X92129216Y-100918834D01*
X92087344Y-100974767D01*
X92021880Y-100999184D01*
X92013034Y-100999500D01*
X91457791Y-100999500D01*
X91390752Y-100979815D01*
X91344997Y-100927011D01*
X91341609Y-100918833D01*
X91318797Y-100857671D01*
X91318793Y-100857664D01*
X91232547Y-100742455D01*
X91232544Y-100742452D01*
X91117335Y-100656206D01*
X91117328Y-100656202D01*
X90982482Y-100605908D01*
X90982483Y-100605908D01*
X90922883Y-100599501D01*
X90922881Y-100599500D01*
X90922873Y-100599500D01*
X90922864Y-100599500D01*
X89877129Y-100599500D01*
X89877123Y-100599501D01*
X89817516Y-100605908D01*
X89682671Y-100656202D01*
X89682668Y-100656204D01*
X89673902Y-100662767D01*
X89608438Y-100687184D01*
X89599591Y-100687500D01*
X89212694Y-100687500D01*
X89145655Y-100667815D01*
X89113429Y-100637813D01*
X89107546Y-100629954D01*
X89107544Y-100629952D01*
X89107543Y-100629951D01*
X88992335Y-100543706D01*
X88992328Y-100543702D01*
X88857482Y-100493408D01*
X88857483Y-100493408D01*
X88797883Y-100487001D01*
X88797881Y-100487000D01*
X88797873Y-100487000D01*
X88797864Y-100487000D01*
X88002129Y-100487000D01*
X88002123Y-100487001D01*
X87942516Y-100493408D01*
X87807671Y-100543702D01*
X87807664Y-100543706D01*
X87692455Y-100629952D01*
X87692452Y-100629955D01*
X87606206Y-100745164D01*
X87606202Y-100745171D01*
X87555908Y-100880017D01*
X87550856Y-100927011D01*
X87549501Y-100939623D01*
X87549500Y-100939635D01*
X87549500Y-101935370D01*
X87549501Y-101935376D01*
X87555908Y-101994983D01*
X87606202Y-102129828D01*
X87606206Y-102129835D01*
X87692452Y-102245044D01*
X87692455Y-102245047D01*
X87807669Y-102331297D01*
X87814302Y-102334919D01*
X87863707Y-102384325D01*
X87878558Y-102452598D01*
X87854140Y-102518062D01*
X87814302Y-102552581D01*
X87807669Y-102556202D01*
X87692455Y-102642452D01*
X87692452Y-102642455D01*
X87606206Y-102757664D01*
X87606202Y-102757671D01*
X87555908Y-102892517D01*
X87551825Y-102930500D01*
X87549501Y-102952123D01*
X87549500Y-102952135D01*
X87549500Y-103947870D01*
X87549501Y-103947876D01*
X87555908Y-104007483D01*
X87606202Y-104142328D01*
X87606206Y-104142335D01*
X87692452Y-104257544D01*
X87692455Y-104257547D01*
X87807664Y-104343793D01*
X87807671Y-104343797D01*
X87942517Y-104394091D01*
X87942516Y-104394091D01*
X87949444Y-104394835D01*
X88002127Y-104400500D01*
X88797872Y-104400499D01*
X88857483Y-104394091D01*
X88992331Y-104343796D01*
X89107546Y-104257546D01*
X89113052Y-104250191D01*
X89168985Y-104208319D01*
X89212320Y-104200500D01*
X89600259Y-104200500D01*
X89667298Y-104220185D01*
X89674570Y-104225233D01*
X89682669Y-104231296D01*
X89682671Y-104231297D01*
X89817517Y-104281591D01*
X89817516Y-104281591D01*
X89824444Y-104282335D01*
X89877127Y-104288000D01*
X90922872Y-104287999D01*
X90982483Y-104281591D01*
X91117331Y-104231296D01*
X91232546Y-104145046D01*
X91318796Y-104029831D01*
X91369091Y-103894983D01*
X91371607Y-103871579D01*
X91375499Y-103835386D01*
X91375499Y-103835382D01*
X91375500Y-103835373D01*
X91375499Y-103762964D01*
X91395183Y-103695926D01*
X91411809Y-103675292D01*
X91531262Y-103555840D01*
X91592582Y-103522358D01*
X91662274Y-103527342D01*
X91718207Y-103569214D01*
X91742624Y-103634678D01*
X91734882Y-103687495D01*
X91713763Y-103743181D01*
X91694722Y-103899999D01*
X91694722Y-103900000D01*
X91713762Y-104056818D01*
X91763066Y-104186819D01*
X91769780Y-104204523D01*
X91859517Y-104334530D01*
X91977760Y-104439283D01*
X91989775Y-104445589D01*
X92039986Y-104494171D01*
X92055962Y-104562190D01*
X92032628Y-104628048D01*
X92019833Y-104643062D01*
X91949714Y-104713182D01*
X91888394Y-104746666D01*
X91862035Y-104749500D01*
X91821014Y-104749500D01*
X91667634Y-104787303D01*
X91527762Y-104860715D01*
X91527760Y-104860717D01*
X91423029Y-104953500D01*
X91409516Y-104965471D01*
X91319781Y-105095475D01*
X91319780Y-105095476D01*
X91263762Y-105243181D01*
X91244722Y-105399999D01*
X91244722Y-105400000D01*
X91263762Y-105556818D01*
X91319780Y-105704523D01*
X91409517Y-105834530D01*
X91527760Y-105939283D01*
X91527762Y-105939284D01*
X91667634Y-106012696D01*
X91821014Y-106050500D01*
X91821015Y-106050500D01*
X91978985Y-106050500D01*
X92132365Y-106012696D01*
X92272238Y-105939284D01*
X92272237Y-105939284D01*
X92272240Y-105939283D01*
X92298214Y-105916271D01*
X92361447Y-105886550D01*
X92430710Y-105895732D01*
X92482491Y-105938645D01*
X92524517Y-105999530D01*
X92642760Y-106104283D01*
X92642761Y-106104283D01*
X92642764Y-106104286D01*
X92648014Y-106107910D01*
X92692004Y-106162193D01*
X92699663Y-106231642D01*
X92668559Y-106294206D01*
X92665254Y-106297640D01*
X91549715Y-107413181D01*
X91488392Y-107446666D01*
X91462034Y-107449500D01*
X91326081Y-107449500D01*
X91181092Y-107478340D01*
X91181086Y-107478342D01*
X91044507Y-107534915D01*
X91044506Y-107534916D01*
X90921584Y-107617048D01*
X90921582Y-107617049D01*
X90921579Y-107617052D01*
X90921578Y-107617052D01*
X90667048Y-107871583D01*
X90649684Y-107897570D01*
X90632436Y-107923386D01*
X90584914Y-107994507D01*
X90528343Y-108131082D01*
X90528340Y-108131092D01*
X90499500Y-108276079D01*
X90499500Y-109033467D01*
X90479815Y-109100506D01*
X90474767Y-109107778D01*
X90418704Y-109182668D01*
X90418702Y-109182671D01*
X90368408Y-109317517D01*
X90362001Y-109377116D01*
X90362001Y-109377123D01*
X90362000Y-109377135D01*
X90362000Y-110422870D01*
X90362001Y-110422876D01*
X90368408Y-110482483D01*
X90418702Y-110617328D01*
X90418703Y-110617330D01*
X90474767Y-110692221D01*
X90499184Y-110757685D01*
X90499500Y-110766532D01*
X90499500Y-111291769D01*
X90479815Y-111358808D01*
X90474767Y-111366080D01*
X90406204Y-111457668D01*
X90406202Y-111457671D01*
X90355908Y-111592517D01*
X90349501Y-111652116D01*
X90349501Y-111652123D01*
X90349500Y-111652135D01*
X90349500Y-112647870D01*
X90349501Y-112647876D01*
X90355908Y-112707483D01*
X90406202Y-112842328D01*
X90406206Y-112842335D01*
X90492452Y-112957544D01*
X90492455Y-112957547D01*
X90607664Y-113043793D01*
X90607671Y-113043797D01*
X90742517Y-113094091D01*
X90742516Y-113094091D01*
X90749444Y-113094835D01*
X90802127Y-113100500D01*
X91597872Y-113100499D01*
X91657483Y-113094091D01*
X91792331Y-113043796D01*
X91907546Y-112957546D01*
X91993796Y-112842331D01*
X92044091Y-112707483D01*
X92050500Y-112647873D01*
X92050499Y-111652128D01*
X92044091Y-111592517D01*
X92026549Y-111545485D01*
X92008318Y-111496604D01*
X92000500Y-111453271D01*
X92000500Y-110588214D01*
X92008318Y-110544880D01*
X92010668Y-110538579D01*
X92031591Y-110482483D01*
X92038000Y-110422873D01*
X92037999Y-109377128D01*
X92031591Y-109317517D01*
X92029859Y-109312874D01*
X92008318Y-109255118D01*
X92000500Y-109211785D01*
X92000500Y-108689766D01*
X92020185Y-108622727D01*
X92021398Y-108620875D01*
X92029626Y-108608561D01*
X92065084Y-108555494D01*
X92121658Y-108418913D01*
X92143766Y-108307770D01*
X92150500Y-108273919D01*
X92150500Y-108137964D01*
X92170185Y-108070925D01*
X92186819Y-108050283D01*
X92394482Y-107842620D01*
X92597218Y-107639884D01*
X92658540Y-107606400D01*
X92728232Y-107611384D01*
X92784165Y-107653256D01*
X92799459Y-107680113D01*
X92819139Y-107727625D01*
X92907379Y-107842621D01*
X93022375Y-107930861D01*
X93156291Y-107986330D01*
X93283280Y-108003048D01*
X93299999Y-108005250D01*
X93300000Y-108005250D01*
X93300001Y-108005250D01*
X93314977Y-108003278D01*
X93443709Y-107986330D01*
X93577625Y-107930861D01*
X93583800Y-107926122D01*
X93648968Y-107900928D01*
X93659287Y-107900498D01*
X93996480Y-107900498D01*
X94020672Y-107902881D01*
X94088623Y-107916398D01*
X94088626Y-107916398D01*
X96195376Y-107916398D01*
X96195377Y-107916397D01*
X96268440Y-107901864D01*
X96351301Y-107846499D01*
X96406666Y-107763638D01*
X96421200Y-107690572D01*
X96421200Y-107586964D01*
X96440885Y-107519925D01*
X96493689Y-107474170D01*
X96562847Y-107464226D01*
X96626403Y-107493251D01*
X96632881Y-107499283D01*
X97200681Y-108067083D01*
X97234166Y-108128406D01*
X97237000Y-108154764D01*
X97237000Y-108846871D01*
X97217315Y-108913910D01*
X97164511Y-108959665D01*
X97156335Y-108963052D01*
X97107667Y-108981204D01*
X97107665Y-108981205D01*
X96992455Y-109067452D01*
X96992452Y-109067455D01*
X96906206Y-109182664D01*
X96906202Y-109182671D01*
X96855908Y-109317517D01*
X96849501Y-109377116D01*
X96849501Y-109377123D01*
X96849500Y-109377135D01*
X96849500Y-110422870D01*
X96849501Y-110422876D01*
X96855908Y-110482483D01*
X96906202Y-110617328D01*
X96906206Y-110617335D01*
X96992452Y-110732544D01*
X96992455Y-110732547D01*
X97107664Y-110818793D01*
X97107671Y-110818797D01*
X97152618Y-110835561D01*
X97242517Y-110869091D01*
X97302127Y-110875500D01*
X97410047Y-110875499D01*
X97477085Y-110895183D01*
X97522840Y-110947987D01*
X97532784Y-111017145D01*
X97503760Y-111080701D01*
X97497731Y-111087176D01*
X97492454Y-111092453D01*
X97406206Y-111207664D01*
X97406202Y-111207671D01*
X97355908Y-111342517D01*
X97352187Y-111377135D01*
X97349501Y-111402123D01*
X97349500Y-111402135D01*
X97349500Y-112197870D01*
X97349501Y-112197876D01*
X97355908Y-112257483D01*
X97406202Y-112392328D01*
X97406203Y-112392329D01*
X97406204Y-112392331D01*
X97429061Y-112422864D01*
X97438045Y-112434865D01*
X97462462Y-112500329D01*
X97447611Y-112568602D01*
X97426468Y-112596848D01*
X97421670Y-112601647D01*
X97421578Y-112601739D01*
X97087898Y-112934789D01*
X97087312Y-112935305D01*
X97049955Y-112972662D01*
X97017027Y-113005528D01*
X97016835Y-113005778D01*
X96993980Y-113045363D01*
X96993925Y-113045459D01*
X96970807Y-113085414D01*
X96970687Y-113085705D01*
X96958692Y-113130469D01*
X96958663Y-113130579D01*
X96946839Y-113174540D01*
X96946800Y-113174838D01*
X96946800Y-113221317D01*
X96946749Y-113274442D01*
X96946800Y-113275217D01*
X96946800Y-115450300D01*
X96927115Y-115517339D01*
X96874311Y-115563094D01*
X96822800Y-115574300D01*
X96533030Y-115574300D01*
X96465991Y-115554615D01*
X96445349Y-115537981D01*
X96428419Y-115521051D01*
X96428415Y-115521048D01*
X96305501Y-115438919D01*
X96305488Y-115438912D01*
X96168917Y-115382343D01*
X96168907Y-115382340D01*
X96023920Y-115353500D01*
X96023918Y-115353500D01*
X96023818Y-115353500D01*
X96023718Y-115353500D01*
X94842063Y-115353500D01*
X94775024Y-115333815D01*
X94754410Y-115317210D01*
X94696551Y-115259389D01*
X94243220Y-114806352D01*
X94078680Y-114641652D01*
X93986776Y-114549658D01*
X93953321Y-114488318D01*
X93950500Y-114462019D01*
X93950500Y-112941438D01*
X93970185Y-112874399D01*
X93975234Y-112867126D01*
X93993796Y-112842331D01*
X94044091Y-112707483D01*
X94050500Y-112647873D01*
X94050499Y-111652128D01*
X94044091Y-111592517D01*
X94026555Y-111545501D01*
X93993797Y-111457671D01*
X93993793Y-111457664D01*
X93907547Y-111342455D01*
X93907544Y-111342452D01*
X93792335Y-111256206D01*
X93792328Y-111256202D01*
X93657482Y-111205908D01*
X93657483Y-111205908D01*
X93597883Y-111199501D01*
X93597881Y-111199500D01*
X93597873Y-111199500D01*
X93597864Y-111199500D01*
X92802129Y-111199500D01*
X92802123Y-111199501D01*
X92742516Y-111205908D01*
X92607671Y-111256202D01*
X92607664Y-111256206D01*
X92492455Y-111342452D01*
X92492452Y-111342455D01*
X92406206Y-111457664D01*
X92406202Y-111457671D01*
X92355908Y-111592517D01*
X92349501Y-111652116D01*
X92349501Y-111652123D01*
X92349500Y-111652135D01*
X92349500Y-112647870D01*
X92349501Y-112647876D01*
X92355908Y-112707483D01*
X92406203Y-112842329D01*
X92424766Y-112867126D01*
X92449184Y-112932590D01*
X92449500Y-112941438D01*
X92449500Y-114422760D01*
X92429815Y-114489799D01*
X92377011Y-114535554D01*
X92368834Y-114538942D01*
X92262283Y-114578682D01*
X92218954Y-114586500D01*
X91750142Y-114586500D01*
X91683103Y-114566815D01*
X91675832Y-114561767D01*
X91667334Y-114555406D01*
X91667328Y-114555402D01*
X91532482Y-114505108D01*
X91532483Y-114505108D01*
X91472883Y-114498701D01*
X91472881Y-114498700D01*
X91472873Y-114498700D01*
X91472864Y-114498700D01*
X90427129Y-114498700D01*
X90427123Y-114498701D01*
X90367516Y-114505108D01*
X90232671Y-114555402D01*
X90232664Y-114555406D01*
X90117455Y-114641652D01*
X90117452Y-114641655D01*
X90031206Y-114756864D01*
X90031202Y-114756871D01*
X89980910Y-114891713D01*
X89980909Y-114891717D01*
X89974500Y-114951327D01*
X89974500Y-114951334D01*
X89974500Y-114951335D01*
X89974500Y-115722070D01*
X89974501Y-115722076D01*
X89980908Y-115781683D01*
X90031202Y-115916528D01*
X90031206Y-115916535D01*
X90117452Y-116031744D01*
X90117455Y-116031747D01*
X90232664Y-116117993D01*
X90232671Y-116117997D01*
X90367517Y-116168291D01*
X90367516Y-116168291D01*
X90374444Y-116169035D01*
X90427127Y-116174700D01*
X91472872Y-116174699D01*
X91532483Y-116168291D01*
X91667331Y-116117996D01*
X91675030Y-116112232D01*
X91740492Y-116087816D01*
X91749339Y-116087500D01*
X92108868Y-116087500D01*
X92175907Y-116107185D01*
X92183179Y-116112233D01*
X92257668Y-116167995D01*
X92257671Y-116167997D01*
X92392517Y-116218291D01*
X92392516Y-116218291D01*
X92399444Y-116219035D01*
X92452127Y-116224700D01*
X93447872Y-116224699D01*
X93471246Y-116222186D01*
X93540004Y-116234592D01*
X93572152Y-116257766D01*
X93641945Y-116327513D01*
X93675451Y-116388825D01*
X93670489Y-116458518D01*
X93628636Y-116514466D01*
X93563180Y-116538904D01*
X93510966Y-116531407D01*
X93507486Y-116530109D01*
X93507483Y-116530108D01*
X93447883Y-116523701D01*
X93447881Y-116523700D01*
X93447873Y-116523700D01*
X93447864Y-116523700D01*
X92452129Y-116523700D01*
X92452123Y-116523701D01*
X92392516Y-116530108D01*
X92257671Y-116580402D01*
X92257669Y-116580403D01*
X92182378Y-116636767D01*
X92116914Y-116661184D01*
X92108067Y-116661500D01*
X91750142Y-116661500D01*
X91683103Y-116641815D01*
X91675832Y-116636767D01*
X91667334Y-116630406D01*
X91667328Y-116630402D01*
X91532482Y-116580108D01*
X91532483Y-116580108D01*
X91472883Y-116573701D01*
X91472881Y-116573700D01*
X91472873Y-116573700D01*
X91472864Y-116573700D01*
X90427129Y-116573700D01*
X90427123Y-116573701D01*
X90367516Y-116580108D01*
X90232671Y-116630402D01*
X90232665Y-116630406D01*
X90224168Y-116636767D01*
X90158704Y-116661184D01*
X90149858Y-116661500D01*
X87782415Y-116661500D01*
X87731980Y-116650780D01*
X87709138Y-116640610D01*
X87614267Y-116598371D01*
X87614265Y-116598370D01*
X87486594Y-116571233D01*
X87439391Y-116561200D01*
X87260609Y-116561200D01*
X87229954Y-116567715D01*
X87085733Y-116598370D01*
X87085728Y-116598372D01*
X86922408Y-116671087D01*
X86777768Y-116776175D01*
X86658140Y-116909036D01*
X86568750Y-117063864D01*
X86568747Y-117063870D01*
X86513504Y-117233892D01*
X86513503Y-117233894D01*
X86494815Y-117411700D01*
X86513503Y-117589505D01*
X86513504Y-117589507D01*
X86568747Y-117759529D01*
X86568750Y-117759535D01*
X86658141Y-117914365D01*
X86699812Y-117960646D01*
X86777764Y-118047221D01*
X86777767Y-118047223D01*
X86777770Y-118047226D01*
X86922407Y-118152312D01*
X87085733Y-118225029D01*
X87260609Y-118262200D01*
X87260610Y-118262200D01*
X87439389Y-118262200D01*
X87439391Y-118262200D01*
X87614267Y-118225029D01*
X87730632Y-118173219D01*
X87781067Y-118162500D01*
X90150661Y-118162500D01*
X90217700Y-118182185D01*
X90224954Y-118187220D01*
X90232669Y-118192996D01*
X90317667Y-118224698D01*
X90367517Y-118243291D01*
X90367516Y-118243291D01*
X90374444Y-118244035D01*
X90427127Y-118249700D01*
X91472872Y-118249699D01*
X91532483Y-118243291D01*
X91667331Y-118192996D01*
X91675030Y-118187232D01*
X91740492Y-118162816D01*
X91749339Y-118162500D01*
X92220561Y-118162500D01*
X92263894Y-118170318D01*
X92392517Y-118218291D01*
X92392516Y-118218291D01*
X92399444Y-118219035D01*
X92452127Y-118224700D01*
X93447872Y-118224699D01*
X93507483Y-118218291D01*
X93636106Y-118170318D01*
X93679439Y-118162500D01*
X95832721Y-118162500D01*
X95843896Y-118163005D01*
X95844553Y-118163064D01*
X95844556Y-118163063D01*
X95844557Y-118163064D01*
X95914952Y-118162503D01*
X95915939Y-118162500D01*
X95986411Y-118162500D01*
X95986418Y-118162500D01*
X95986424Y-118162498D01*
X95987029Y-118162439D01*
X95987362Y-118162421D01*
X95988869Y-118162261D01*
X95989900Y-118162156D01*
X95991426Y-118162005D01*
X95991772Y-118161953D01*
X95992378Y-118161888D01*
X95992387Y-118161888D01*
X96061552Y-118147557D01*
X96062163Y-118147432D01*
X96131413Y-118133658D01*
X96131420Y-118133655D01*
X96132047Y-118133466D01*
X96132376Y-118133382D01*
X96133777Y-118132945D01*
X96134745Y-118132647D01*
X96136209Y-118132203D01*
X96136528Y-118132087D01*
X96137134Y-118131896D01*
X96137148Y-118131894D01*
X96202072Y-118104392D01*
X96202804Y-118104085D01*
X96267995Y-118077084D01*
X96268003Y-118077078D01*
X96268576Y-118076773D01*
X96268869Y-118076633D01*
X96270088Y-118075969D01*
X96271016Y-118075468D01*
X96272414Y-118074720D01*
X96272718Y-118074537D01*
X96273263Y-118074238D01*
X96273275Y-118074234D01*
X96331749Y-118034485D01*
X96332045Y-118034285D01*
X96390916Y-117994951D01*
X96390924Y-117994942D01*
X96391398Y-117994555D01*
X96391664Y-117994356D01*
X96392799Y-117993410D01*
X96393582Y-117992763D01*
X96394800Y-117991763D01*
X96395066Y-117991520D01*
X96395529Y-117991132D01*
X96395539Y-117991126D01*
X96444755Y-117941120D01*
X96505810Y-117907148D01*
X96533132Y-117904100D01*
X96822800Y-117904100D01*
X96889839Y-117923785D01*
X96935594Y-117976589D01*
X96946800Y-118028100D01*
X96946800Y-118825500D01*
X96927115Y-118892539D01*
X96874311Y-118938294D01*
X96822800Y-118949500D01*
X93334701Y-118949500D01*
X93267662Y-118929815D01*
X93231599Y-118894391D01*
X93182949Y-118821581D01*
X93078421Y-118717053D01*
X93078414Y-118717047D01*
X92955495Y-118634916D01*
X92955492Y-118634914D01*
X92818916Y-118578343D01*
X92818906Y-118578340D01*
X92673919Y-118549500D01*
X92673917Y-118549500D01*
X92526082Y-118549500D01*
X92526080Y-118549500D01*
X92381092Y-118578340D01*
X92381082Y-118578343D01*
X92244511Y-118634912D01*
X92244498Y-118634919D01*
X92121584Y-118717048D01*
X92121580Y-118717051D01*
X91425451Y-119413181D01*
X91364128Y-119446666D01*
X91337770Y-119449500D01*
X85308435Y-119449500D01*
X85241396Y-119429815D01*
X85197950Y-119381795D01*
X85176870Y-119340424D01*
X85169824Y-119326595D01*
X85054128Y-119167354D01*
X84914946Y-119028172D01*
X84755705Y-118912476D01*
X84748443Y-118908776D01*
X84580330Y-118823117D01*
X84393126Y-118762290D01*
X84198721Y-118731500D01*
X84198716Y-118731500D01*
X84001883Y-118731500D01*
X83985972Y-118734020D01*
X83916678Y-118725064D01*
X83878894Y-118699227D01*
X83486819Y-118307151D01*
X83453334Y-118245828D01*
X83450500Y-118219470D01*
X83450500Y-116962229D01*
X83470185Y-116895190D01*
X83486819Y-116874548D01*
X83800282Y-116561085D01*
X84118486Y-116242881D01*
X84118487Y-116242878D01*
X84122710Y-116238656D01*
X84123003Y-116238331D01*
X84225962Y-116135375D01*
X84519432Y-115791768D01*
X84785039Y-115426196D01*
X85021145Y-115040910D01*
X85021160Y-115040881D01*
X85226288Y-114638301D01*
X85226292Y-114638292D01*
X85246117Y-114590433D01*
X85399221Y-114220812D01*
X85538860Y-113791055D01*
X85644351Y-113351666D01*
X85715042Y-112905355D01*
X85750499Y-112454874D01*
X85750500Y-112228937D01*
X85750501Y-112150056D01*
X85750500Y-112150051D01*
X85750500Y-105754082D01*
X85750500Y-105754079D01*
X85721659Y-105609092D01*
X85721658Y-105609091D01*
X85721658Y-105609087D01*
X85683536Y-105517052D01*
X85665087Y-105472511D01*
X85665080Y-105472498D01*
X85582951Y-105349584D01*
X85582948Y-105349580D01*
X85478419Y-105245051D01*
X85478415Y-105245048D01*
X85355501Y-105162919D01*
X85355488Y-105162912D01*
X85218917Y-105106343D01*
X85218907Y-105106340D01*
X85073920Y-105077500D01*
X85073918Y-105077500D01*
X84350274Y-105077500D01*
X84283235Y-105057815D01*
X84275981Y-105052779D01*
X84267331Y-105046304D01*
X84267328Y-105046303D01*
X84267327Y-105046302D01*
X84132482Y-104996008D01*
X84132483Y-104996008D01*
X84072883Y-104989601D01*
X84072881Y-104989600D01*
X84072873Y-104989600D01*
X84072864Y-104989600D01*
X83027129Y-104989600D01*
X83027123Y-104989601D01*
X82967516Y-104996008D01*
X82832672Y-105046302D01*
X82832669Y-105046303D01*
X82832669Y-105046304D01*
X82824034Y-105052768D01*
X82758573Y-105077184D01*
X82749726Y-105077500D01*
X82123900Y-105077500D01*
X82056861Y-105057815D01*
X82011106Y-105005011D01*
X81999900Y-104953500D01*
X81999900Y-104812323D01*
X81999899Y-104812321D01*
X81985367Y-104739264D01*
X81985366Y-104739260D01*
X81967941Y-104713181D01*
X81930001Y-104656399D01*
X81874635Y-104619405D01*
X81847139Y-104601033D01*
X81847135Y-104601032D01*
X81774077Y-104586500D01*
X81774074Y-104586500D01*
X81324229Y-104586500D01*
X81257190Y-104566815D01*
X81211435Y-104514011D01*
X81201491Y-104444853D01*
X81230516Y-104381297D01*
X81236548Y-104374819D01*
X81374548Y-104236819D01*
X81435871Y-104203334D01*
X81462229Y-104200500D01*
X85587680Y-104200500D01*
X85654719Y-104220185D01*
X85686948Y-104250191D01*
X85692454Y-104257546D01*
X85694809Y-104259309D01*
X85807664Y-104343793D01*
X85807671Y-104343797D01*
X85942517Y-104394091D01*
X85942516Y-104394091D01*
X85949444Y-104394835D01*
X86002127Y-104400500D01*
X86797872Y-104400499D01*
X86857483Y-104394091D01*
X86992331Y-104343796D01*
X87107546Y-104257546D01*
X87193796Y-104142331D01*
X87244091Y-104007483D01*
X87250500Y-103947873D01*
X87250499Y-102952128D01*
X87244091Y-102892517D01*
X87233682Y-102864610D01*
X87193797Y-102757671D01*
X87193793Y-102757664D01*
X87107547Y-102642455D01*
X87107544Y-102642452D01*
X86992333Y-102556205D01*
X86985700Y-102552583D01*
X86936294Y-102503178D01*
X86921441Y-102434906D01*
X86945857Y-102369441D01*
X86985700Y-102334917D01*
X86992325Y-102331297D01*
X86992331Y-102331296D01*
X87107546Y-102245046D01*
X87193796Y-102129831D01*
X87244091Y-101994983D01*
X87250500Y-101935373D01*
X87250499Y-100939628D01*
X87244091Y-100880017D01*
X87235756Y-100857671D01*
X87193797Y-100745171D01*
X87193793Y-100745164D01*
X87107547Y-100629955D01*
X87107544Y-100629952D01*
X86992335Y-100543706D01*
X86992328Y-100543702D01*
X86857482Y-100493408D01*
X86857483Y-100493408D01*
X86797883Y-100487001D01*
X86797881Y-100487000D01*
X86797873Y-100487000D01*
X86797864Y-100487000D01*
X86002129Y-100487000D01*
X86002123Y-100487001D01*
X85942516Y-100493408D01*
X85807671Y-100543702D01*
X85807664Y-100543706D01*
X85692456Y-100629951D01*
X85692454Y-100629954D01*
X85686571Y-100637812D01*
X85630639Y-100679682D01*
X85587306Y-100687500D01*
X82424500Y-100687500D01*
X82357461Y-100667815D01*
X82311706Y-100615011D01*
X82300500Y-100563500D01*
X82300500Y-99962230D01*
X82320185Y-99895191D01*
X82336819Y-99874549D01*
X82820447Y-99390921D01*
X82820452Y-99390916D01*
X82864495Y-99325000D01*
X82875680Y-99308261D01*
X82875682Y-99308256D01*
X82875688Y-99308248D01*
X82902584Y-99267995D01*
X82959158Y-99131413D01*
X82988000Y-98986418D01*
X82988000Y-98630242D01*
X82995818Y-98586909D01*
X82997169Y-98583287D01*
X83044091Y-98457483D01*
X83050500Y-98397873D01*
X83050499Y-97402128D01*
X83044091Y-97342517D01*
X83019312Y-97276082D01*
X82995818Y-97213090D01*
X82988000Y-97169757D01*
X82988000Y-96699741D01*
X83007685Y-96632702D01*
X83012733Y-96625430D01*
X83018796Y-96617331D01*
X83069091Y-96482483D01*
X83075500Y-96422873D01*
X83075499Y-95377128D01*
X83069091Y-95317517D01*
X83063767Y-95303243D01*
X83018797Y-95182671D01*
X83018793Y-95182664D01*
X82932547Y-95067455D01*
X82932544Y-95067452D01*
X82817335Y-94981206D01*
X82817328Y-94981202D01*
X82682486Y-94930910D01*
X82682485Y-94930909D01*
X82682483Y-94930909D01*
X82622873Y-94924500D01*
X82622863Y-94924500D01*
X81852129Y-94924500D01*
X81852123Y-94924501D01*
X81792516Y-94930908D01*
X81657671Y-94981202D01*
X81657664Y-94981206D01*
X81542455Y-95067452D01*
X81542452Y-95067455D01*
X81456206Y-95182664D01*
X81456202Y-95182671D01*
X81405908Y-95317517D01*
X81399743Y-95374863D01*
X81399501Y-95377123D01*
X81399500Y-95377135D01*
X81399500Y-96422870D01*
X81399501Y-96422876D01*
X81405908Y-96482483D01*
X81456202Y-96617328D01*
X81456203Y-96617330D01*
X81462267Y-96625430D01*
X81486684Y-96690894D01*
X81487000Y-96699741D01*
X81487000Y-97058467D01*
X81467315Y-97125506D01*
X81462267Y-97132778D01*
X81406204Y-97207668D01*
X81406202Y-97207671D01*
X81355908Y-97342517D01*
X81349501Y-97402116D01*
X81349501Y-97402123D01*
X81349500Y-97402135D01*
X81349500Y-98397870D01*
X81349501Y-98397876D01*
X81355908Y-98457483D01*
X81402830Y-98583287D01*
X81407814Y-98652979D01*
X81374329Y-98714301D01*
X81124681Y-98963950D01*
X81063358Y-98997435D01*
X80993667Y-98992451D01*
X80937733Y-98950580D01*
X80913316Y-98885115D01*
X80913000Y-98876269D01*
X80913000Y-98741532D01*
X80932685Y-98674493D01*
X80937733Y-98667221D01*
X80939119Y-98665370D01*
X80993796Y-98592331D01*
X81044091Y-98457483D01*
X81050500Y-98397873D01*
X81050499Y-97402128D01*
X81044091Y-97342517D01*
X81019312Y-97276082D01*
X80993797Y-97207671D01*
X80993795Y-97207668D01*
X80987999Y-97199926D01*
X80956492Y-97157838D01*
X80937733Y-97132778D01*
X80913316Y-97067313D01*
X80913000Y-97058467D01*
X80913000Y-96699741D01*
X80932685Y-96632702D01*
X80937733Y-96625430D01*
X80943796Y-96617331D01*
X80994091Y-96482483D01*
X81000500Y-96422873D01*
X81000499Y-95377128D01*
X80994091Y-95317517D01*
X80988767Y-95303243D01*
X80943797Y-95182671D01*
X80943793Y-95182664D01*
X80857547Y-95067455D01*
X80857544Y-95067452D01*
X80742335Y-94981206D01*
X80742328Y-94981202D01*
X80607486Y-94930910D01*
X80607485Y-94930909D01*
X80607483Y-94930909D01*
X80547873Y-94924500D01*
X80547863Y-94924500D01*
X79777129Y-94924500D01*
X79777123Y-94924501D01*
X79717516Y-94930908D01*
X79582671Y-94981202D01*
X79582664Y-94981206D01*
X79467457Y-95067451D01*
X79467449Y-95067458D01*
X79443232Y-95099810D01*
X79387299Y-95141682D01*
X79343965Y-95149500D01*
X77701741Y-95149500D01*
X77651306Y-95138780D01*
X77622786Y-95126082D01*
X77534267Y-95086671D01*
X77534265Y-95086670D01*
X77406594Y-95059533D01*
X77359391Y-95049500D01*
X77180609Y-95049500D01*
X77149954Y-95056015D01*
X77005733Y-95086670D01*
X77005728Y-95086672D01*
X76842408Y-95159387D01*
X76697768Y-95264475D01*
X76578140Y-95397336D01*
X76488750Y-95552164D01*
X76488747Y-95552170D01*
X76433504Y-95722192D01*
X76433503Y-95722194D01*
X76414815Y-95900000D01*
X76433503Y-96077805D01*
X76433504Y-96077807D01*
X76488747Y-96247829D01*
X76488750Y-96247835D01*
X76578141Y-96402665D01*
X76619812Y-96448946D01*
X76697764Y-96535521D01*
X76697767Y-96535523D01*
X76697770Y-96535526D01*
X76842407Y-96640612D01*
X77005733Y-96713329D01*
X77180609Y-96750500D01*
X77180610Y-96750500D01*
X77359389Y-96750500D01*
X77359391Y-96750500D01*
X77534267Y-96713329D01*
X77651306Y-96661219D01*
X77701741Y-96650500D01*
X79288000Y-96650500D01*
X79355039Y-96670185D01*
X79400794Y-96722989D01*
X79412000Y-96774500D01*
X79412000Y-97169757D01*
X79404182Y-97213090D01*
X79355908Y-97342517D01*
X79349501Y-97402116D01*
X79349501Y-97402123D01*
X79349500Y-97402135D01*
X79349500Y-98397870D01*
X79349501Y-98397876D01*
X79355908Y-98457483D01*
X79390229Y-98549500D01*
X79402705Y-98582951D01*
X79404182Y-98586909D01*
X79412000Y-98630242D01*
X79412000Y-99897382D01*
X79412000Y-102161918D01*
X79412000Y-102161920D01*
X79411999Y-102161920D01*
X79440840Y-102306907D01*
X79440843Y-102306917D01*
X79497412Y-102443488D01*
X79497419Y-102443501D01*
X79579548Y-102566415D01*
X79579551Y-102566419D01*
X79684080Y-102670948D01*
X79684084Y-102670951D01*
X79806998Y-102753080D01*
X79807011Y-102753087D01*
X79943582Y-102809656D01*
X79943587Y-102809658D01*
X79943591Y-102809658D01*
X79943592Y-102809659D01*
X80088579Y-102838500D01*
X80088582Y-102838500D01*
X80236420Y-102838500D01*
X80351939Y-102815521D01*
X80421531Y-102821748D01*
X80476708Y-102864610D01*
X80499953Y-102930500D01*
X80483886Y-102998497D01*
X80463812Y-103024819D01*
X79617052Y-103871578D01*
X79617052Y-103871579D01*
X79617049Y-103871582D01*
X79617048Y-103871584D01*
X79596549Y-103902264D01*
X79534918Y-103994502D01*
X79534914Y-103994509D01*
X79478342Y-104131087D01*
X79478340Y-104131093D01*
X79449500Y-104276080D01*
X79449500Y-104276083D01*
X79449500Y-104423917D01*
X79452557Y-104439283D01*
X79455842Y-104455800D01*
X79449614Y-104525392D01*
X79406750Y-104580569D01*
X79340860Y-104603813D01*
X79310033Y-104601609D01*
X79256861Y-104591032D01*
X79234074Y-104586500D01*
X78625926Y-104586500D01*
X78625923Y-104586500D01*
X78552864Y-104601032D01*
X78552860Y-104601033D01*
X78469999Y-104656399D01*
X78414633Y-104739260D01*
X78414632Y-104739264D01*
X78400100Y-104812321D01*
X78400100Y-105245170D01*
X78380415Y-105312209D01*
X78363781Y-105332851D01*
X78347051Y-105349580D01*
X78347048Y-105349584D01*
X78264919Y-105472498D01*
X78264912Y-105472511D01*
X78208343Y-105609082D01*
X78208340Y-105609092D01*
X78179500Y-105754079D01*
X78179500Y-108608561D01*
X78159815Y-108675600D01*
X78154767Y-108682872D01*
X78136204Y-108707668D01*
X78136202Y-108707671D01*
X78085908Y-108842517D01*
X78082054Y-108878372D01*
X78079501Y-108902123D01*
X78079500Y-108902135D01*
X78079500Y-109897870D01*
X78079501Y-109897876D01*
X78085908Y-109957483D01*
X78136203Y-110092329D01*
X78154766Y-110117126D01*
X78179184Y-110182590D01*
X78179500Y-110191438D01*
X78179500Y-111100259D01*
X78159815Y-111167298D01*
X78154769Y-111174567D01*
X78148703Y-111182670D01*
X78148702Y-111182671D01*
X78098408Y-111317517D01*
X78092001Y-111377116D01*
X78092001Y-111377123D01*
X78092000Y-111377135D01*
X78092000Y-112422870D01*
X78092001Y-112422876D01*
X78098408Y-112482483D01*
X78148702Y-112617328D01*
X78148703Y-112617330D01*
X78154767Y-112625430D01*
X78179184Y-112690894D01*
X78179500Y-112699741D01*
X78179500Y-115465678D01*
X78162887Y-115527678D01*
X78148750Y-115552163D01*
X78093504Y-115722192D01*
X78093503Y-115722194D01*
X78074815Y-115900000D01*
X78093503Y-116077805D01*
X78093504Y-116077807D01*
X78148747Y-116247829D01*
X78148750Y-116247835D01*
X78238141Y-116402665D01*
X78279812Y-116448946D01*
X78357764Y-116535521D01*
X78357767Y-116535523D01*
X78357770Y-116535526D01*
X78502407Y-116640612D01*
X78665733Y-116713329D01*
X78840609Y-116750500D01*
X78840610Y-116750500D01*
X79019389Y-116750500D01*
X79019391Y-116750500D01*
X79194267Y-116713329D01*
X79357593Y-116640612D01*
X79502230Y-116535526D01*
X79507109Y-116530108D01*
X79551019Y-116481340D01*
X79621859Y-116402665D01*
X79711250Y-116247835D01*
X79766497Y-116077803D01*
X79785185Y-115900000D01*
X79766497Y-115722197D01*
X79711250Y-115552165D01*
X79697113Y-115527678D01*
X79680500Y-115465678D01*
X79680500Y-112699741D01*
X79700185Y-112632702D01*
X79705233Y-112625430D01*
X79711296Y-112617331D01*
X79761591Y-112482483D01*
X79768000Y-112422873D01*
X79767999Y-111377128D01*
X79761591Y-111317517D01*
X79738723Y-111256206D01*
X79711297Y-111182671D01*
X79711296Y-111182670D01*
X79711296Y-111182669D01*
X79705231Y-111174567D01*
X79680816Y-111109102D01*
X79680500Y-111100259D01*
X79680500Y-110191438D01*
X79700185Y-110124399D01*
X79705234Y-110117126D01*
X79723796Y-110092331D01*
X79774091Y-109957483D01*
X79780500Y-109897873D01*
X79780499Y-109611227D01*
X79800183Y-109544190D01*
X79852987Y-109498435D01*
X79922146Y-109488491D01*
X79985701Y-109517516D01*
X79992180Y-109523548D01*
X80043181Y-109574549D01*
X80076666Y-109635872D01*
X80079500Y-109662229D01*
X80079500Y-109897869D01*
X80079501Y-109897876D01*
X80085908Y-109957483D01*
X80136202Y-110092328D01*
X80136203Y-110092329D01*
X80136204Y-110092331D01*
X80203772Y-110182590D01*
X80227769Y-110214646D01*
X80225370Y-110216441D01*
X80251666Y-110264597D01*
X80254500Y-110290955D01*
X80254500Y-111100259D01*
X80234815Y-111167298D01*
X80229769Y-111174567D01*
X80223703Y-111182670D01*
X80223702Y-111182671D01*
X80173408Y-111317517D01*
X80167001Y-111377116D01*
X80167001Y-111377123D01*
X80167000Y-111377135D01*
X80167000Y-112422870D01*
X80167001Y-112422876D01*
X80173408Y-112482483D01*
X80223702Y-112617328D01*
X80223706Y-112617335D01*
X80309952Y-112732544D01*
X80309955Y-112732547D01*
X80425164Y-112818793D01*
X80425171Y-112818797D01*
X80470118Y-112835561D01*
X80560017Y-112869091D01*
X80619627Y-112875500D01*
X81390372Y-112875499D01*
X81449983Y-112869091D01*
X81584831Y-112818796D01*
X81700046Y-112732546D01*
X81786296Y-112617331D01*
X81836591Y-112482483D01*
X81843000Y-112422873D01*
X81842999Y-111377128D01*
X81836591Y-111317517D01*
X81813723Y-111256206D01*
X81786297Y-111182671D01*
X81786296Y-111182670D01*
X81786296Y-111182669D01*
X81780231Y-111174567D01*
X81755816Y-111109102D01*
X81755500Y-111100259D01*
X81755500Y-110029700D01*
X81763318Y-109986366D01*
X81774091Y-109957483D01*
X81780500Y-109897873D01*
X81780499Y-108902128D01*
X81774091Y-108842517D01*
X81758233Y-108800000D01*
X81723797Y-108707671D01*
X81723793Y-108707664D01*
X81637547Y-108592455D01*
X81637544Y-108592452D01*
X81522335Y-108506206D01*
X81522328Y-108506202D01*
X81387482Y-108455908D01*
X81387483Y-108455908D01*
X81327883Y-108449501D01*
X81327881Y-108449500D01*
X81327873Y-108449500D01*
X81327865Y-108449500D01*
X81092230Y-108449500D01*
X81025191Y-108429815D01*
X81004549Y-108413181D01*
X80986819Y-108395451D01*
X80953334Y-108334128D01*
X80950500Y-108307770D01*
X80950500Y-107176943D01*
X80970185Y-107109904D01*
X81022989Y-107064149D01*
X81092147Y-107054205D01*
X81098682Y-107055324D01*
X81137842Y-107063113D01*
X81165925Y-107068700D01*
X81165926Y-107068700D01*
X81774076Y-107068700D01*
X81774077Y-107068699D01*
X81847140Y-107054166D01*
X81930001Y-106998801D01*
X81985366Y-106915940D01*
X81999900Y-106842874D01*
X81999900Y-106702500D01*
X82019585Y-106635461D01*
X82072389Y-106589706D01*
X82123900Y-106578500D01*
X82750793Y-106578500D01*
X82817832Y-106598185D01*
X82825103Y-106603233D01*
X82832664Y-106608893D01*
X82832671Y-106608897D01*
X82967517Y-106659191D01*
X82967516Y-106659191D01*
X82974444Y-106659935D01*
X83027127Y-106665600D01*
X84072872Y-106665599D01*
X84112246Y-106661366D01*
X84181005Y-106673772D01*
X84232142Y-106721383D01*
X84249500Y-106784656D01*
X84249500Y-112226219D01*
X84249382Y-112231629D01*
X84233563Y-112593888D01*
X84232620Y-112604664D01*
X84185643Y-112961470D01*
X84183765Y-112972123D01*
X84105866Y-113323490D01*
X84103066Y-113333939D01*
X83994844Y-113677171D01*
X83991144Y-113687337D01*
X83853413Y-114019842D01*
X83848841Y-114029645D01*
X83682665Y-114348864D01*
X83677256Y-114358233D01*
X83483881Y-114661767D01*
X83477676Y-114670628D01*
X83258587Y-114956147D01*
X83251634Y-114964433D01*
X83006318Y-115232147D01*
X83002576Y-115236056D01*
X82949077Y-115289553D01*
X82949073Y-115289559D01*
X82117047Y-116121584D01*
X82117043Y-116121589D01*
X82075460Y-116183826D01*
X82075459Y-116183828D01*
X82034919Y-116244499D01*
X82034912Y-116244511D01*
X81978343Y-116381082D01*
X81978340Y-116381092D01*
X81949500Y-116526079D01*
X81949500Y-116526082D01*
X81949500Y-118655618D01*
X81949500Y-118655620D01*
X81949499Y-118655620D01*
X81978340Y-118800607D01*
X81978343Y-118800617D01*
X82034912Y-118937188D01*
X82034920Y-118937202D01*
X82059096Y-118973383D01*
X82059097Y-118973386D01*
X82117046Y-119060114D01*
X82117052Y-119060121D01*
X82597697Y-119540765D01*
X82631182Y-119602088D01*
X82626198Y-119671779D01*
X82597697Y-119716127D01*
X81937803Y-120376021D01*
X81937756Y-120376066D01*
X81864466Y-120449359D01*
X81860558Y-120453101D01*
X81625347Y-120668635D01*
X81617060Y-120675588D01*
X81366151Y-120868119D01*
X81357290Y-120874324D01*
X81090542Y-121044264D01*
X81081173Y-121049673D01*
X80800643Y-121195708D01*
X80790840Y-121200280D01*
X80498632Y-121321319D01*
X80488466Y-121325019D01*
X80186833Y-121420126D01*
X80176384Y-121422926D01*
X79867600Y-121491383D01*
X79856947Y-121493261D01*
X79543385Y-121534545D01*
X79532609Y-121535488D01*
X79214430Y-121549382D01*
X79209020Y-121549500D01*
X76579813Y-121549500D01*
X76579789Y-121549499D01*
X76522443Y-121549499D01*
X76522371Y-121549478D01*
X76471060Y-121549478D01*
X76435908Y-121549478D01*
X76247822Y-121549479D01*
X75802485Y-121581334D01*
X75360550Y-121644876D01*
X74924282Y-121739784D01*
X74924267Y-121739788D01*
X74495895Y-121865573D01*
X74077558Y-122021607D01*
X73671436Y-122207081D01*
X73279587Y-122421049D01*
X73279574Y-122421057D01*
X72903989Y-122662435D01*
X72546568Y-122929999D01*
X72209156Y-123222371D01*
X72209131Y-123222394D01*
X72124000Y-123307526D01*
X72120892Y-123310635D01*
X72120888Y-123310638D01*
X71881525Y-123550000D01*
X71855503Y-123576022D01*
X71855411Y-123576111D01*
X71782137Y-123649388D01*
X71778228Y-123653130D01*
X71543057Y-123868625D01*
X71534771Y-123875578D01*
X71283857Y-124068113D01*
X71274995Y-124074318D01*
X71008263Y-124244246D01*
X70998895Y-124249655D01*
X70718362Y-124395691D01*
X70708558Y-124400263D01*
X70416361Y-124521295D01*
X70406195Y-124524995D01*
X70104569Y-124620097D01*
X70094120Y-124622897D01*
X69785342Y-124691351D01*
X69774689Y-124693229D01*
X69461134Y-124734508D01*
X69450357Y-124735451D01*
X69131241Y-124749381D01*
X69125833Y-124749499D01*
X69020250Y-124749499D01*
X69020226Y-124749500D01*
X67969337Y-124749500D01*
X67902298Y-124729815D01*
X67881656Y-124713181D01*
X62168474Y-119000000D01*
X68544815Y-119000000D01*
X68563503Y-119177805D01*
X68563504Y-119177807D01*
X68618747Y-119347829D01*
X68618750Y-119347835D01*
X68708141Y-119502665D01*
X68742447Y-119540765D01*
X68827764Y-119635521D01*
X68827767Y-119635523D01*
X68827770Y-119635526D01*
X68972407Y-119740612D01*
X69135733Y-119813329D01*
X69310609Y-119850500D01*
X69310610Y-119850500D01*
X69489389Y-119850500D01*
X69489391Y-119850500D01*
X69664267Y-119813329D01*
X69827593Y-119740612D01*
X69972230Y-119635526D01*
X69980230Y-119626642D01*
X69998148Y-119606741D01*
X70091859Y-119502665D01*
X70181250Y-119347835D01*
X70236497Y-119177803D01*
X70255185Y-119000000D01*
X70236497Y-118822197D01*
X70204936Y-118725064D01*
X70181252Y-118652170D01*
X70181249Y-118652164D01*
X70091859Y-118497335D01*
X70045003Y-118445296D01*
X69972235Y-118364478D01*
X69972232Y-118364476D01*
X69972231Y-118364475D01*
X69972230Y-118364474D01*
X69827593Y-118259388D01*
X69664267Y-118186671D01*
X69664265Y-118186670D01*
X69502620Y-118152312D01*
X69489391Y-118149500D01*
X69310609Y-118149500D01*
X69297380Y-118152312D01*
X69135733Y-118186670D01*
X69135728Y-118186672D01*
X68972408Y-118259387D01*
X68827768Y-118364475D01*
X68708140Y-118497336D01*
X68618750Y-118652164D01*
X68618747Y-118652170D01*
X68563504Y-118822192D01*
X68563503Y-118822194D01*
X68544815Y-119000000D01*
X62168474Y-119000000D01*
X62126313Y-118957839D01*
X62126294Y-118957818D01*
X62116750Y-118948274D01*
X62050616Y-118882142D01*
X62046898Y-118878258D01*
X61995524Y-118822194D01*
X61831359Y-118643041D01*
X61824411Y-118634760D01*
X61814958Y-118622441D01*
X61631879Y-118383850D01*
X61625675Y-118374990D01*
X61582456Y-118307151D01*
X61455728Y-118108231D01*
X61450332Y-118098884D01*
X61304291Y-117818343D01*
X61299719Y-117808540D01*
X61178680Y-117516332D01*
X61174980Y-117506166D01*
X61171365Y-117494700D01*
X61079871Y-117204527D01*
X61077073Y-117194084D01*
X61067085Y-117149031D01*
X61008613Y-116885287D01*
X61006740Y-116874660D01*
X60965452Y-116561064D01*
X60964512Y-116550327D01*
X60951158Y-116244499D01*
X60950618Y-116232128D01*
X60950500Y-116226719D01*
X60950500Y-104500000D01*
X65444815Y-104500000D01*
X65463503Y-104677805D01*
X65463504Y-104677807D01*
X65518747Y-104847829D01*
X65518750Y-104847835D01*
X65608141Y-105002665D01*
X65647432Y-105046302D01*
X65727764Y-105135521D01*
X65727767Y-105135523D01*
X65727770Y-105135526D01*
X65872407Y-105240612D01*
X66035733Y-105313329D01*
X66210609Y-105350500D01*
X66210610Y-105350500D01*
X66389389Y-105350500D01*
X66389391Y-105350500D01*
X66564267Y-105313329D01*
X66727593Y-105240612D01*
X66872230Y-105135526D01*
X66880598Y-105126233D01*
X66924477Y-105077500D01*
X66991859Y-105002665D01*
X67081250Y-104847835D01*
X67136497Y-104677803D01*
X67155185Y-104500000D01*
X67136497Y-104322197D01*
X67081250Y-104152165D01*
X66991859Y-103997335D01*
X66919569Y-103917049D01*
X66872235Y-103864478D01*
X66872232Y-103864476D01*
X66872231Y-103864475D01*
X66872230Y-103864474D01*
X66727593Y-103759388D01*
X66564267Y-103686671D01*
X66564265Y-103686670D01*
X66436594Y-103659533D01*
X66389391Y-103649500D01*
X66210609Y-103649500D01*
X66179954Y-103656015D01*
X66035733Y-103686670D01*
X66035728Y-103686672D01*
X65872408Y-103759387D01*
X65727768Y-103864475D01*
X65608140Y-103997336D01*
X65518750Y-104152164D01*
X65518747Y-104152170D01*
X65463504Y-104322192D01*
X65463503Y-104322194D01*
X65444815Y-104500000D01*
X60950500Y-104500000D01*
X60950500Y-103973783D01*
X60950618Y-103968374D01*
X60954798Y-103872645D01*
X60964534Y-103649672D01*
X60965474Y-103638938D01*
X61006761Y-103325339D01*
X61008638Y-103314702D01*
X61009808Y-103309427D01*
X61033888Y-103200809D01*
X61077096Y-103005920D01*
X61079891Y-102995483D01*
X61175007Y-102693822D01*
X61178696Y-102683686D01*
X61299738Y-102391467D01*
X61304308Y-102381670D01*
X61304349Y-102381591D01*
X61450356Y-102101116D01*
X61455741Y-102091789D01*
X61625700Y-101825011D01*
X61631878Y-101816187D01*
X61824453Y-101565221D01*
X61831366Y-101556983D01*
X62047258Y-101321380D01*
X62050977Y-101317497D01*
X62051836Y-101316638D01*
X62121970Y-101246506D01*
X62121971Y-101246503D01*
X62127802Y-101240673D01*
X62127815Y-101240657D01*
X69117160Y-94251314D01*
X69178483Y-94217829D01*
X69204841Y-94214995D01*
X76533929Y-94214995D01*
X76728333Y-94184204D01*
X76915532Y-94123379D01*
X77090912Y-94034019D01*
X77250153Y-93918323D01*
X77389335Y-93779141D01*
X77505031Y-93619900D01*
X77594391Y-93444520D01*
X77655216Y-93257321D01*
X77660876Y-93221584D01*
X77686007Y-93062917D01*
X77686007Y-92866079D01*
X77685181Y-92860867D01*
X77683487Y-92850168D01*
X77692441Y-92780875D01*
X77718276Y-92743092D01*
X79229551Y-91231819D01*
X79290874Y-91198334D01*
X79317232Y-91195500D01*
X80337720Y-91195500D01*
X80435262Y-91176096D01*
X80482713Y-91166658D01*
X80511007Y-91154937D01*
X80555991Y-91145989D01*
X80555986Y-91145882D01*
X80555983Y-91145854D01*
X80555984Y-91145853D01*
X80555975Y-91145676D01*
X80558157Y-91145559D01*
X80558460Y-91145499D01*
X80559281Y-91145499D01*
X80559284Y-91145499D01*
X80615914Y-91139412D01*
X80744026Y-91091628D01*
X80853487Y-91009687D01*
X80935428Y-90900226D01*
X80972377Y-90801163D01*
X81014247Y-90745233D01*
X81079711Y-90720816D01*
X81088557Y-90720500D01*
X81313165Y-90720500D01*
X81380204Y-90740185D01*
X81382035Y-90741384D01*
X81428027Y-90772114D01*
X81447860Y-90785366D01*
X81459144Y-90790040D01*
X81457625Y-90793706D01*
X81499805Y-90815775D01*
X81534374Y-90876494D01*
X81530628Y-90946263D01*
X81489757Y-91002932D01*
X81458082Y-91017396D01*
X81459144Y-91019960D01*
X81447860Y-91024633D01*
X81364999Y-91079999D01*
X81309633Y-91162860D01*
X81309632Y-91162864D01*
X81295100Y-91235921D01*
X81295100Y-91844078D01*
X81309632Y-91917135D01*
X81309633Y-91917139D01*
X81309634Y-91917140D01*
X81364999Y-92000001D01*
X81447860Y-92055366D01*
X81447864Y-92055367D01*
X81520921Y-92069899D01*
X81520924Y-92069900D01*
X81520926Y-92069900D01*
X83551476Y-92069900D01*
X83551477Y-92069899D01*
X83624540Y-92055366D01*
X83707401Y-92000001D01*
X83762766Y-91917140D01*
X83777300Y-91844074D01*
X83777300Y-91235926D01*
X83777300Y-91235923D01*
X83777299Y-91235921D01*
X83762767Y-91162864D01*
X83762766Y-91162860D01*
X83747099Y-91139412D01*
X83707401Y-91079999D01*
X83624540Y-91024634D01*
X83624539Y-91024633D01*
X83613256Y-91019960D01*
X83614775Y-91016292D01*
X83572603Y-90994233D01*
X83538028Y-90933518D01*
X83541767Y-90863748D01*
X83582633Y-90807076D01*
X83614318Y-90792605D01*
X83613256Y-90790040D01*
X83624538Y-90785366D01*
X83624540Y-90785366D01*
X83707401Y-90730001D01*
X83762766Y-90647140D01*
X83777300Y-90574074D01*
X83777300Y-89965926D01*
X83777300Y-89965923D01*
X83777299Y-89965921D01*
X83763927Y-89898691D01*
X83770154Y-89829099D01*
X83813017Y-89773922D01*
X83878907Y-89750678D01*
X83885544Y-89750500D01*
X84431570Y-89750500D01*
X84498609Y-89770185D01*
G37*
%TD.AperFunction*%
%TA.AperFunction,Conductor*%
G36*
X92931628Y-83750618D02*
G01*
X92953498Y-83751572D01*
X93293906Y-83766437D01*
X93304644Y-83767377D01*
X93661483Y-83814358D01*
X93672110Y-83816231D01*
X94023496Y-83894134D01*
X94033934Y-83896931D01*
X94262205Y-83968906D01*
X94377171Y-84005155D01*
X94387337Y-84008855D01*
X94719842Y-84146586D01*
X94729646Y-84151158D01*
X95048875Y-84317340D01*
X95058222Y-84322737D01*
X95259765Y-84451135D01*
X95361767Y-84516118D01*
X95370628Y-84522323D01*
X95656147Y-84741412D01*
X95664421Y-84748354D01*
X95932146Y-84993680D01*
X95936053Y-84997421D01*
X96213181Y-85274548D01*
X96246666Y-85335871D01*
X96249500Y-85362229D01*
X96249500Y-95126082D01*
X96249500Y-96776082D01*
X96249500Y-98073918D01*
X96249500Y-98073920D01*
X96249499Y-98073920D01*
X96278340Y-98218907D01*
X96278343Y-98218917D01*
X96337247Y-98361124D01*
X96335921Y-98361673D01*
X96348693Y-98423042D01*
X96323687Y-98488284D01*
X96267379Y-98529650D01*
X96200904Y-98534700D01*
X96195374Y-98533600D01*
X94088626Y-98533600D01*
X94088623Y-98533600D01*
X94015564Y-98548132D01*
X94015561Y-98548133D01*
X93993389Y-98562948D01*
X93926711Y-98583824D01*
X93859331Y-98565338D01*
X93812642Y-98513358D01*
X93800500Y-98459844D01*
X93800500Y-92340666D01*
X93820185Y-92273627D01*
X93824732Y-92267029D01*
X93827793Y-92262882D01*
X93842744Y-92220154D01*
X93872646Y-92134701D01*
X93872646Y-92134699D01*
X93875500Y-92104269D01*
X93875500Y-92061810D01*
X93877883Y-92037618D01*
X93900500Y-91923920D01*
X93900500Y-91776080D01*
X93877883Y-91662381D01*
X93875500Y-91638189D01*
X93875500Y-91595730D01*
X93872646Y-91565300D01*
X93872646Y-91565298D01*
X93827793Y-91437119D01*
X93827792Y-91437117D01*
X93784051Y-91377850D01*
X93747150Y-91327850D01*
X93637882Y-91247207D01*
X93637881Y-91247206D01*
X93637876Y-91247204D01*
X93570512Y-91223632D01*
X93542578Y-91209694D01*
X93505494Y-91184916D01*
X93505489Y-91184913D01*
X93368916Y-91128343D01*
X93368906Y-91128340D01*
X93223919Y-91099500D01*
X93223917Y-91099500D01*
X93076082Y-91099500D01*
X93076080Y-91099500D01*
X92931092Y-91128340D01*
X92931086Y-91128342D01*
X92794505Y-91184915D01*
X92794500Y-91184918D01*
X92757413Y-91209698D01*
X92729482Y-91223634D01*
X92662119Y-91247206D01*
X92662118Y-91247206D01*
X92552850Y-91327850D01*
X92472206Y-91437118D01*
X92457754Y-91478421D01*
X92443815Y-91506356D01*
X92386397Y-91592287D01*
X92332784Y-91637092D01*
X92263459Y-91645799D01*
X92200432Y-91615644D01*
X92180192Y-91592285D01*
X92156183Y-91556352D01*
X92142244Y-91528417D01*
X92127793Y-91487118D01*
X92090892Y-91437119D01*
X92047150Y-91377850D01*
X91937882Y-91297207D01*
X91937880Y-91297206D01*
X91870516Y-91273634D01*
X91842581Y-91259696D01*
X91842580Y-91259695D01*
X91805495Y-91234916D01*
X91805492Y-91234914D01*
X91805491Y-91234914D01*
X91695998Y-91189561D01*
X91641594Y-91145721D01*
X91619529Y-91079427D01*
X91636808Y-91011727D01*
X91687945Y-90964116D01*
X91695998Y-90960439D01*
X91805488Y-90915087D01*
X91805488Y-90915086D01*
X91805495Y-90915084D01*
X91842582Y-90890302D01*
X91870511Y-90876366D01*
X91937882Y-90852793D01*
X92047150Y-90772150D01*
X92127793Y-90662882D01*
X92158867Y-90574078D01*
X92172646Y-90534701D01*
X92172646Y-90534699D01*
X92175500Y-90504269D01*
X92175500Y-90461810D01*
X92177883Y-90437618D01*
X92200500Y-90323920D01*
X92200500Y-90176079D01*
X92177883Y-90062380D01*
X92175500Y-90038188D01*
X92175500Y-89995730D01*
X92172646Y-89965300D01*
X92172646Y-89965298D01*
X92127793Y-89837119D01*
X92127792Y-89837117D01*
X92047150Y-89727850D01*
X91937882Y-89647207D01*
X91937880Y-89647206D01*
X91870516Y-89623634D01*
X91842584Y-89609697D01*
X91805495Y-89584916D01*
X91805493Y-89584915D01*
X91805491Y-89584914D01*
X91668913Y-89528342D01*
X91668907Y-89528340D01*
X91523920Y-89499500D01*
X91523918Y-89499500D01*
X90680629Y-89499500D01*
X90613590Y-89479815D01*
X90567835Y-89427011D01*
X90557891Y-89357853D01*
X90586916Y-89294297D01*
X90592948Y-89287819D01*
X90963113Y-88917653D01*
X90963116Y-88917652D01*
X91118950Y-88761816D01*
X91180272Y-88728333D01*
X91206630Y-88725499D01*
X91270481Y-88725499D01*
X91270484Y-88725499D01*
X91327114Y-88719412D01*
X91455226Y-88671628D01*
X91564687Y-88589687D01*
X91646628Y-88480226D01*
X91694412Y-88352114D01*
X91699427Y-88305468D01*
X91700499Y-88295500D01*
X91700499Y-88295494D01*
X91700500Y-88295485D01*
X91700499Y-88231630D01*
X91720183Y-88164592D01*
X91729586Y-88152936D01*
X91729086Y-88152526D01*
X91732945Y-88147821D01*
X91732951Y-88147816D01*
X91815084Y-88024895D01*
X91871658Y-87888313D01*
X91881440Y-87839139D01*
X91900500Y-87743320D01*
X91900500Y-85976079D01*
X91871659Y-85831092D01*
X91871658Y-85831091D01*
X91871658Y-85831087D01*
X91847706Y-85773261D01*
X91825947Y-85720730D01*
X92149500Y-85720730D01*
X92149500Y-86379269D01*
X92152353Y-86409699D01*
X92152353Y-86409701D01*
X92193442Y-86527123D01*
X92197207Y-86537882D01*
X92277850Y-86647150D01*
X92387118Y-86727793D01*
X92409395Y-86735588D01*
X92515299Y-86772646D01*
X92545730Y-86775500D01*
X92545734Y-86775500D01*
X93054270Y-86775500D01*
X93084699Y-86772646D01*
X93084701Y-86772646D01*
X93148790Y-86750219D01*
X93212882Y-86727793D01*
X93322150Y-86647150D01*
X93402793Y-86537882D01*
X93430721Y-86458069D01*
X93447646Y-86409701D01*
X93447646Y-86409699D01*
X93450500Y-86379269D01*
X93450500Y-85720730D01*
X93447646Y-85690300D01*
X93447646Y-85690298D01*
X93402793Y-85562119D01*
X93402792Y-85562117D01*
X93322150Y-85452850D01*
X93212882Y-85372207D01*
X93212880Y-85372206D01*
X93084700Y-85327353D01*
X93054270Y-85324500D01*
X93054266Y-85324500D01*
X92545734Y-85324500D01*
X92545730Y-85324500D01*
X92515300Y-85327353D01*
X92515298Y-85327353D01*
X92387119Y-85372206D01*
X92387117Y-85372207D01*
X92277850Y-85452850D01*
X92197207Y-85562117D01*
X92197206Y-85562119D01*
X92152353Y-85690298D01*
X92152353Y-85690300D01*
X92149500Y-85720730D01*
X91825947Y-85720730D01*
X91815086Y-85694508D01*
X91790304Y-85657419D01*
X91776366Y-85629484D01*
X91752793Y-85562119D01*
X91752793Y-85562118D01*
X91672150Y-85452850D01*
X91562882Y-85372207D01*
X91562880Y-85372206D01*
X91434700Y-85327353D01*
X91404270Y-85324500D01*
X91404266Y-85324500D01*
X91361810Y-85324500D01*
X91337618Y-85322117D01*
X91223920Y-85299500D01*
X91223918Y-85299500D01*
X91076082Y-85299500D01*
X91076080Y-85299500D01*
X90962382Y-85322117D01*
X90938190Y-85324500D01*
X90895730Y-85324500D01*
X90865300Y-85327353D01*
X90865298Y-85327353D01*
X90737119Y-85372206D01*
X90737117Y-85372207D01*
X90627850Y-85452850D01*
X90547206Y-85562118D01*
X90547206Y-85562119D01*
X90523634Y-85629482D01*
X90509698Y-85657413D01*
X90484918Y-85694500D01*
X90484915Y-85694505D01*
X90428342Y-85831086D01*
X90428340Y-85831092D01*
X90399500Y-85976079D01*
X90399500Y-87307170D01*
X90379815Y-87374209D01*
X90363181Y-87394851D01*
X89544851Y-88213181D01*
X89483528Y-88246666D01*
X89457170Y-88249500D01*
X87389880Y-88249500D01*
X87244892Y-88278340D01*
X87244882Y-88278343D01*
X87108311Y-88334912D01*
X87108298Y-88334919D01*
X86985384Y-88417048D01*
X86985380Y-88417051D01*
X86968651Y-88433781D01*
X86907328Y-88467266D01*
X86880970Y-88470100D01*
X86448523Y-88470100D01*
X86375464Y-88484632D01*
X86375460Y-88484633D01*
X86292599Y-88539999D01*
X86237233Y-88622860D01*
X86237232Y-88622864D01*
X86222700Y-88695921D01*
X86222700Y-89068170D01*
X86203015Y-89135209D01*
X86150211Y-89180964D01*
X86081053Y-89190908D01*
X86017497Y-89161883D01*
X86011019Y-89155851D01*
X85272217Y-88417049D01*
X85189317Y-88361658D01*
X85189316Y-88361657D01*
X85149300Y-88334919D01*
X85149288Y-88334912D01*
X85012717Y-88278343D01*
X85012707Y-88278340D01*
X84867720Y-88249500D01*
X84867718Y-88249500D01*
X83885544Y-88249500D01*
X83818505Y-88229815D01*
X83772750Y-88177011D01*
X83762806Y-88107853D01*
X83763927Y-88101309D01*
X83777299Y-88034078D01*
X83777300Y-88034076D01*
X83777300Y-87425923D01*
X83777299Y-87425921D01*
X83762767Y-87352864D01*
X83762766Y-87352860D01*
X83732237Y-87307170D01*
X83707401Y-87269999D01*
X83642594Y-87226697D01*
X83624539Y-87214633D01*
X83624535Y-87214632D01*
X83551477Y-87200100D01*
X83551474Y-87200100D01*
X81520926Y-87200100D01*
X81520923Y-87200100D01*
X81447864Y-87214632D01*
X81436579Y-87219307D01*
X81434946Y-87215367D01*
X81390488Y-87229278D01*
X81323111Y-87210779D01*
X81276432Y-87158790D01*
X81264300Y-87105297D01*
X81264300Y-87082229D01*
X81283985Y-87015190D01*
X81300619Y-86994548D01*
X81688348Y-86606819D01*
X81749671Y-86573334D01*
X81776029Y-86570500D01*
X85537720Y-86570500D01*
X85635262Y-86551096D01*
X85682713Y-86541658D01*
X85711007Y-86529937D01*
X85755991Y-86520989D01*
X85755986Y-86520882D01*
X85755983Y-86520854D01*
X85755984Y-86520853D01*
X85755975Y-86520676D01*
X85758157Y-86520559D01*
X85758460Y-86520499D01*
X85759281Y-86520499D01*
X85759284Y-86520499D01*
X85815914Y-86514412D01*
X85944026Y-86466628D01*
X86053487Y-86384687D01*
X86135428Y-86275226D01*
X86183212Y-86147114D01*
X86186011Y-86121076D01*
X86189299Y-86090499D01*
X86189299Y-86090494D01*
X86189300Y-86090485D01*
X86189299Y-86031811D01*
X86191682Y-86007618D01*
X86192798Y-86002011D01*
X86214154Y-85894652D01*
X86214300Y-85893919D01*
X86214300Y-85746079D01*
X86191682Y-85632376D01*
X86189299Y-85608184D01*
X86189299Y-85549518D01*
X86189298Y-85549509D01*
X86183212Y-85492885D01*
X86138200Y-85372207D01*
X86135428Y-85364774D01*
X86053487Y-85255313D01*
X85987711Y-85206074D01*
X85944028Y-85173373D01*
X85944026Y-85173372D01*
X85815914Y-85125588D01*
X85815912Y-85125587D01*
X85815910Y-85125587D01*
X85759301Y-85119500D01*
X85759285Y-85119500D01*
X85758458Y-85119500D01*
X85758153Y-85119439D01*
X85755978Y-85119323D01*
X85755987Y-85119144D01*
X85755982Y-85119144D01*
X85755993Y-85119040D01*
X85755994Y-85119010D01*
X85711006Y-85110061D01*
X85682717Y-85098343D01*
X85682707Y-85098340D01*
X85537720Y-85069500D01*
X85537718Y-85069500D01*
X83737718Y-85069500D01*
X82047718Y-85069500D01*
X81487717Y-85069500D01*
X81339882Y-85069500D01*
X81339880Y-85069500D01*
X81194892Y-85098340D01*
X81194882Y-85098343D01*
X81058311Y-85154912D01*
X81058298Y-85154919D01*
X80935384Y-85237048D01*
X80935380Y-85237051D01*
X80109047Y-86063383D01*
X80047724Y-86096868D01*
X79978032Y-86091884D01*
X79922099Y-86050012D01*
X79897682Y-85984548D01*
X79898426Y-85959522D01*
X79914358Y-85838512D01*
X79916230Y-85827893D01*
X79994136Y-85476497D01*
X79996929Y-85466071D01*
X80105158Y-85122818D01*
X80108851Y-85112672D01*
X80246589Y-84780149D01*
X80251158Y-84770354D01*
X80262605Y-84748365D01*
X80417345Y-84451114D01*
X80422730Y-84441786D01*
X80616125Y-84138221D01*
X80622314Y-84129382D01*
X80841421Y-83843840D01*
X80848346Y-83835586D01*
X80889455Y-83790724D01*
X80949260Y-83754598D01*
X80980876Y-83750500D01*
X92850046Y-83750500D01*
X92926219Y-83750500D01*
X92931628Y-83750618D01*
G37*
%TD.AperFunction*%
%TA.AperFunction,Conductor*%
G36*
X123442539Y-54070185D02*
G01*
X123488294Y-54122989D01*
X123499500Y-54174500D01*
X123499500Y-127925500D01*
X123479815Y-127992539D01*
X123427011Y-128038294D01*
X123375500Y-128049500D01*
X54624500Y-128049500D01*
X54557461Y-128029815D01*
X54511706Y-127977011D01*
X54500500Y-127925500D01*
X54500500Y-123550000D01*
X56944709Y-123550000D01*
X56963851Y-123829862D01*
X56963852Y-123829864D01*
X57020921Y-124104499D01*
X57020926Y-124104516D01*
X57114863Y-124368828D01*
X57114864Y-124368830D01*
X57243919Y-124617896D01*
X57405688Y-124847069D01*
X57405692Y-124847073D01*
X57405692Y-124847074D01*
X57551002Y-125002663D01*
X57597155Y-125052081D01*
X57814754Y-125229111D01*
X57814756Y-125229112D01*
X57814757Y-125229113D01*
X58054433Y-125374863D01*
X58263257Y-125465567D01*
X58311725Y-125486620D01*
X58581839Y-125562303D01*
X58826159Y-125595884D01*
X58859741Y-125600500D01*
X58859742Y-125600500D01*
X59140259Y-125600500D01*
X59170219Y-125596381D01*
X59418161Y-125562303D01*
X59688275Y-125486620D01*
X59945568Y-125374862D01*
X60185246Y-125229111D01*
X60402845Y-125052081D01*
X60594312Y-124847069D01*
X60756081Y-124617896D01*
X60885136Y-124368830D01*
X60979075Y-124104511D01*
X60979076Y-124104504D01*
X60979078Y-124104499D01*
X61026648Y-123875578D01*
X61036148Y-123829862D01*
X61055291Y-123550000D01*
X61036148Y-123270138D01*
X61010845Y-123148374D01*
X60979078Y-122995500D01*
X60979073Y-122995483D01*
X60917485Y-122822192D01*
X60885136Y-122731170D01*
X60756081Y-122482104D01*
X60594312Y-122252931D01*
X60594307Y-122252925D01*
X60402845Y-122047919D01*
X60185242Y-121870886D01*
X59945566Y-121725136D01*
X59688276Y-121613380D01*
X59418166Y-121537698D01*
X59418162Y-121537697D01*
X59418161Y-121537697D01*
X59279209Y-121518598D01*
X59140259Y-121499500D01*
X59140258Y-121499500D01*
X58859742Y-121499500D01*
X58859741Y-121499500D01*
X58581839Y-121537697D01*
X58581833Y-121537698D01*
X58311723Y-121613380D01*
X58054433Y-121725136D01*
X57814757Y-121870886D01*
X57597154Y-122047919D01*
X57405692Y-122252925D01*
X57405692Y-122252926D01*
X57405689Y-122252928D01*
X57405688Y-122252931D01*
X57373683Y-122298272D01*
X57243919Y-122482103D01*
X57114863Y-122731171D01*
X57020926Y-122995483D01*
X57020921Y-122995500D01*
X56963852Y-123270135D01*
X56963851Y-123270137D01*
X56944709Y-123550000D01*
X54500500Y-123550000D01*
X54500500Y-116177627D01*
X58449478Y-116177627D01*
X58449479Y-116452177D01*
X58481334Y-116897514D01*
X58544876Y-117339449D01*
X58639784Y-117775717D01*
X58639788Y-117775732D01*
X58755613Y-118170185D01*
X58765573Y-118204104D01*
X58874944Y-118497336D01*
X58921607Y-118622441D01*
X59045805Y-118894391D01*
X59097641Y-119007894D01*
X59107081Y-119028563D01*
X59321049Y-119420412D01*
X59321057Y-119420425D01*
X59459296Y-119635526D01*
X59562436Y-119796012D01*
X59830000Y-120153433D01*
X60122380Y-120490854D01*
X60122388Y-120490862D01*
X60122400Y-120490875D01*
X60205249Y-120573722D01*
X60205272Y-120573747D01*
X66585355Y-126953830D01*
X66585360Y-126953834D01*
X66724250Y-127054742D01*
X66744595Y-127069524D01*
X66919974Y-127158884D01*
X67096953Y-127216388D01*
X67096955Y-127216389D01*
X67103859Y-127218632D01*
X67107174Y-127219709D01*
X67184660Y-127231981D01*
X67301578Y-127250500D01*
X67301583Y-127250500D01*
X69232148Y-127250500D01*
X69232617Y-127250481D01*
X69352202Y-127250482D01*
X69797536Y-127218633D01*
X70239463Y-127155095D01*
X70239464Y-127155094D01*
X70239469Y-127155094D01*
X70675724Y-127060194D01*
X70675727Y-127060193D01*
X70675732Y-127060192D01*
X70923107Y-126987556D01*
X71104102Y-126934412D01*
X71104105Y-126934410D01*
X71104118Y-126934407D01*
X71522440Y-126778382D01*
X71928564Y-126592911D01*
X72320423Y-126378939D01*
X72497123Y-126265380D01*
X72696005Y-126137567D01*
X72696015Y-126137560D01*
X72696018Y-126137558D01*
X73053436Y-125869997D01*
X73390856Y-125577619D01*
X73548707Y-125419767D01*
X73621977Y-125346497D01*
X73740660Y-125227812D01*
X73740668Y-125227806D01*
X73746500Y-125221972D01*
X73746506Y-125221970D01*
X73817879Y-125150595D01*
X73821708Y-125146929D01*
X74056969Y-124931349D01*
X74065221Y-124924425D01*
X74316159Y-124731871D01*
X74324998Y-124725682D01*
X74591778Y-124555722D01*
X74601105Y-124550337D01*
X74697801Y-124500000D01*
X89344815Y-124500000D01*
X89363503Y-124677805D01*
X89363504Y-124677807D01*
X89418747Y-124847829D01*
X89418750Y-124847835D01*
X89508141Y-125002665D01*
X89549812Y-125048946D01*
X89627764Y-125135521D01*
X89627767Y-125135523D01*
X89627770Y-125135526D01*
X89772407Y-125240612D01*
X89935733Y-125313329D01*
X90110609Y-125350500D01*
X90110610Y-125350500D01*
X90289389Y-125350500D01*
X90289391Y-125350500D01*
X90464267Y-125313329D01*
X90627593Y-125240612D01*
X90772230Y-125135526D01*
X90891859Y-125002665D01*
X90981250Y-124847835D01*
X91036497Y-124677803D01*
X91055185Y-124500000D01*
X91036497Y-124322197D01*
X90981250Y-124152165D01*
X90891859Y-123997335D01*
X90845003Y-123945296D01*
X90772235Y-123864478D01*
X90772232Y-123864476D01*
X90772231Y-123864475D01*
X90772230Y-123864474D01*
X90627593Y-123759388D01*
X90464267Y-123686671D01*
X90464265Y-123686670D01*
X90336594Y-123659533D01*
X90289391Y-123649500D01*
X90110609Y-123649500D01*
X90079954Y-123656015D01*
X89935733Y-123686670D01*
X89935728Y-123686672D01*
X89772408Y-123759387D01*
X89627768Y-123864475D01*
X89508140Y-123997336D01*
X89418750Y-124152164D01*
X89418747Y-124152170D01*
X89363504Y-124322192D01*
X89363503Y-124322194D01*
X89344815Y-124500000D01*
X74697801Y-124500000D01*
X74881663Y-124404287D01*
X74891451Y-124399722D01*
X75183677Y-124278676D01*
X75193823Y-124274983D01*
X75495477Y-124179869D01*
X75505903Y-124177076D01*
X75814716Y-124108612D01*
X75825335Y-124106740D01*
X76138937Y-124065451D01*
X76149670Y-124064512D01*
X76449223Y-124051432D01*
X76467871Y-124050618D01*
X76473280Y-124050500D01*
X76574695Y-124050500D01*
X79107615Y-124050500D01*
X79107621Y-124050501D01*
X79159855Y-124050500D01*
X79159928Y-124050521D01*
X79211240Y-124050520D01*
X79211240Y-124050522D01*
X79434477Y-124050520D01*
X79879814Y-124018666D01*
X80321744Y-123955124D01*
X80758015Y-123860216D01*
X81186404Y-123734427D01*
X81604728Y-123578398D01*
X82010855Y-123392923D01*
X82402715Y-123178949D01*
X82681161Y-123000000D01*
X108604815Y-123000000D01*
X108623503Y-123177805D01*
X108623504Y-123177807D01*
X108678747Y-123347829D01*
X108678750Y-123347835D01*
X108768141Y-123502665D01*
X108809812Y-123548946D01*
X108887764Y-123635521D01*
X108887767Y-123635523D01*
X108887770Y-123635526D01*
X109032407Y-123740612D01*
X109195733Y-123813329D01*
X109370609Y-123850500D01*
X109370610Y-123850500D01*
X109549389Y-123850500D01*
X109549391Y-123850500D01*
X109724267Y-123813329D01*
X109887593Y-123740612D01*
X110032230Y-123635526D01*
X110109238Y-123550000D01*
X116944709Y-123550000D01*
X116963851Y-123829862D01*
X116963852Y-123829864D01*
X117020921Y-124104499D01*
X117020926Y-124104516D01*
X117114863Y-124368828D01*
X117114864Y-124368830D01*
X117243919Y-124617896D01*
X117405688Y-124847069D01*
X117405692Y-124847073D01*
X117405692Y-124847074D01*
X117551002Y-125002663D01*
X117597155Y-125052081D01*
X117814754Y-125229111D01*
X117814756Y-125229112D01*
X117814757Y-125229113D01*
X118054433Y-125374863D01*
X118263257Y-125465567D01*
X118311725Y-125486620D01*
X118581839Y-125562303D01*
X118826159Y-125595884D01*
X118859741Y-125600500D01*
X118859742Y-125600500D01*
X119140259Y-125600500D01*
X119170219Y-125596381D01*
X119418161Y-125562303D01*
X119688275Y-125486620D01*
X119945568Y-125374862D01*
X120185246Y-125229111D01*
X120402845Y-125052081D01*
X120594312Y-124847069D01*
X120756081Y-124617896D01*
X120885136Y-124368830D01*
X120979075Y-124104511D01*
X120979076Y-124104504D01*
X120979078Y-124104499D01*
X121026648Y-123875578D01*
X121036148Y-123829862D01*
X121055291Y-123550000D01*
X121036148Y-123270138D01*
X121010845Y-123148374D01*
X120979078Y-122995500D01*
X120979073Y-122995483D01*
X120917485Y-122822192D01*
X120885136Y-122731170D01*
X120756081Y-122482104D01*
X120594312Y-122252931D01*
X120594307Y-122252925D01*
X120402845Y-122047919D01*
X120185242Y-121870886D01*
X119945566Y-121725136D01*
X119688276Y-121613380D01*
X119418166Y-121537698D01*
X119418162Y-121537697D01*
X119418161Y-121537697D01*
X119279209Y-121518598D01*
X119140259Y-121499500D01*
X119140258Y-121499500D01*
X118859742Y-121499500D01*
X118859741Y-121499500D01*
X118581839Y-121537697D01*
X118581833Y-121537698D01*
X118311723Y-121613380D01*
X118054433Y-121725136D01*
X117814757Y-121870886D01*
X117597154Y-122047919D01*
X117405692Y-122252925D01*
X117405692Y-122252926D01*
X117405689Y-122252928D01*
X117405688Y-122252931D01*
X117373683Y-122298272D01*
X117243919Y-122482103D01*
X117114863Y-122731171D01*
X117020926Y-122995483D01*
X117020921Y-122995500D01*
X116963852Y-123270135D01*
X116963851Y-123270137D01*
X116944709Y-123550000D01*
X110109238Y-123550000D01*
X110151859Y-123502665D01*
X110241250Y-123347835D01*
X110296497Y-123177803D01*
X110315185Y-123000000D01*
X110296497Y-122822197D01*
X110247045Y-122670000D01*
X110241252Y-122652170D01*
X110241249Y-122652164D01*
X110151859Y-122497335D01*
X110083178Y-122421057D01*
X110032235Y-122364478D01*
X110032232Y-122364476D01*
X110032231Y-122364475D01*
X110032230Y-122364474D01*
X109887593Y-122259388D01*
X109724267Y-122186671D01*
X109724265Y-122186670D01*
X109596594Y-122159533D01*
X109549391Y-122149500D01*
X109370609Y-122149500D01*
X109339954Y-122156015D01*
X109195733Y-122186670D01*
X109195728Y-122186672D01*
X109032408Y-122259387D01*
X108887768Y-122364475D01*
X108768140Y-122497336D01*
X108678750Y-122652164D01*
X108678747Y-122652170D01*
X108623504Y-122822192D01*
X108623503Y-122822194D01*
X108604815Y-123000000D01*
X82681161Y-123000000D01*
X82778312Y-122937564D01*
X83135733Y-122670000D01*
X83473154Y-122377620D01*
X83552504Y-122298267D01*
X83552512Y-122298261D01*
X83561410Y-122289362D01*
X83561412Y-122289362D01*
X84863955Y-120986819D01*
X84925278Y-120953334D01*
X84951636Y-120950500D01*
X91773920Y-120950500D01*
X91871462Y-120931096D01*
X91918913Y-120921658D01*
X92055495Y-120865084D01*
X92104729Y-120832186D01*
X92178416Y-120782952D01*
X93182951Y-119778416D01*
X93208212Y-119740610D01*
X93231600Y-119705609D01*
X93285213Y-119660804D01*
X93334702Y-119650500D01*
X97053557Y-119650500D01*
X97097266Y-119650509D01*
X97097266Y-119650508D01*
X97097272Y-119650509D01*
X97097277Y-119650507D01*
X97097335Y-119650500D01*
X97097344Y-119650500D01*
X97141797Y-119638588D01*
X97141798Y-119638592D01*
X97141821Y-119638581D01*
X97185545Y-119626876D01*
X97186449Y-119626646D01*
X97187158Y-119626226D01*
X97224750Y-119604523D01*
X97265679Y-119580902D01*
X97266376Y-119580510D01*
X97266387Y-119580502D01*
X97266851Y-119580030D01*
X97298229Y-119548652D01*
X97298231Y-119548654D01*
X97298243Y-119548636D01*
X97506545Y-119340419D01*
X97506663Y-119340317D01*
X97512510Y-119334470D01*
X97512512Y-119334469D01*
X97543623Y-119303358D01*
X97577216Y-119269778D01*
X97577736Y-119269269D01*
X97577740Y-119269264D01*
X97577841Y-119269087D01*
X97600789Y-119229340D01*
X97600792Y-119229332D01*
X97623505Y-119190012D01*
X97623918Y-119189315D01*
X97623918Y-119189314D01*
X97624149Y-119188410D01*
X97636628Y-119141833D01*
X97636642Y-119141810D01*
X97636635Y-119141809D01*
X97647790Y-119100215D01*
X97647790Y-119100208D01*
X97647797Y-119100152D01*
X97647800Y-119100144D01*
X97647800Y-119051642D01*
X97647809Y-119007928D01*
X97647808Y-119007925D01*
X97647810Y-118999999D01*
X97647800Y-118999829D01*
X97647800Y-117258530D01*
X97667485Y-117191491D01*
X97720289Y-117145736D01*
X97789447Y-117135792D01*
X97853003Y-117164817D01*
X97859481Y-117170849D01*
X98278136Y-117589503D01*
X98671585Y-117982952D01*
X98684420Y-117991528D01*
X98684424Y-117991532D01*
X98684425Y-117991531D01*
X98794505Y-118065084D01*
X98823474Y-118077083D01*
X98823475Y-118077084D01*
X98823476Y-118077084D01*
X98931088Y-118121659D01*
X99047241Y-118144763D01*
X99061433Y-118147586D01*
X99076081Y-118150500D01*
X99076082Y-118150500D01*
X99076083Y-118150500D01*
X99223918Y-118150500D01*
X99523124Y-118150500D01*
X99590163Y-118170185D01*
X99635918Y-118222989D01*
X99645862Y-118292147D01*
X99644741Y-118298691D01*
X99636500Y-118340121D01*
X99636500Y-118948278D01*
X99651032Y-119021335D01*
X99651033Y-119021339D01*
X99651034Y-119021340D01*
X99706399Y-119104201D01*
X99762686Y-119141810D01*
X99789260Y-119159566D01*
X99789264Y-119159567D01*
X99862321Y-119174099D01*
X99862324Y-119174100D01*
X99862326Y-119174100D01*
X100295370Y-119174100D01*
X100362409Y-119193785D01*
X100383051Y-119210419D01*
X100399580Y-119226948D01*
X100399584Y-119226951D01*
X100522498Y-119309080D01*
X100522511Y-119309087D01*
X100616058Y-119347835D01*
X100659087Y-119365658D01*
X100659091Y-119365658D01*
X100659092Y-119365659D01*
X100804079Y-119394500D01*
X100804082Y-119394500D01*
X103658294Y-119394500D01*
X103725333Y-119414185D01*
X103732605Y-119419233D01*
X103757669Y-119437996D01*
X103757671Y-119437997D01*
X103892517Y-119488291D01*
X103892516Y-119488291D01*
X103899444Y-119489035D01*
X103952127Y-119494700D01*
X104947872Y-119494699D01*
X105007483Y-119488291D01*
X105142331Y-119437996D01*
X105167395Y-119419232D01*
X105232859Y-119394816D01*
X105241706Y-119394500D01*
X106149992Y-119394500D01*
X106217031Y-119414185D01*
X106224304Y-119419234D01*
X106232668Y-119425495D01*
X106232671Y-119425497D01*
X106367517Y-119475791D01*
X106367516Y-119475791D01*
X106374444Y-119476535D01*
X106427127Y-119482200D01*
X107472872Y-119482199D01*
X107532483Y-119475791D01*
X107667331Y-119425496D01*
X107675696Y-119419234D01*
X107741160Y-119394816D01*
X107750008Y-119394500D01*
X108429920Y-119394500D01*
X108527462Y-119375096D01*
X108574913Y-119365658D01*
X108711495Y-119309084D01*
X108760729Y-119276186D01*
X108771082Y-119269269D01*
X108830840Y-119229341D01*
X108834416Y-119226952D01*
X110582951Y-117478416D01*
X110607321Y-117441943D01*
X110665084Y-117355495D01*
X110669749Y-117344234D01*
X110715451Y-117233897D01*
X110721658Y-117218913D01*
X110750500Y-117073918D01*
X110750500Y-116434320D01*
X110767112Y-116372322D01*
X110781250Y-116347835D01*
X110836497Y-116177803D01*
X110855185Y-116000000D01*
X110836497Y-115822197D01*
X110781250Y-115652165D01*
X110691859Y-115497335D01*
X110627796Y-115426186D01*
X110572235Y-115364478D01*
X110572232Y-115364476D01*
X110572231Y-115364475D01*
X110572230Y-115364474D01*
X110427593Y-115259388D01*
X110264267Y-115186671D01*
X110264265Y-115186670D01*
X110136594Y-115159533D01*
X110089391Y-115149500D01*
X109910609Y-115149500D01*
X109879954Y-115156015D01*
X109735733Y-115186670D01*
X109735728Y-115186672D01*
X109572408Y-115259387D01*
X109427768Y-115364475D01*
X109308140Y-115497336D01*
X109218750Y-115652164D01*
X109218747Y-115652170D01*
X109163504Y-115822192D01*
X109163503Y-115822194D01*
X109144815Y-116000000D01*
X109163503Y-116177805D01*
X109163504Y-116177807D01*
X109218747Y-116347829D01*
X109218748Y-116347830D01*
X109218750Y-116347835D01*
X109232887Y-116372322D01*
X109249500Y-116434320D01*
X109249500Y-116637770D01*
X109229815Y-116704809D01*
X109213181Y-116725451D01*
X108081451Y-117857181D01*
X108020128Y-117890666D01*
X107993770Y-117893500D01*
X107749474Y-117893500D01*
X107682435Y-117873815D01*
X107675163Y-117868767D01*
X107667331Y-117862904D01*
X107667328Y-117862902D01*
X107532482Y-117812608D01*
X107532483Y-117812608D01*
X107472883Y-117806201D01*
X107472881Y-117806200D01*
X107472873Y-117806200D01*
X107472864Y-117806200D01*
X106427129Y-117806200D01*
X106427123Y-117806201D01*
X106367516Y-117812608D01*
X106232671Y-117862902D01*
X106232668Y-117862904D01*
X106224837Y-117868767D01*
X106159372Y-117893184D01*
X106150526Y-117893500D01*
X105241172Y-117893500D01*
X105174133Y-117873815D01*
X105166861Y-117868767D01*
X105142331Y-117850404D01*
X105142328Y-117850402D01*
X105007482Y-117800108D01*
X105007483Y-117800108D01*
X104947883Y-117793701D01*
X104947881Y-117793700D01*
X104947873Y-117793700D01*
X104947864Y-117793700D01*
X103952129Y-117793700D01*
X103952123Y-117793701D01*
X103892516Y-117800108D01*
X103757671Y-117850402D01*
X103757668Y-117850404D01*
X103733139Y-117868767D01*
X103667674Y-117893184D01*
X103658828Y-117893500D01*
X103291230Y-117893500D01*
X103224191Y-117873815D01*
X103178436Y-117821011D01*
X103168492Y-117751853D01*
X103197517Y-117688297D01*
X103203549Y-117681819D01*
X103295865Y-117589503D01*
X103504239Y-117381128D01*
X103565560Y-117347645D01*
X103635251Y-117352629D01*
X103666229Y-117369544D01*
X103757669Y-117437996D01*
X103757670Y-117437996D01*
X103757671Y-117437997D01*
X103892517Y-117488291D01*
X103892516Y-117488291D01*
X103899444Y-117489035D01*
X103952127Y-117494700D01*
X104947872Y-117494699D01*
X105007483Y-117488291D01*
X105142331Y-117437996D01*
X105257546Y-117351746D01*
X105257546Y-117351745D01*
X105264646Y-117346431D01*
X105266392Y-117348764D01*
X105314797Y-117322334D01*
X105341155Y-117319500D01*
X106149992Y-117319500D01*
X106217031Y-117339185D01*
X106224304Y-117344234D01*
X106230355Y-117348764D01*
X106232668Y-117350495D01*
X106232671Y-117350497D01*
X106367517Y-117400791D01*
X106367516Y-117400791D01*
X106374444Y-117401535D01*
X106427127Y-117407200D01*
X107472872Y-117407199D01*
X107532483Y-117400791D01*
X107667331Y-117350496D01*
X107782546Y-117264246D01*
X107868796Y-117149031D01*
X107919091Y-117014183D01*
X107925500Y-116954573D01*
X107925499Y-116183828D01*
X107919091Y-116124217D01*
X107917597Y-116120212D01*
X107868797Y-115989371D01*
X107868793Y-115989364D01*
X107782547Y-115874155D01*
X107782544Y-115874152D01*
X107667335Y-115787906D01*
X107667328Y-115787902D01*
X107532482Y-115737608D01*
X107532483Y-115737608D01*
X107472883Y-115731201D01*
X107472881Y-115731200D01*
X107472873Y-115731200D01*
X107472864Y-115731200D01*
X106427129Y-115731200D01*
X106427123Y-115731201D01*
X106367516Y-115737608D01*
X106232671Y-115787902D01*
X106232668Y-115787904D01*
X106224837Y-115793767D01*
X106159372Y-115818184D01*
X106150526Y-115818500D01*
X105079164Y-115818500D01*
X105035831Y-115810682D01*
X105007482Y-115800108D01*
X105007483Y-115800108D01*
X104947883Y-115793701D01*
X104947881Y-115793700D01*
X104947873Y-115793700D01*
X104947864Y-115793700D01*
X103952129Y-115793700D01*
X103952123Y-115793701D01*
X103892516Y-115800108D01*
X103864169Y-115810682D01*
X103820836Y-115818500D01*
X103542229Y-115818500D01*
X103475190Y-115798815D01*
X103429435Y-115746011D01*
X103419491Y-115676853D01*
X103448516Y-115613297D01*
X103454548Y-115606819D01*
X103670950Y-115390417D01*
X103670952Y-115390415D01*
X103718628Y-115319062D01*
X103753084Y-115267495D01*
X103781768Y-115198245D01*
X103809659Y-115130912D01*
X103827562Y-115040910D01*
X103837439Y-114991256D01*
X103838499Y-114985922D01*
X103838500Y-114985915D01*
X103838500Y-114799072D01*
X103858185Y-114732033D01*
X103863224Y-114724772D01*
X103868796Y-114717331D01*
X103919091Y-114582483D01*
X103925500Y-114522873D01*
X103925499Y-113477128D01*
X103919091Y-113417517D01*
X103903210Y-113374939D01*
X103868797Y-113282671D01*
X103868793Y-113282664D01*
X103782547Y-113167455D01*
X103782544Y-113167452D01*
X103667335Y-113081206D01*
X103667328Y-113081202D01*
X103532486Y-113030910D01*
X103532485Y-113030909D01*
X103532483Y-113030909D01*
X103472873Y-113024500D01*
X103472863Y-113024500D01*
X102702129Y-113024500D01*
X102702123Y-113024501D01*
X102642516Y-113030908D01*
X102507671Y-113081202D01*
X102507664Y-113081206D01*
X102392455Y-113167452D01*
X102392452Y-113167455D01*
X102306206Y-113282664D01*
X102306202Y-113282671D01*
X102255908Y-113417517D01*
X102250712Y-113465854D01*
X102249501Y-113477123D01*
X102249500Y-113477135D01*
X102249500Y-114522870D01*
X102249501Y-114522876D01*
X102255909Y-114582484D01*
X102257692Y-114590029D01*
X102255978Y-114590433D01*
X102260275Y-114650520D01*
X102226790Y-114711840D01*
X101621451Y-115317181D01*
X101560128Y-115350666D01*
X101533770Y-115353500D01*
X100804080Y-115353500D01*
X100659092Y-115382340D01*
X100659082Y-115382343D01*
X100522511Y-115438912D01*
X100522498Y-115438919D01*
X100399584Y-115521048D01*
X100399580Y-115521051D01*
X100382651Y-115537981D01*
X100321328Y-115571466D01*
X100294970Y-115574300D01*
X100059800Y-115574300D01*
X99992761Y-115554615D01*
X99947006Y-115501811D01*
X99935800Y-115450300D01*
X99935800Y-113519262D01*
X99935825Y-113518868D01*
X99935821Y-113510975D01*
X99935822Y-113510973D01*
X99935800Y-113465854D01*
X99935800Y-113418856D01*
X99935799Y-113418852D01*
X99935777Y-113418689D01*
X99935777Y-113418686D01*
X99924032Y-113374939D01*
X99911914Y-113329712D01*
X99911908Y-113329702D01*
X99911850Y-113329562D01*
X99911848Y-113329553D01*
X99888347Y-113288893D01*
X99865769Y-113249788D01*
X99865766Y-113249782D01*
X99865663Y-113249649D01*
X99831825Y-113215844D01*
X99794914Y-113178933D01*
X99794618Y-113178673D01*
X99216563Y-112601182D01*
X99190107Y-112574726D01*
X99156622Y-112513403D01*
X99161606Y-112443711D01*
X99178522Y-112412733D01*
X99193796Y-112392331D01*
X99244091Y-112257483D01*
X99250500Y-112197873D01*
X99250499Y-111402128D01*
X99244091Y-111342517D01*
X99234766Y-111317516D01*
X99193797Y-111207671D01*
X99193795Y-111207668D01*
X99192477Y-111205908D01*
X99175233Y-111182872D01*
X99150816Y-111117408D01*
X99150500Y-111108561D01*
X99150500Y-110538579D01*
X99121659Y-110393592D01*
X99121658Y-110393591D01*
X99121658Y-110393587D01*
X99068229Y-110264597D01*
X99065087Y-110257011D01*
X99065080Y-110256998D01*
X98982952Y-110134085D01*
X98941195Y-110092328D01*
X98878416Y-110029549D01*
X98561818Y-109712950D01*
X98528333Y-109651627D01*
X98525499Y-109625269D01*
X98525499Y-109435612D01*
X98545184Y-109368573D01*
X98597988Y-109322818D01*
X98667146Y-109312874D01*
X98720163Y-109337086D01*
X98721588Y-109335023D01*
X98727761Y-109339284D01*
X98867634Y-109412696D01*
X99021014Y-109450500D01*
X99021015Y-109450500D01*
X99178985Y-109450500D01*
X99332365Y-109412696D01*
X99472240Y-109339283D01*
X99590483Y-109234530D01*
X99680220Y-109104523D01*
X99736237Y-108956818D01*
X99755278Y-108800000D01*
X99744067Y-108707664D01*
X99736237Y-108643181D01*
X99702981Y-108555493D01*
X99680220Y-108495477D01*
X99590483Y-108365470D01*
X99590479Y-108365466D01*
X99585509Y-108359856D01*
X99586953Y-108358576D01*
X99555145Y-108307860D01*
X99550500Y-108274240D01*
X99550500Y-107040575D01*
X100720799Y-107040575D01*
X100732781Y-107100807D01*
X100732781Y-107149190D01*
X100720800Y-107209421D01*
X100720800Y-107690578D01*
X100735332Y-107763635D01*
X100735333Y-107763639D01*
X100735334Y-107763640D01*
X100790699Y-107846501D01*
X100832677Y-107874549D01*
X100873560Y-107901866D01*
X100873564Y-107901867D01*
X100946621Y-107916399D01*
X100946624Y-107916400D01*
X100946626Y-107916400D01*
X101425500Y-107916400D01*
X101492539Y-107936085D01*
X101538294Y-107988889D01*
X101549500Y-108040400D01*
X101549500Y-108812764D01*
X101529815Y-108879803D01*
X101499811Y-108912031D01*
X101435313Y-108960313D01*
X101353373Y-109069771D01*
X101305587Y-109197889D01*
X101299500Y-109254498D01*
X101299500Y-109845481D01*
X101299501Y-109845490D01*
X101305587Y-109902114D01*
X101344831Y-110007328D01*
X101353372Y-110030226D01*
X101435313Y-110139687D01*
X101499812Y-110187970D01*
X101541681Y-110243901D01*
X101549500Y-110287235D01*
X101549500Y-110512764D01*
X101529815Y-110579803D01*
X101499811Y-110612029D01*
X101435313Y-110660313D01*
X101353373Y-110769771D01*
X101305587Y-110897889D01*
X101299500Y-110954498D01*
X101299500Y-111545481D01*
X101299501Y-111545490D01*
X101305587Y-111602114D01*
X101324245Y-111652135D01*
X101353372Y-111730226D01*
X101435313Y-111839687D01*
X101544774Y-111921628D01*
X101672886Y-111969412D01*
X101729515Y-111975500D01*
X102270484Y-111975499D01*
X102327114Y-111969412D01*
X102455226Y-111921628D01*
X102564687Y-111839687D01*
X102646628Y-111730226D01*
X102694412Y-111602114D01*
X102696687Y-111580944D01*
X102700499Y-111545501D01*
X102700499Y-111545490D01*
X102700500Y-111545485D01*
X102700499Y-110954516D01*
X102694412Y-110897886D01*
X102686279Y-110876082D01*
X102664913Y-110818797D01*
X102646628Y-110769774D01*
X102564687Y-110660313D01*
X102500188Y-110612030D01*
X102458318Y-110556097D01*
X102450500Y-110512764D01*
X102450500Y-110287235D01*
X102470185Y-110220196D01*
X102500185Y-110187972D01*
X102564687Y-110139687D01*
X102646628Y-110030226D01*
X102694412Y-109902114D01*
X102696687Y-109880944D01*
X102700499Y-109845501D01*
X102700499Y-109845490D01*
X102700500Y-109845485D01*
X102700499Y-109254516D01*
X102694412Y-109197886D01*
X102688736Y-109182669D01*
X102659589Y-109104523D01*
X102646628Y-109069774D01*
X102564687Y-108960313D01*
X102500188Y-108912030D01*
X102458318Y-108856097D01*
X102450500Y-108812764D01*
X102450500Y-108040400D01*
X102470185Y-107973361D01*
X102522989Y-107927606D01*
X102574500Y-107916400D01*
X103053376Y-107916400D01*
X103121328Y-107902883D01*
X103145520Y-107900500D01*
X103840715Y-107900500D01*
X103907754Y-107920185D01*
X103916199Y-107926123D01*
X103922370Y-107930858D01*
X103922373Y-107930859D01*
X103922375Y-107930861D01*
X104056291Y-107986330D01*
X104183280Y-108003048D01*
X104199999Y-108005250D01*
X104200000Y-108005250D01*
X104200001Y-108005250D01*
X104214977Y-108003278D01*
X104343709Y-107986330D01*
X104477625Y-107930861D01*
X104592621Y-107842621D01*
X104680861Y-107727625D01*
X104736330Y-107593709D01*
X104755250Y-107450000D01*
X104736330Y-107306291D01*
X104680861Y-107172375D01*
X104592621Y-107057379D01*
X104592619Y-107057378D01*
X104592619Y-107057377D01*
X104558650Y-107031312D01*
X104509882Y-106993891D01*
X104479351Y-106952078D01*
X104435855Y-106951303D01*
X104425456Y-106947530D01*
X104397656Y-106936015D01*
X104343709Y-106913670D01*
X104271854Y-106904210D01*
X104200001Y-106894750D01*
X104199999Y-106894750D01*
X104056291Y-106913670D01*
X104056287Y-106913671D01*
X103922376Y-106969138D01*
X103922370Y-106969141D01*
X103916199Y-106973877D01*
X103851030Y-106999070D01*
X103840715Y-106999500D01*
X103403200Y-106999500D01*
X103336161Y-106979815D01*
X103290406Y-106927011D01*
X103279200Y-106875500D01*
X103279200Y-106559422D01*
X103279199Y-106559420D01*
X103264667Y-106486363D01*
X103264666Y-106486359D01*
X103233364Y-106439512D01*
X103209301Y-106403498D01*
X103153935Y-106366504D01*
X103126439Y-106348132D01*
X103126435Y-106348131D01*
X103053377Y-106333599D01*
X103053374Y-106333599D01*
X100946626Y-106333599D01*
X100946623Y-106333599D01*
X100873564Y-106348131D01*
X100873560Y-106348132D01*
X100790699Y-106403498D01*
X100735333Y-106486359D01*
X100735332Y-106486363D01*
X100720800Y-106559420D01*
X100720800Y-106559425D01*
X100720800Y-107040573D01*
X100720800Y-107040575D01*
X100720799Y-107040575D01*
X99550500Y-107040575D01*
X99550500Y-106390693D01*
X99550500Y-106390691D01*
X99519799Y-106276114D01*
X99519799Y-106276113D01*
X99519799Y-106276112D01*
X99460492Y-106173389D01*
X99460488Y-106173384D01*
X97776616Y-104489513D01*
X97776614Y-104489511D01*
X97725250Y-104459856D01*
X97673888Y-104430201D01*
X97661780Y-104426957D01*
X97649673Y-104423713D01*
X97649670Y-104423712D01*
X97611478Y-104413478D01*
X97559309Y-104399500D01*
X97559308Y-104399500D01*
X96545200Y-104399500D01*
X96478161Y-104379815D01*
X96432406Y-104327011D01*
X96421200Y-104275500D01*
X96421200Y-103959423D01*
X96409218Y-103899190D01*
X96409218Y-103850808D01*
X96421200Y-103790572D01*
X96421200Y-103309424D01*
X96409218Y-103249187D01*
X96409218Y-103200809D01*
X96421200Y-103140573D01*
X96421200Y-102659425D01*
X96421200Y-102659422D01*
X96409219Y-102599192D01*
X96409219Y-102550808D01*
X96421200Y-102490577D01*
X96421200Y-102009424D01*
X96421199Y-102009422D01*
X96406667Y-101936365D01*
X96406666Y-101936361D01*
X96400958Y-101927818D01*
X96351301Y-101853500D01*
X96268440Y-101798135D01*
X96268439Y-101798134D01*
X96268435Y-101798133D01*
X96195377Y-101783601D01*
X96195374Y-101783601D01*
X94088626Y-101783601D01*
X94088624Y-101783601D01*
X94020676Y-101797117D01*
X93996484Y-101799500D01*
X93237966Y-101799500D01*
X93170927Y-101779815D01*
X93150285Y-101763181D01*
X92999285Y-101612181D01*
X92965800Y-101550858D01*
X92970784Y-101481166D01*
X93012656Y-101425233D01*
X93078120Y-101400816D01*
X93086966Y-101400500D01*
X93996474Y-101400500D01*
X94020666Y-101402883D01*
X94088623Y-101416401D01*
X94088626Y-101416401D01*
X96195376Y-101416401D01*
X96195377Y-101416400D01*
X96268440Y-101401867D01*
X96351301Y-101346502D01*
X96406666Y-101263641D01*
X96421200Y-101190575D01*
X96421200Y-100709427D01*
X96421133Y-100709092D01*
X96412923Y-100667815D01*
X96409218Y-100649190D01*
X96409218Y-100600810D01*
X96421200Y-100540574D01*
X96421200Y-100059426D01*
X96421200Y-100059425D01*
X96421200Y-100059423D01*
X96421199Y-100059421D01*
X96406667Y-99986364D01*
X96406666Y-99986360D01*
X96351301Y-99903499D01*
X96268440Y-99848134D01*
X96268439Y-99848133D01*
X96268435Y-99848132D01*
X96195377Y-99833600D01*
X96195374Y-99833600D01*
X94167965Y-99833600D01*
X94100926Y-99813915D01*
X94080284Y-99797281D01*
X93954219Y-99671216D01*
X93920734Y-99609893D01*
X93925718Y-99540201D01*
X93967590Y-99484268D01*
X94033054Y-99459851D01*
X94066092Y-99461918D01*
X94088623Y-99466400D01*
X94088626Y-99466400D01*
X96195376Y-99466400D01*
X96263328Y-99452883D01*
X96287520Y-99450500D01*
X96609308Y-99450500D01*
X96609309Y-99450500D01*
X96699673Y-99426286D01*
X96723887Y-99419799D01*
X96826614Y-99360489D01*
X97360489Y-98826614D01*
X97418113Y-98726806D01*
X97468681Y-98678592D01*
X97537288Y-98665370D01*
X97602152Y-98691338D01*
X97642680Y-98748252D01*
X97649500Y-98788808D01*
X97649500Y-103473918D01*
X97649500Y-103473920D01*
X97649499Y-103473920D01*
X97678340Y-103618907D01*
X97678343Y-103618917D01*
X97734912Y-103755488D01*
X97734919Y-103755501D01*
X97817048Y-103878415D01*
X97817051Y-103878419D01*
X97921580Y-103982948D01*
X97921584Y-103982951D01*
X98044498Y-104065080D01*
X98044511Y-104065087D01*
X98181082Y-104121656D01*
X98181087Y-104121658D01*
X98181091Y-104121658D01*
X98181092Y-104121659D01*
X98326079Y-104150500D01*
X98462035Y-104150500D01*
X98529074Y-104170185D01*
X98549715Y-104186818D01*
X98923386Y-104560490D01*
X98923388Y-104560491D01*
X98923392Y-104560494D01*
X98998424Y-104603813D01*
X99026113Y-104619799D01*
X99049674Y-104626112D01*
X99049676Y-104626113D01*
X99049677Y-104626113D01*
X99056899Y-104628048D01*
X99140691Y-104650500D01*
X100596800Y-104650500D01*
X100663839Y-104670185D01*
X100709594Y-104722989D01*
X100720800Y-104774500D01*
X100720800Y-105090575D01*
X100720800Y-105090577D01*
X100720799Y-105090577D01*
X100732781Y-105150808D01*
X100732781Y-105199192D01*
X100720800Y-105259422D01*
X100720800Y-105740577D01*
X100735332Y-105813634D01*
X100735333Y-105813638D01*
X100735334Y-105813639D01*
X100790699Y-105896500D01*
X100854731Y-105939284D01*
X100873560Y-105951865D01*
X100873564Y-105951866D01*
X100946621Y-105966398D01*
X100946624Y-105966399D01*
X100946626Y-105966399D01*
X103053376Y-105966399D01*
X103121328Y-105952882D01*
X103145520Y-105950499D01*
X104025500Y-105950499D01*
X104092539Y-105970184D01*
X104138294Y-106022988D01*
X104149500Y-106074499D01*
X104149500Y-106123917D01*
X104149500Y-106123919D01*
X104149499Y-106123919D01*
X104178340Y-106268906D01*
X104178342Y-106268912D01*
X104211155Y-106348131D01*
X104234916Y-106405494D01*
X104317048Y-106528416D01*
X104397529Y-106608896D01*
X104471584Y-106682951D01*
X104541798Y-106729866D01*
X104580090Y-106775685D01*
X104630083Y-106779859D01*
X104632823Y-106780956D01*
X104641756Y-106784656D01*
X104731088Y-106821659D01*
X104837744Y-106842874D01*
X104863302Y-106847958D01*
X104876081Y-106850500D01*
X104876082Y-106850500D01*
X104876083Y-106850500D01*
X105023918Y-106850500D01*
X108076082Y-106850500D01*
X109137770Y-106850500D01*
X109204809Y-106870185D01*
X109225451Y-106886819D01*
X110213181Y-107874549D01*
X110246666Y-107935872D01*
X110249500Y-107962230D01*
X110249500Y-108024678D01*
X110264032Y-108097735D01*
X110264033Y-108097739D01*
X110264034Y-108097740D01*
X110319399Y-108180601D01*
X110402260Y-108235966D01*
X110402264Y-108235967D01*
X110475321Y-108250499D01*
X110475324Y-108250500D01*
X110475326Y-108250500D01*
X113124676Y-108250500D01*
X113124677Y-108250499D01*
X113197740Y-108235966D01*
X113280601Y-108180601D01*
X113335966Y-108097740D01*
X113350500Y-108024674D01*
X113350500Y-106975326D01*
X113350500Y-106975323D01*
X113350499Y-106975321D01*
X113335967Y-106902264D01*
X113335966Y-106902260D01*
X113318086Y-106875500D01*
X113280601Y-106819399D01*
X113215177Y-106775685D01*
X113197739Y-106764033D01*
X113197735Y-106764032D01*
X113124677Y-106749500D01*
X113124674Y-106749500D01*
X111262230Y-106749500D01*
X111195191Y-106729815D01*
X111174549Y-106713181D01*
X109978421Y-105517052D01*
X109978414Y-105517046D01*
X109919381Y-105477602D01*
X109874575Y-105423990D01*
X109865868Y-105354665D01*
X109896022Y-105291638D01*
X109955465Y-105254918D01*
X109988271Y-105250500D01*
X113124676Y-105250500D01*
X113124677Y-105250499D01*
X113197740Y-105235966D01*
X113280601Y-105180601D01*
X113335966Y-105097740D01*
X113350500Y-105024674D01*
X113350500Y-103975326D01*
X113350500Y-103975323D01*
X113350499Y-103975321D01*
X113335967Y-103902264D01*
X113335966Y-103902260D01*
X113320034Y-103878416D01*
X113280601Y-103819399D01*
X113197740Y-103764034D01*
X113197739Y-103764033D01*
X113197735Y-103764032D01*
X113124677Y-103749500D01*
X113124674Y-103749500D01*
X111873918Y-103749500D01*
X109076082Y-103749500D01*
X109076080Y-103749500D01*
X108931088Y-103778341D01*
X108931085Y-103778342D01*
X108902786Y-103790063D01*
X108857807Y-103799014D01*
X108857812Y-103799117D01*
X108857816Y-103799146D01*
X108857814Y-103799146D01*
X108857824Y-103799324D01*
X108855673Y-103799439D01*
X108855368Y-103799500D01*
X108854534Y-103799500D01*
X108854507Y-103799501D01*
X108797885Y-103805587D01*
X108669773Y-103853372D01*
X108584711Y-103917049D01*
X108560313Y-103935313D01*
X108513884Y-103997336D01*
X108512031Y-103999811D01*
X108456097Y-104041682D01*
X108412764Y-104049500D01*
X107390689Y-104049500D01*
X107320214Y-104068383D01*
X107250364Y-104066719D01*
X107192502Y-104027556D01*
X107164999Y-103963327D01*
X107176586Y-103894425D01*
X107200441Y-103860927D01*
X110142535Y-100918833D01*
X113142952Y-97918416D01*
X113192186Y-97844729D01*
X113225084Y-97795495D01*
X113281658Y-97658913D01*
X113291096Y-97611462D01*
X113310500Y-97513920D01*
X113310500Y-95950979D01*
X113281659Y-95805992D01*
X113281658Y-95805991D01*
X113281658Y-95805987D01*
X113246949Y-95722192D01*
X113225087Y-95669411D01*
X113225080Y-95669398D01*
X113142951Y-95546484D01*
X113142948Y-95546480D01*
X113038419Y-95441951D01*
X113038415Y-95441948D01*
X112915501Y-95359819D01*
X112915488Y-95359812D01*
X112778917Y-95303243D01*
X112778907Y-95303240D01*
X112633920Y-95274400D01*
X112633918Y-95274400D01*
X112486082Y-95274400D01*
X112486080Y-95274400D01*
X112341092Y-95303240D01*
X112341082Y-95303243D01*
X112204511Y-95359812D01*
X112204498Y-95359819D01*
X112081584Y-95441948D01*
X112081580Y-95441951D01*
X111977051Y-95546480D01*
X111977048Y-95546484D01*
X111894919Y-95669398D01*
X111894912Y-95669411D01*
X111838343Y-95805982D01*
X111838340Y-95805992D01*
X111809500Y-95950979D01*
X111809500Y-97077769D01*
X111789815Y-97144808D01*
X111773181Y-97165450D01*
X110962181Y-97976450D01*
X110900858Y-98009935D01*
X110831166Y-98004951D01*
X110775233Y-97963079D01*
X110750816Y-97897615D01*
X110750500Y-97888769D01*
X110750500Y-94926079D01*
X110721659Y-94781092D01*
X110721658Y-94781091D01*
X110721658Y-94781087D01*
X110721656Y-94781082D01*
X110665087Y-94644511D01*
X110665080Y-94644498D01*
X110582951Y-94521584D01*
X110582948Y-94521580D01*
X110478419Y-94417051D01*
X110478415Y-94417048D01*
X110355501Y-94334919D01*
X110355488Y-94334912D01*
X110218917Y-94278343D01*
X110218907Y-94278340D01*
X110073920Y-94249500D01*
X110073918Y-94249500D01*
X109926082Y-94249500D01*
X109926080Y-94249500D01*
X109781092Y-94278340D01*
X109781082Y-94278343D01*
X109644511Y-94334912D01*
X109644498Y-94334919D01*
X109521584Y-94417048D01*
X109521580Y-94417051D01*
X109417051Y-94521580D01*
X109417048Y-94521584D01*
X109334919Y-94644498D01*
X109334912Y-94644511D01*
X109278343Y-94781082D01*
X109278340Y-94781092D01*
X109249500Y-94926079D01*
X109249500Y-97637769D01*
X109229815Y-97704808D01*
X109213181Y-97725450D01*
X105417052Y-101521578D01*
X105417052Y-101521579D01*
X105417049Y-101521582D01*
X105417048Y-101521584D01*
X105387870Y-101565253D01*
X105334918Y-101644502D01*
X105334914Y-101644509D01*
X105278342Y-101781087D01*
X105278340Y-101781093D01*
X105249500Y-101926080D01*
X105249500Y-102062034D01*
X105229815Y-102129073D01*
X105213181Y-102149715D01*
X104949716Y-102413181D01*
X104888393Y-102446666D01*
X104862035Y-102449500D01*
X104122572Y-102449500D01*
X104055533Y-102429815D01*
X104009778Y-102377011D01*
X103999633Y-102309316D01*
X104000500Y-102302729D01*
X104000500Y-102197275D01*
X104000500Y-102197273D01*
X103973207Y-102095413D01*
X103920480Y-102004087D01*
X103920479Y-102004086D01*
X103918064Y-101999903D01*
X103901591Y-101932003D01*
X103924443Y-101865976D01*
X103937694Y-101850296D01*
X104405335Y-101381893D01*
X104466628Y-101348360D01*
X104493072Y-101345505D01*
X104630982Y-101345493D01*
X104775974Y-101316640D01*
X104912551Y-101260054D01*
X105035466Y-101177911D01*
X108016235Y-98196631D01*
X108016236Y-98196632D01*
X108016240Y-98196625D01*
X108062418Y-98150448D01*
X108062979Y-98149898D01*
X108062983Y-98149893D01*
X108063383Y-98149282D01*
X108106156Y-98085254D01*
X108144461Y-98027926D01*
X108145110Y-98026980D01*
X108145500Y-98026006D01*
X108177183Y-97949500D01*
X108201520Y-97890746D01*
X108201667Y-97890399D01*
X108201673Y-97890370D01*
X108201992Y-97888769D01*
X108205486Y-97871189D01*
X108215814Y-97819249D01*
X108215815Y-97819249D01*
X108215815Y-97819240D01*
X108230500Y-97745418D01*
X108230500Y-97745410D01*
X108230505Y-97745357D01*
X108230506Y-97745353D01*
X108230500Y-97670480D01*
X108230500Y-95926082D01*
X108230500Y-95926079D01*
X108201659Y-95781092D01*
X108201658Y-95781091D01*
X108201658Y-95781087D01*
X108177263Y-95722192D01*
X108145087Y-95644511D01*
X108145080Y-95644498D01*
X108062951Y-95521584D01*
X108062948Y-95521580D01*
X107958419Y-95417051D01*
X107958415Y-95417048D01*
X107835501Y-95334919D01*
X107835488Y-95334912D01*
X107698917Y-95278343D01*
X107698907Y-95278340D01*
X107553920Y-95249500D01*
X107553918Y-95249500D01*
X107406082Y-95249500D01*
X107406080Y-95249500D01*
X107261092Y-95278340D01*
X107261082Y-95278343D01*
X107124511Y-95334912D01*
X107124498Y-95334919D01*
X107001584Y-95417048D01*
X107001580Y-95417051D01*
X106897051Y-95521580D01*
X106897048Y-95521584D01*
X106814919Y-95644498D01*
X106814912Y-95644511D01*
X106758343Y-95781082D01*
X106758340Y-95781092D01*
X106729500Y-95926079D01*
X106729500Y-97309313D01*
X106709815Y-97376352D01*
X106693189Y-97396987D01*
X103974008Y-100116633D01*
X103891883Y-100239563D01*
X103891882Y-100239566D01*
X103835325Y-100376141D01*
X103835322Y-100376151D01*
X103806493Y-100521152D01*
X103806506Y-100655136D01*
X103786828Y-100722178D01*
X103770259Y-100742758D01*
X103490953Y-101022521D01*
X103429657Y-101056056D01*
X103359961Y-101051128D01*
X103303994Y-101009303D01*
X103279523Y-100943858D01*
X103279200Y-100934911D01*
X103279200Y-100709425D01*
X103270923Y-100667815D01*
X103267218Y-100649190D01*
X103267218Y-100600810D01*
X103279200Y-100540574D01*
X103279200Y-100059426D01*
X103279199Y-100059423D01*
X103276517Y-100045941D01*
X103267218Y-99999189D01*
X103267218Y-99950811D01*
X103279200Y-99890575D01*
X103279200Y-99409427D01*
X103275517Y-99390914D01*
X103272288Y-99374678D01*
X103267218Y-99349190D01*
X103267218Y-99300810D01*
X103279200Y-99240574D01*
X103279200Y-98759426D01*
X103279200Y-98759423D01*
X103279199Y-98759421D01*
X103264667Y-98686364D01*
X103264666Y-98686360D01*
X103236266Y-98643856D01*
X103209301Y-98603499D01*
X103135532Y-98554209D01*
X103126439Y-98548133D01*
X103126435Y-98548132D01*
X103053377Y-98533600D01*
X103053374Y-98533600D01*
X100946626Y-98533600D01*
X100946623Y-98533600D01*
X100873564Y-98548132D01*
X100873560Y-98548133D01*
X100790699Y-98603499D01*
X100777602Y-98623101D01*
X100723989Y-98667905D01*
X100654664Y-98676612D01*
X100591637Y-98646457D01*
X100554918Y-98587014D01*
X100550500Y-98554209D01*
X100550500Y-94062230D01*
X100570185Y-93995191D01*
X100586819Y-93974549D01*
X101011368Y-93550000D01*
X116944709Y-93550000D01*
X116963851Y-93829862D01*
X116963852Y-93829864D01*
X117020921Y-94104499D01*
X117020926Y-94104516D01*
X117102811Y-94334916D01*
X117114864Y-94368830D01*
X117243919Y-94617896D01*
X117405688Y-94847069D01*
X117405692Y-94847073D01*
X117405692Y-94847074D01*
X117597154Y-95052080D01*
X117597155Y-95052081D01*
X117814754Y-95229111D01*
X117814756Y-95229112D01*
X117814757Y-95229113D01*
X118054433Y-95374863D01*
X118263257Y-95465567D01*
X118311725Y-95486620D01*
X118581839Y-95562303D01*
X118826159Y-95595884D01*
X118859741Y-95600500D01*
X118859742Y-95600500D01*
X119140259Y-95600500D01*
X119170219Y-95596381D01*
X119418161Y-95562303D01*
X119688275Y-95486620D01*
X119940351Y-95377128D01*
X119945566Y-95374863D01*
X119970310Y-95359816D01*
X120185246Y-95229111D01*
X120402845Y-95052081D01*
X120594312Y-94847069D01*
X120756081Y-94617896D01*
X120885136Y-94368830D01*
X120979075Y-94104511D01*
X120979076Y-94104504D01*
X120979078Y-94104499D01*
X121010845Y-93951626D01*
X121036148Y-93829862D01*
X121055291Y-93550000D01*
X121036148Y-93270138D01*
X121010845Y-93148374D01*
X120979078Y-92995500D01*
X120979073Y-92995483D01*
X120918322Y-92824547D01*
X120885136Y-92731170D01*
X120756081Y-92482104D01*
X120594312Y-92252931D01*
X120594307Y-92252925D01*
X120402845Y-92047919D01*
X120242090Y-91917135D01*
X120185246Y-91870889D01*
X120185244Y-91870888D01*
X120185242Y-91870886D01*
X119945566Y-91725136D01*
X119688276Y-91613380D01*
X119418166Y-91537698D01*
X119418162Y-91537697D01*
X119418161Y-91537697D01*
X119279209Y-91518598D01*
X119140259Y-91499500D01*
X119140258Y-91499500D01*
X118859742Y-91499500D01*
X118859741Y-91499500D01*
X118581839Y-91537697D01*
X118581833Y-91537698D01*
X118311723Y-91613380D01*
X118054433Y-91725136D01*
X117814757Y-91870886D01*
X117597154Y-92047919D01*
X117405692Y-92252925D01*
X117405692Y-92252926D01*
X117405689Y-92252928D01*
X117405688Y-92252931D01*
X117343757Y-92340666D01*
X117243919Y-92482103D01*
X117114863Y-92731171D01*
X117020926Y-92995483D01*
X117020921Y-92995500D01*
X116963852Y-93270135D01*
X116963851Y-93270137D01*
X116944709Y-93550000D01*
X101011368Y-93550000D01*
X105522947Y-89038421D01*
X105522952Y-89038416D01*
X105605084Y-88915494D01*
X105661659Y-88778912D01*
X105690500Y-88633917D01*
X105690500Y-88486082D01*
X105661659Y-88341087D01*
X105612441Y-88222267D01*
X105604066Y-88191008D01*
X105586330Y-88056291D01*
X105530861Y-87922375D01*
X105442621Y-87807379D01*
X105327625Y-87719139D01*
X105327624Y-87719138D01*
X105327622Y-87719137D01*
X105193712Y-87663671D01*
X105193710Y-87663670D01*
X105193709Y-87663670D01*
X105121854Y-87654210D01*
X105050001Y-87644750D01*
X105049999Y-87644750D01*
X104906291Y-87663670D01*
X104906287Y-87663671D01*
X104772377Y-87719137D01*
X104740864Y-87743318D01*
X104657379Y-87807379D01*
X104657377Y-87807380D01*
X104657376Y-87807382D01*
X104608668Y-87870857D01*
X104579185Y-87898470D01*
X104461581Y-87977049D01*
X104461578Y-87977052D01*
X99362181Y-93076450D01*
X99300858Y-93109935D01*
X99231166Y-93104951D01*
X99175233Y-93063079D01*
X99150816Y-92997615D01*
X99150500Y-92988769D01*
X99150500Y-92912228D01*
X99170185Y-92845189D01*
X99186814Y-92824552D01*
X102828413Y-89182953D01*
X102828416Y-89182952D01*
X102982952Y-89028415D01*
X103065084Y-88905494D01*
X103121659Y-88768912D01*
X103150500Y-88623917D01*
X103150500Y-88476082D01*
X103121659Y-88331087D01*
X103072820Y-88213181D01*
X103065085Y-88194506D01*
X103022363Y-88130568D01*
X102982952Y-88071584D01*
X102982950Y-88071582D01*
X102982948Y-88071579D01*
X102878420Y-87967051D01*
X102755493Y-87884914D01*
X102618913Y-87828341D01*
X102618905Y-87828339D01*
X102473922Y-87799500D01*
X102473918Y-87799500D01*
X102326083Y-87799500D01*
X102326078Y-87799500D01*
X102181095Y-87828339D01*
X102181087Y-87828341D01*
X102044507Y-87884914D01*
X101921585Y-87967048D01*
X101767048Y-88121584D01*
X101767047Y-88121584D01*
X97962181Y-91926451D01*
X97900858Y-91959936D01*
X97831166Y-91954952D01*
X97775233Y-91913080D01*
X97750816Y-91847616D01*
X97750500Y-91838770D01*
X97750500Y-86999998D01*
X115094532Y-86999998D01*
X115094532Y-87000001D01*
X115114364Y-87226686D01*
X115114366Y-87226697D01*
X115173258Y-87446488D01*
X115173261Y-87446497D01*
X115269431Y-87652732D01*
X115269432Y-87652734D01*
X115399954Y-87839141D01*
X115560858Y-88000045D01*
X115607693Y-88032839D01*
X115747266Y-88130568D01*
X115953504Y-88226739D01*
X115953509Y-88226740D01*
X115953511Y-88226741D01*
X115971765Y-88231632D01*
X116173308Y-88285635D01*
X116335230Y-88299801D01*
X116399998Y-88305468D01*
X116400000Y-88305468D01*
X116400002Y-88305468D01*
X116456673Y-88300509D01*
X116626692Y-88285635D01*
X116846496Y-88226739D01*
X117052734Y-88130568D01*
X117239139Y-88000047D01*
X117400047Y-87839139D01*
X117530568Y-87652734D01*
X117626739Y-87446496D01*
X117685635Y-87226692D01*
X117705468Y-87000000D01*
X117705311Y-86998211D01*
X117693051Y-86858070D01*
X117685635Y-86773308D01*
X117626739Y-86553504D01*
X117530568Y-86347266D01*
X117400047Y-86160861D01*
X117400045Y-86160858D01*
X117239141Y-85999954D01*
X117052734Y-85869432D01*
X117052732Y-85869431D01*
X116846497Y-85773261D01*
X116846488Y-85773258D01*
X116626697Y-85714366D01*
X116626693Y-85714365D01*
X116626692Y-85714365D01*
X116626691Y-85714364D01*
X116626686Y-85714364D01*
X116400002Y-85694532D01*
X116399998Y-85694532D01*
X116173313Y-85714364D01*
X116173302Y-85714366D01*
X115953511Y-85773258D01*
X115953502Y-85773261D01*
X115747267Y-85869431D01*
X115747265Y-85869432D01*
X115560858Y-85999954D01*
X115399954Y-86160858D01*
X115269432Y-86347265D01*
X115269431Y-86347267D01*
X115173261Y-86553502D01*
X115173258Y-86553511D01*
X115114366Y-86773302D01*
X115114364Y-86773313D01*
X115094532Y-86999998D01*
X97750500Y-86999998D01*
X97750500Y-85874500D01*
X97770185Y-85807461D01*
X97822989Y-85761706D01*
X97874500Y-85750500D01*
X114523920Y-85750500D01*
X114621462Y-85731096D01*
X114668913Y-85721658D01*
X114805495Y-85665084D01*
X114854729Y-85632186D01*
X114928416Y-85582952D01*
X116282952Y-84228416D01*
X116365084Y-84105494D01*
X116421658Y-83968912D01*
X116447389Y-83839559D01*
X116450500Y-83823919D01*
X116450500Y-83676080D01*
X116421659Y-83531092D01*
X116421658Y-83531091D01*
X116421658Y-83531087D01*
X116365084Y-83394506D01*
X116282952Y-83271584D01*
X116282947Y-83271579D01*
X116282947Y-83271578D01*
X116178421Y-83167052D01*
X116178417Y-83167049D01*
X116178416Y-83167048D01*
X116055494Y-83084916D01*
X116055489Y-83084914D01*
X115918913Y-83028342D01*
X115918907Y-83028340D01*
X115773919Y-82999500D01*
X115773917Y-82999500D01*
X115626083Y-82999500D01*
X115626081Y-82999500D01*
X115481093Y-83028340D01*
X115481087Y-83028342D01*
X115344509Y-83084914D01*
X115344502Y-83084918D01*
X115282418Y-83126400D01*
X115221584Y-83167048D01*
X115221582Y-83167049D01*
X115221579Y-83167052D01*
X115221578Y-83167052D01*
X114175451Y-84213181D01*
X114114128Y-84246666D01*
X114087770Y-84249500D01*
X97362229Y-84249500D01*
X97295190Y-84229815D01*
X97274548Y-84213181D01*
X96938826Y-83877458D01*
X96938478Y-83877142D01*
X96835369Y-83774032D01*
X96661442Y-83625484D01*
X96491768Y-83480568D01*
X96126196Y-83214961D01*
X96126193Y-83214959D01*
X96126186Y-83214954D01*
X95740920Y-82978861D01*
X95740917Y-82978859D01*
X95740910Y-82978855D01*
X95740903Y-82978851D01*
X95740881Y-82978839D01*
X95338301Y-82773711D01*
X95338292Y-82773707D01*
X94920824Y-82600783D01*
X94920819Y-82600781D01*
X94491059Y-82461141D01*
X94491056Y-82461140D01*
X94491055Y-82461140D01*
X94051666Y-82355649D01*
X94051658Y-82355647D01*
X93605363Y-82284959D01*
X93605347Y-82284957D01*
X93154878Y-82249501D01*
X93154866Y-82249500D01*
X93002851Y-82249500D01*
X93002850Y-82249500D01*
X92928938Y-82249500D01*
X92928924Y-82249499D01*
X92850056Y-82249499D01*
X92850055Y-82249499D01*
X92843943Y-82249499D01*
X92843923Y-82249500D01*
X80526076Y-82249500D01*
X80497242Y-82255234D01*
X80497243Y-82255235D01*
X80381093Y-82278339D01*
X80381083Y-82278342D01*
X80301081Y-82311479D01*
X80301082Y-82311480D01*
X80244505Y-82334915D01*
X80162372Y-82389795D01*
X80121585Y-82417047D01*
X79977562Y-82561069D01*
X79977238Y-82561425D01*
X79874032Y-82664631D01*
X79580568Y-83008232D01*
X79314954Y-83373813D01*
X79078861Y-83759079D01*
X79078839Y-83759118D01*
X78873711Y-84161698D01*
X78873707Y-84161707D01*
X78700783Y-84579175D01*
X78700781Y-84579180D01*
X78561141Y-85008940D01*
X78561140Y-85008945D01*
X78536239Y-85112662D01*
X78455647Y-85448341D01*
X78384959Y-85894636D01*
X78384957Y-85894652D01*
X78349501Y-86345121D01*
X78349500Y-86345133D01*
X78349500Y-86571062D01*
X78349499Y-86657538D01*
X78349500Y-86657555D01*
X78349500Y-89937771D01*
X78329815Y-90004810D01*
X78313181Y-90025452D01*
X76656911Y-91681721D01*
X76595588Y-91715206D01*
X76549836Y-91716514D01*
X76533928Y-91713995D01*
X76533924Y-91713995D01*
X68537088Y-91713995D01*
X68537084Y-91713995D01*
X68450750Y-91727669D01*
X68429166Y-91731088D01*
X68429165Y-91731088D01*
X68342679Y-91744785D01*
X68342678Y-91744785D01*
X68155474Y-91805612D01*
X67980099Y-91894971D01*
X67897543Y-91954952D01*
X67820860Y-92010666D01*
X67820858Y-92010668D01*
X67820857Y-92010668D01*
X60207462Y-99624063D01*
X60207065Y-99624492D01*
X60122397Y-99709160D01*
X60122387Y-99709171D01*
X59830016Y-100046582D01*
X59562453Y-100404001D01*
X59321076Y-100779585D01*
X59321075Y-100779587D01*
X59107091Y-101171463D01*
X58921625Y-101577573D01*
X58765595Y-101995900D01*
X58765591Y-101995911D01*
X58639803Y-102424292D01*
X58544898Y-102860553D01*
X58481355Y-103302487D01*
X58449501Y-103747822D01*
X58449500Y-103872646D01*
X58449500Y-103971060D01*
X58449499Y-104080791D01*
X58449500Y-104080812D01*
X58449500Y-116120186D01*
X58449499Y-116120212D01*
X58449499Y-116177556D01*
X58449478Y-116177627D01*
X54500500Y-116177627D01*
X54500500Y-93550000D01*
X56944709Y-93550000D01*
X56963851Y-93829862D01*
X56963852Y-93829864D01*
X57020921Y-94104499D01*
X57020926Y-94104516D01*
X57102811Y-94334916D01*
X57114864Y-94368830D01*
X57243919Y-94617896D01*
X57405688Y-94847069D01*
X57405692Y-94847073D01*
X57405692Y-94847074D01*
X57597154Y-95052080D01*
X57597155Y-95052081D01*
X57814754Y-95229111D01*
X57814756Y-95229112D01*
X57814757Y-95229113D01*
X58054433Y-95374863D01*
X58263257Y-95465567D01*
X58311725Y-95486620D01*
X58581839Y-95562303D01*
X58826159Y-95595884D01*
X58859741Y-95600500D01*
X58859742Y-95600500D01*
X59140259Y-95600500D01*
X59170219Y-95596381D01*
X59418161Y-95562303D01*
X59688275Y-95486620D01*
X59940351Y-95377128D01*
X59945566Y-95374863D01*
X59970310Y-95359816D01*
X60185246Y-95229111D01*
X60402845Y-95052081D01*
X60594312Y-94847069D01*
X60756081Y-94617896D01*
X60885136Y-94368830D01*
X60979075Y-94104511D01*
X60979076Y-94104504D01*
X60979078Y-94104499D01*
X61010845Y-93951626D01*
X61036148Y-93829862D01*
X61055291Y-93550000D01*
X61036148Y-93270138D01*
X61010845Y-93148374D01*
X60979078Y-92995500D01*
X60979073Y-92995483D01*
X60918322Y-92824547D01*
X60885136Y-92731170D01*
X60756081Y-92482104D01*
X60594312Y-92252931D01*
X60594307Y-92252925D01*
X60402845Y-92047919D01*
X60242090Y-91917135D01*
X60185246Y-91870889D01*
X60185244Y-91870888D01*
X60185242Y-91870886D01*
X59945566Y-91725136D01*
X59688276Y-91613380D01*
X59418166Y-91537698D01*
X59418162Y-91537697D01*
X59418161Y-91537697D01*
X59279209Y-91518598D01*
X59140259Y-91499500D01*
X59140258Y-91499500D01*
X58859742Y-91499500D01*
X58859741Y-91499500D01*
X58581839Y-91537697D01*
X58581833Y-91537698D01*
X58311723Y-91613380D01*
X58054433Y-91725136D01*
X57814757Y-91870886D01*
X57597154Y-92047919D01*
X57405692Y-92252925D01*
X57405692Y-92252926D01*
X57405689Y-92252928D01*
X57405688Y-92252931D01*
X57343757Y-92340666D01*
X57243919Y-92482103D01*
X57114863Y-92731171D01*
X57020926Y-92995483D01*
X57020921Y-92995500D01*
X56963852Y-93270135D01*
X56963851Y-93270137D01*
X56944709Y-93550000D01*
X54500500Y-93550000D01*
X54500500Y-87488389D01*
X58799500Y-87488389D01*
X58799500Y-87911610D01*
X58824068Y-88066732D01*
X58826598Y-88082701D01*
X58880127Y-88247445D01*
X58958768Y-88401788D01*
X59060586Y-88541928D01*
X59183072Y-88664414D01*
X59323212Y-88766232D01*
X59477555Y-88844873D01*
X59642299Y-88898402D01*
X59813389Y-88925500D01*
X59813390Y-88925500D01*
X59986610Y-88925500D01*
X59986611Y-88925500D01*
X60157701Y-88898402D01*
X60322445Y-88844873D01*
X60476788Y-88766232D01*
X60616928Y-88664414D01*
X60739414Y-88541928D01*
X60841232Y-88401788D01*
X60919873Y-88247445D01*
X60973402Y-88082701D01*
X61000500Y-87911611D01*
X61000500Y-87488389D01*
X61299500Y-87488389D01*
X61299500Y-87911610D01*
X61324068Y-88066732D01*
X61326598Y-88082701D01*
X61380127Y-88247445D01*
X61458768Y-88401788D01*
X61560586Y-88541928D01*
X61683072Y-88664414D01*
X61823212Y-88766232D01*
X61977555Y-88844873D01*
X62142299Y-88898402D01*
X62313389Y-88925500D01*
X62313390Y-88925500D01*
X62486610Y-88925500D01*
X62486611Y-88925500D01*
X62657701Y-88898402D01*
X62822445Y-88844873D01*
X62976788Y-88766232D01*
X63116928Y-88664414D01*
X63239414Y-88541928D01*
X63341232Y-88401788D01*
X63419873Y-88247445D01*
X63473402Y-88082701D01*
X63500500Y-87911611D01*
X63500500Y-87488389D01*
X63473402Y-87317299D01*
X63419873Y-87152555D01*
X63341232Y-86998212D01*
X63239414Y-86858072D01*
X63116928Y-86735586D01*
X62976788Y-86633768D01*
X62853721Y-86571063D01*
X62822447Y-86555128D01*
X62822446Y-86555127D01*
X62822445Y-86555127D01*
X62657701Y-86501598D01*
X62657699Y-86501597D01*
X62657698Y-86501597D01*
X62526271Y-86480781D01*
X62486611Y-86474500D01*
X62313389Y-86474500D01*
X62273728Y-86480781D01*
X62142302Y-86501597D01*
X62083583Y-86520676D01*
X61982529Y-86553511D01*
X61977552Y-86555128D01*
X61823211Y-86633768D01*
X61790472Y-86657555D01*
X61683072Y-86735586D01*
X61683070Y-86735588D01*
X61683069Y-86735588D01*
X61560588Y-86858069D01*
X61560588Y-86858070D01*
X61560586Y-86858072D01*
X61517555Y-86917299D01*
X61458768Y-86998211D01*
X61380128Y-87152552D01*
X61326597Y-87317302D01*
X61299500Y-87488389D01*
X61000500Y-87488389D01*
X60973402Y-87317299D01*
X60919873Y-87152555D01*
X60841232Y-86998212D01*
X60739414Y-86858072D01*
X60616928Y-86735586D01*
X60476788Y-86633768D01*
X60353721Y-86571063D01*
X60322447Y-86555128D01*
X60322446Y-86555127D01*
X60322445Y-86555127D01*
X60157701Y-86501598D01*
X60157699Y-86501597D01*
X60157698Y-86501597D01*
X60026271Y-86480781D01*
X59986611Y-86474500D01*
X59813389Y-86474500D01*
X59773728Y-86480781D01*
X59642302Y-86501597D01*
X59583583Y-86520676D01*
X59482529Y-86553511D01*
X59477552Y-86555128D01*
X59323211Y-86633768D01*
X59290472Y-86657555D01*
X59183072Y-86735586D01*
X59183070Y-86735588D01*
X59183069Y-86735588D01*
X59060588Y-86858069D01*
X59060588Y-86858070D01*
X59060586Y-86858072D01*
X59017555Y-86917299D01*
X58958768Y-86998211D01*
X58880128Y-87152552D01*
X58826597Y-87317302D01*
X58799500Y-87488389D01*
X54500500Y-87488389D01*
X54500500Y-80053406D01*
X62853635Y-80053406D01*
X62861565Y-80129654D01*
X62879132Y-80197265D01*
X62879133Y-80197269D01*
X62879135Y-80197274D01*
X62892098Y-80228193D01*
X62907251Y-80264338D01*
X62907254Y-80264343D01*
X65688442Y-84906075D01*
X67210587Y-87446497D01*
X67281868Y-87565462D01*
X67299500Y-87629195D01*
X67299500Y-88072870D01*
X67299501Y-88072876D01*
X67305908Y-88132483D01*
X67356202Y-88267328D01*
X67356206Y-88267335D01*
X67442452Y-88382544D01*
X67442455Y-88382547D01*
X67557664Y-88468793D01*
X67557671Y-88468797D01*
X67692517Y-88519091D01*
X67692516Y-88519091D01*
X67699444Y-88519835D01*
X67752127Y-88525500D01*
X69047872Y-88525499D01*
X69107483Y-88519091D01*
X69242331Y-88468796D01*
X69357546Y-88382546D01*
X69443796Y-88267331D01*
X69494091Y-88132483D01*
X69500500Y-88072873D01*
X69500499Y-87088389D01*
X69799500Y-87088389D01*
X69799500Y-87511610D01*
X69823583Y-87663670D01*
X69826598Y-87682701D01*
X69880127Y-87847445D01*
X69958768Y-88001788D01*
X70060586Y-88141928D01*
X70183072Y-88264414D01*
X70323212Y-88366232D01*
X70477555Y-88444873D01*
X70642299Y-88498402D01*
X70813389Y-88525500D01*
X70813390Y-88525500D01*
X70986610Y-88525500D01*
X70986611Y-88525500D01*
X71157701Y-88498402D01*
X71322445Y-88444873D01*
X71476788Y-88366232D01*
X71616928Y-88264414D01*
X71739414Y-88141928D01*
X71841232Y-88001788D01*
X71919873Y-87847445D01*
X71973402Y-87682701D01*
X72000500Y-87511611D01*
X72000500Y-87088389D01*
X72299500Y-87088389D01*
X72299500Y-87511610D01*
X72323583Y-87663670D01*
X72326598Y-87682701D01*
X72380127Y-87847445D01*
X72458768Y-88001788D01*
X72560586Y-88141928D01*
X72683072Y-88264414D01*
X72823212Y-88366232D01*
X72977555Y-88444873D01*
X73142299Y-88498402D01*
X73313389Y-88525500D01*
X73313390Y-88525500D01*
X73486610Y-88525500D01*
X73486611Y-88525500D01*
X73657701Y-88498402D01*
X73822445Y-88444873D01*
X73976788Y-88366232D01*
X74116928Y-88264414D01*
X74239414Y-88141928D01*
X74341232Y-88001788D01*
X74419873Y-87847445D01*
X74473402Y-87682701D01*
X74500500Y-87511611D01*
X74500500Y-87088389D01*
X74473402Y-86917299D01*
X74419873Y-86752555D01*
X74341232Y-86598212D01*
X74239414Y-86458072D01*
X74116928Y-86335586D01*
X73976788Y-86233768D01*
X73822445Y-86155127D01*
X73657701Y-86101598D01*
X73657699Y-86101597D01*
X73657698Y-86101597D01*
X73526271Y-86080781D01*
X73486611Y-86074500D01*
X73313389Y-86074500D01*
X73273728Y-86080781D01*
X73142302Y-86101597D01*
X72977552Y-86155128D01*
X72823211Y-86233768D01*
X72766150Y-86275226D01*
X72683072Y-86335586D01*
X72683070Y-86335588D01*
X72683069Y-86335588D01*
X72560588Y-86458069D01*
X72560588Y-86458070D01*
X72560586Y-86458072D01*
X72519652Y-86514412D01*
X72458768Y-86598211D01*
X72380128Y-86752552D01*
X72326597Y-86917302D01*
X72299500Y-87088389D01*
X72000500Y-87088389D01*
X71973402Y-86917299D01*
X71919873Y-86752555D01*
X71841232Y-86598212D01*
X71739414Y-86458072D01*
X71616928Y-86335586D01*
X71476788Y-86233768D01*
X71322445Y-86155127D01*
X71157701Y-86101598D01*
X71157699Y-86101597D01*
X71157698Y-86101597D01*
X71026271Y-86080781D01*
X70986611Y-86074500D01*
X70813389Y-86074500D01*
X70773728Y-86080781D01*
X70642302Y-86101597D01*
X70477552Y-86155128D01*
X70323211Y-86233768D01*
X70266150Y-86275226D01*
X70183072Y-86335586D01*
X70183070Y-86335588D01*
X70183069Y-86335588D01*
X70060588Y-86458069D01*
X70060588Y-86458070D01*
X70060586Y-86458072D01*
X70019652Y-86514412D01*
X69958768Y-86598211D01*
X69880128Y-86752552D01*
X69826597Y-86917302D01*
X69799500Y-87088389D01*
X69500499Y-87088389D01*
X69500499Y-86527128D01*
X69494091Y-86467517D01*
X69493759Y-86466628D01*
X69443797Y-86332671D01*
X69443793Y-86332664D01*
X69357547Y-86217455D01*
X69357544Y-86217452D01*
X69242335Y-86131206D01*
X69242328Y-86131202D01*
X69107482Y-86080908D01*
X69107483Y-86080908D01*
X69047883Y-86074501D01*
X69047881Y-86074500D01*
X69047873Y-86074500D01*
X69047865Y-86074500D01*
X68279500Y-86074500D01*
X68212461Y-86054815D01*
X68166706Y-86002011D01*
X68155500Y-85950500D01*
X68155500Y-79297596D01*
X68175185Y-79230557D01*
X68227989Y-79184802D01*
X68297147Y-79174858D01*
X68360703Y-79203883D01*
X68398160Y-79261599D01*
X68437260Y-79390496D01*
X68531557Y-79566912D01*
X68658458Y-79721542D01*
X68813088Y-79848443D01*
X68989504Y-79942740D01*
X69180927Y-80000807D01*
X69380000Y-80020414D01*
X69579073Y-80000807D01*
X69770496Y-79942740D01*
X69946912Y-79848443D01*
X70101542Y-79721542D01*
X70228443Y-79566912D01*
X70322740Y-79390496D01*
X70380807Y-79199073D01*
X70400414Y-79000000D01*
X70899586Y-79000000D01*
X70919192Y-79199071D01*
X70919193Y-79199073D01*
X70977260Y-79390496D01*
X71071557Y-79566912D01*
X71198458Y-79721542D01*
X71353088Y-79848443D01*
X71529504Y-79942740D01*
X71720927Y-80000807D01*
X71920000Y-80020414D01*
X72119073Y-80000807D01*
X72310496Y-79942740D01*
X72486912Y-79848443D01*
X72641542Y-79721542D01*
X72768443Y-79566912D01*
X72862740Y-79390496D01*
X72920807Y-79199073D01*
X72940414Y-79000000D01*
X73439586Y-79000000D01*
X73459192Y-79199071D01*
X73459193Y-79199073D01*
X73517260Y-79390496D01*
X73611557Y-79566912D01*
X73738458Y-79721542D01*
X73893088Y-79848443D01*
X74069504Y-79942740D01*
X74260927Y-80000807D01*
X74460000Y-80020414D01*
X74659073Y-80000807D01*
X74850496Y-79942740D01*
X75026912Y-79848443D01*
X75181542Y-79721542D01*
X75308443Y-79566912D01*
X75402740Y-79390496D01*
X75460807Y-79199073D01*
X75480414Y-79000000D01*
X75979586Y-79000000D01*
X75999192Y-79199071D01*
X75999193Y-79199073D01*
X76057260Y-79390496D01*
X76151557Y-79566912D01*
X76278458Y-79721542D01*
X76433088Y-79848443D01*
X76609504Y-79942740D01*
X76800927Y-80000807D01*
X77000000Y-80020414D01*
X77199073Y-80000807D01*
X77390496Y-79942740D01*
X77566912Y-79848443D01*
X77721542Y-79721542D01*
X77848443Y-79566912D01*
X77942740Y-79390496D01*
X78000807Y-79199073D01*
X78020414Y-79000000D01*
X78519586Y-79000000D01*
X78539192Y-79199071D01*
X78539193Y-79199073D01*
X78597260Y-79390496D01*
X78691557Y-79566912D01*
X78818458Y-79721542D01*
X78973088Y-79848443D01*
X79149504Y-79942740D01*
X79340927Y-80000807D01*
X79540000Y-80020414D01*
X79739073Y-80000807D01*
X79930496Y-79942740D01*
X80106912Y-79848443D01*
X80261542Y-79721542D01*
X80388443Y-79566912D01*
X80482740Y-79390496D01*
X80540807Y-79199073D01*
X80560414Y-79000000D01*
X81059586Y-79000000D01*
X81079192Y-79199071D01*
X81079193Y-79199073D01*
X81137260Y-79390496D01*
X81231557Y-79566912D01*
X81358458Y-79721542D01*
X81513088Y-79848443D01*
X81689504Y-79942740D01*
X81880927Y-80000807D01*
X82080000Y-80020414D01*
X82279073Y-80000807D01*
X82470496Y-79942740D01*
X82646912Y-79848443D01*
X82801542Y-79721542D01*
X82928443Y-79566912D01*
X83022740Y-79390496D01*
X83080807Y-79199073D01*
X83100414Y-79000000D01*
X83599586Y-79000000D01*
X83619192Y-79199071D01*
X83619193Y-79199073D01*
X83677260Y-79390496D01*
X83771557Y-79566912D01*
X83898458Y-79721542D01*
X84053088Y-79848443D01*
X84229504Y-79942740D01*
X84420927Y-80000807D01*
X84620000Y-80020414D01*
X84819073Y-80000807D01*
X85010496Y-79942740D01*
X85186912Y-79848443D01*
X85341542Y-79721542D01*
X85468443Y-79566912D01*
X85562740Y-79390496D01*
X85620807Y-79199073D01*
X85640414Y-79000000D01*
X86139586Y-79000000D01*
X86159192Y-79199071D01*
X86159193Y-79199073D01*
X86217260Y-79390496D01*
X86311557Y-79566912D01*
X86438458Y-79721542D01*
X86593088Y-79848443D01*
X86769504Y-79942740D01*
X86960927Y-80000807D01*
X87160000Y-80020414D01*
X87359073Y-80000807D01*
X87550496Y-79942740D01*
X87726912Y-79848443D01*
X87881542Y-79721542D01*
X88008443Y-79566912D01*
X88102740Y-79390496D01*
X88160807Y-79199073D01*
X88180414Y-79000000D01*
X88679586Y-79000000D01*
X88699192Y-79199071D01*
X88699193Y-79199073D01*
X88757260Y-79390496D01*
X88851557Y-79566912D01*
X88978458Y-79721542D01*
X89133088Y-79848443D01*
X89309504Y-79942740D01*
X89500927Y-80000807D01*
X89700000Y-80020414D01*
X89899073Y-80000807D01*
X90090496Y-79942740D01*
X90266912Y-79848443D01*
X90421542Y-79721542D01*
X90548443Y-79566912D01*
X90642740Y-79390496D01*
X90700807Y-79199073D01*
X90720414Y-79000000D01*
X91219586Y-79000000D01*
X91239192Y-79199071D01*
X91239193Y-79199073D01*
X91297260Y-79390496D01*
X91391557Y-79566912D01*
X91518458Y-79721542D01*
X91673088Y-79848443D01*
X91849504Y-79942740D01*
X92040927Y-80000807D01*
X92240000Y-80020414D01*
X92439073Y-80000807D01*
X92630496Y-79942740D01*
X92806912Y-79848443D01*
X92961542Y-79721542D01*
X93088443Y-79566912D01*
X93182740Y-79390496D01*
X93240807Y-79199073D01*
X93260414Y-79000000D01*
X93759586Y-79000000D01*
X93779192Y-79199071D01*
X93779193Y-79199073D01*
X93837260Y-79390496D01*
X93931557Y-79566912D01*
X94058458Y-79721542D01*
X94213088Y-79848443D01*
X94389504Y-79942740D01*
X94580927Y-80000807D01*
X94780000Y-80020414D01*
X94979073Y-80000807D01*
X95170496Y-79942740D01*
X95346912Y-79848443D01*
X95501542Y-79721542D01*
X95628443Y-79566912D01*
X95722740Y-79390496D01*
X95780807Y-79199073D01*
X95800414Y-79000000D01*
X96299586Y-79000000D01*
X96319192Y-79199071D01*
X96319193Y-79199073D01*
X96377260Y-79390496D01*
X96471557Y-79566912D01*
X96598458Y-79721542D01*
X96753088Y-79848443D01*
X96929504Y-79942740D01*
X97120927Y-80000807D01*
X97320000Y-80020414D01*
X97519073Y-80000807D01*
X97710496Y-79942740D01*
X97886912Y-79848443D01*
X98041542Y-79721542D01*
X98168443Y-79566912D01*
X98262740Y-79390496D01*
X98320807Y-79199073D01*
X98340414Y-79000000D01*
X98839586Y-79000000D01*
X98859192Y-79199071D01*
X98859193Y-79199073D01*
X98917260Y-79390496D01*
X99011557Y-79566912D01*
X99138458Y-79721542D01*
X99293088Y-79848443D01*
X99469504Y-79942740D01*
X99660927Y-80000807D01*
X99860000Y-80020414D01*
X100059073Y-80000807D01*
X100250496Y-79942740D01*
X100426912Y-79848443D01*
X100581542Y-79721542D01*
X100708443Y-79566912D01*
X100802740Y-79390496D01*
X100860807Y-79199073D01*
X100880414Y-79000000D01*
X101379586Y-79000000D01*
X101399192Y-79199071D01*
X101399193Y-79199073D01*
X101457260Y-79390496D01*
X101551557Y-79566912D01*
X101678458Y-79721542D01*
X101833088Y-79848443D01*
X102009504Y-79942740D01*
X102200927Y-80000807D01*
X102400000Y-80020414D01*
X102599073Y-80000807D01*
X102790496Y-79942740D01*
X102966912Y-79848443D01*
X103121542Y-79721542D01*
X103248443Y-79566912D01*
X103342740Y-79390496D01*
X103400807Y-79199073D01*
X103420414Y-79000000D01*
X103919586Y-79000000D01*
X103939192Y-79199071D01*
X103939193Y-79199073D01*
X103997260Y-79390496D01*
X104091557Y-79566912D01*
X104218458Y-79721542D01*
X104373088Y-79848443D01*
X104549504Y-79942740D01*
X104740927Y-80000807D01*
X104940000Y-80020414D01*
X105139073Y-80000807D01*
X105330496Y-79942740D01*
X105506912Y-79848443D01*
X105661542Y-79721542D01*
X105788443Y-79566912D01*
X105882740Y-79390496D01*
X105940807Y-79199073D01*
X105960414Y-79000000D01*
X106459586Y-79000000D01*
X106479192Y-79199071D01*
X106479193Y-79199073D01*
X106537260Y-79390496D01*
X106631557Y-79566912D01*
X106758458Y-79721542D01*
X106913088Y-79848443D01*
X107089504Y-79942740D01*
X107280927Y-80000807D01*
X107480000Y-80020414D01*
X107679073Y-80000807D01*
X107870496Y-79942740D01*
X108046912Y-79848443D01*
X108201542Y-79721542D01*
X108328443Y-79566912D01*
X108422740Y-79390496D01*
X108480807Y-79199073D01*
X108500414Y-79000000D01*
X108999586Y-79000000D01*
X109019192Y-79199071D01*
X109019193Y-79199073D01*
X109077260Y-79390496D01*
X109171557Y-79566912D01*
X109298458Y-79721542D01*
X109453088Y-79848443D01*
X109629504Y-79942740D01*
X109820927Y-80000807D01*
X110020000Y-80020414D01*
X110219073Y-80000807D01*
X110410496Y-79942740D01*
X110586912Y-79848443D01*
X110741542Y-79721542D01*
X110868443Y-79566912D01*
X110962740Y-79390496D01*
X111020807Y-79199073D01*
X111040414Y-79000000D01*
X111539586Y-79000000D01*
X111559192Y-79199071D01*
X111559193Y-79199073D01*
X111617260Y-79390496D01*
X111711557Y-79566912D01*
X111838458Y-79721542D01*
X111993088Y-79848443D01*
X112169504Y-79942740D01*
X112360927Y-80000807D01*
X112560000Y-80020414D01*
X112759073Y-80000807D01*
X112950496Y-79942740D01*
X113126912Y-79848443D01*
X113281542Y-79721542D01*
X113408443Y-79566912D01*
X113502740Y-79390496D01*
X113560807Y-79199073D01*
X113580414Y-79000000D01*
X114079586Y-79000000D01*
X114099192Y-79199071D01*
X114099193Y-79199073D01*
X114157260Y-79390496D01*
X114251557Y-79566912D01*
X114378458Y-79721542D01*
X114533088Y-79848443D01*
X114709504Y-79942740D01*
X114900927Y-80000807D01*
X115100000Y-80020414D01*
X115299073Y-80000807D01*
X115490496Y-79942740D01*
X115666912Y-79848443D01*
X115821542Y-79721542D01*
X115948443Y-79566912D01*
X116042740Y-79390496D01*
X116100807Y-79199073D01*
X116120414Y-79000000D01*
X116100807Y-78800927D01*
X116042740Y-78609504D01*
X115948443Y-78433088D01*
X115821542Y-78278458D01*
X115666912Y-78151557D01*
X115490496Y-78057260D01*
X115394784Y-78028226D01*
X115299071Y-77999192D01*
X115100000Y-77979586D01*
X114900928Y-77999192D01*
X114709501Y-78057261D01*
X114533087Y-78151557D01*
X114378458Y-78278458D01*
X114251557Y-78433087D01*
X114157261Y-78609501D01*
X114099192Y-78800928D01*
X114079586Y-79000000D01*
X113580414Y-79000000D01*
X113560807Y-78800927D01*
X113502740Y-78609504D01*
X113408443Y-78433088D01*
X113281542Y-78278458D01*
X113126912Y-78151557D01*
X112950496Y-78057260D01*
X112854784Y-78028226D01*
X112759071Y-77999192D01*
X112560000Y-77979586D01*
X112360928Y-77999192D01*
X112169501Y-78057261D01*
X111993087Y-78151557D01*
X111838458Y-78278458D01*
X111711557Y-78433087D01*
X111617261Y-78609501D01*
X111559192Y-78800928D01*
X111539586Y-79000000D01*
X111040414Y-79000000D01*
X111020807Y-78800927D01*
X110962740Y-78609504D01*
X110868443Y-78433088D01*
X110741542Y-78278458D01*
X110586912Y-78151557D01*
X110410496Y-78057260D01*
X110314784Y-78028226D01*
X110219071Y-77999192D01*
X110020000Y-77979586D01*
X109820928Y-77999192D01*
X109629501Y-78057261D01*
X109453087Y-78151557D01*
X109298458Y-78278458D01*
X109171557Y-78433087D01*
X109077261Y-78609501D01*
X109019192Y-78800928D01*
X108999586Y-79000000D01*
X108500414Y-79000000D01*
X108480807Y-78800927D01*
X108422740Y-78609504D01*
X108328443Y-78433088D01*
X108201542Y-78278458D01*
X108046912Y-78151557D01*
X107870496Y-78057260D01*
X107774784Y-78028226D01*
X107679071Y-77999192D01*
X107480000Y-77979586D01*
X107280928Y-77999192D01*
X107089501Y-78057261D01*
X106913087Y-78151557D01*
X106758458Y-78278458D01*
X106631557Y-78433087D01*
X106537261Y-78609501D01*
X106479192Y-78800928D01*
X106459586Y-79000000D01*
X105960414Y-79000000D01*
X105940807Y-78800927D01*
X105882740Y-78609504D01*
X105788443Y-78433088D01*
X105661542Y-78278458D01*
X105506912Y-78151557D01*
X105330496Y-78057260D01*
X105234784Y-78028226D01*
X105139071Y-77999192D01*
X104940000Y-77979586D01*
X104740928Y-77999192D01*
X104549501Y-78057261D01*
X104373087Y-78151557D01*
X104218458Y-78278458D01*
X104091557Y-78433087D01*
X103997261Y-78609501D01*
X103939192Y-78800928D01*
X103919586Y-79000000D01*
X103420414Y-79000000D01*
X103400807Y-78800927D01*
X103342740Y-78609504D01*
X103248443Y-78433088D01*
X103121542Y-78278458D01*
X102966912Y-78151557D01*
X102790496Y-78057260D01*
X102694784Y-78028226D01*
X102599071Y-77999192D01*
X102400000Y-77979586D01*
X102200928Y-77999192D01*
X102009501Y-78057261D01*
X101833087Y-78151557D01*
X101678458Y-78278458D01*
X101551557Y-78433087D01*
X101457261Y-78609501D01*
X101399192Y-78800928D01*
X101379586Y-79000000D01*
X100880414Y-79000000D01*
X100860807Y-78800927D01*
X100802740Y-78609504D01*
X100708443Y-78433088D01*
X100581542Y-78278458D01*
X100426912Y-78151557D01*
X100250496Y-78057260D01*
X100154784Y-78028226D01*
X100059071Y-77999192D01*
X99860000Y-77979586D01*
X99660928Y-77999192D01*
X99469501Y-78057261D01*
X99293087Y-78151557D01*
X99138458Y-78278458D01*
X99011557Y-78433087D01*
X98917261Y-78609501D01*
X98859192Y-78800928D01*
X98839586Y-79000000D01*
X98340414Y-79000000D01*
X98320807Y-78800927D01*
X98262740Y-78609504D01*
X98168443Y-78433088D01*
X98041542Y-78278458D01*
X97886912Y-78151557D01*
X97710496Y-78057260D01*
X97614784Y-78028226D01*
X97519071Y-77999192D01*
X97320000Y-77979586D01*
X97120928Y-77999192D01*
X96929501Y-78057261D01*
X96753087Y-78151557D01*
X96598458Y-78278458D01*
X96471557Y-78433087D01*
X96377261Y-78609501D01*
X96319192Y-78800928D01*
X96299586Y-79000000D01*
X95800414Y-79000000D01*
X95780807Y-78800927D01*
X95722740Y-78609504D01*
X95628443Y-78433088D01*
X95501542Y-78278458D01*
X95346912Y-78151557D01*
X95170496Y-78057260D01*
X95074784Y-78028226D01*
X94979071Y-77999192D01*
X94780000Y-77979586D01*
X94580928Y-77999192D01*
X94389501Y-78057261D01*
X94213087Y-78151557D01*
X94058458Y-78278458D01*
X93931557Y-78433087D01*
X93837261Y-78609501D01*
X93779192Y-78800928D01*
X93759586Y-79000000D01*
X93260414Y-79000000D01*
X93240807Y-78800927D01*
X93182740Y-78609504D01*
X93088443Y-78433088D01*
X92961542Y-78278458D01*
X92806912Y-78151557D01*
X92630496Y-78057260D01*
X92534784Y-78028226D01*
X92439071Y-77999192D01*
X92240000Y-77979586D01*
X92040928Y-77999192D01*
X91849501Y-78057261D01*
X91673087Y-78151557D01*
X91518458Y-78278458D01*
X91391557Y-78433087D01*
X91297261Y-78609501D01*
X91239192Y-78800928D01*
X91219586Y-79000000D01*
X90720414Y-79000000D01*
X90700807Y-78800927D01*
X90642740Y-78609504D01*
X90548443Y-78433088D01*
X90421542Y-78278458D01*
X90266912Y-78151557D01*
X90090496Y-78057260D01*
X89994784Y-78028226D01*
X89899071Y-77999192D01*
X89700000Y-77979586D01*
X89500928Y-77999192D01*
X89309501Y-78057261D01*
X89133087Y-78151557D01*
X88978458Y-78278458D01*
X88851557Y-78433087D01*
X88757261Y-78609501D01*
X88699192Y-78800928D01*
X88679586Y-79000000D01*
X88180414Y-79000000D01*
X88160807Y-78800927D01*
X88102740Y-78609504D01*
X88008443Y-78433088D01*
X87881542Y-78278458D01*
X87726912Y-78151557D01*
X87550496Y-78057260D01*
X87454784Y-78028226D01*
X87359071Y-77999192D01*
X87160000Y-77979586D01*
X86960928Y-77999192D01*
X86769501Y-78057261D01*
X86593087Y-78151557D01*
X86438458Y-78278458D01*
X86311557Y-78433087D01*
X86217261Y-78609501D01*
X86159192Y-78800928D01*
X86139586Y-79000000D01*
X85640414Y-79000000D01*
X85620807Y-78800927D01*
X85562740Y-78609504D01*
X85468443Y-78433088D01*
X85341542Y-78278458D01*
X85186912Y-78151557D01*
X85010496Y-78057260D01*
X84914784Y-78028226D01*
X84819071Y-77999192D01*
X84620000Y-77979586D01*
X84420928Y-77999192D01*
X84229501Y-78057261D01*
X84053087Y-78151557D01*
X83898458Y-78278458D01*
X83771557Y-78433087D01*
X83677261Y-78609501D01*
X83619192Y-78800928D01*
X83599586Y-79000000D01*
X83100414Y-79000000D01*
X83080807Y-78800927D01*
X83022740Y-78609504D01*
X82928443Y-78433088D01*
X82801542Y-78278458D01*
X82646912Y-78151557D01*
X82470496Y-78057260D01*
X82374784Y-78028226D01*
X82279071Y-77999192D01*
X82080000Y-77979586D01*
X81880928Y-77999192D01*
X81689501Y-78057261D01*
X81513087Y-78151557D01*
X81358458Y-78278458D01*
X81231557Y-78433087D01*
X81137261Y-78609501D01*
X81079192Y-78800928D01*
X81059586Y-79000000D01*
X80560414Y-79000000D01*
X80540807Y-78800927D01*
X80482740Y-78609504D01*
X80388443Y-78433088D01*
X80261542Y-78278458D01*
X80106912Y-78151557D01*
X79930496Y-78057260D01*
X79834784Y-78028226D01*
X79739071Y-77999192D01*
X79540000Y-77979586D01*
X79340928Y-77999192D01*
X79149501Y-78057261D01*
X78973087Y-78151557D01*
X78818458Y-78278458D01*
X78691557Y-78433087D01*
X78597261Y-78609501D01*
X78539192Y-78800928D01*
X78519586Y-79000000D01*
X78020414Y-79000000D01*
X78000807Y-78800927D01*
X77942740Y-78609504D01*
X77848443Y-78433088D01*
X77721542Y-78278458D01*
X77566912Y-78151557D01*
X77390496Y-78057260D01*
X77294784Y-78028226D01*
X77199071Y-77999192D01*
X77000000Y-77979586D01*
X76800928Y-77999192D01*
X76609501Y-78057261D01*
X76433087Y-78151557D01*
X76278458Y-78278458D01*
X76151557Y-78433087D01*
X76057261Y-78609501D01*
X75999192Y-78800928D01*
X75979586Y-79000000D01*
X75480414Y-79000000D01*
X75460807Y-78800927D01*
X75402740Y-78609504D01*
X75308443Y-78433088D01*
X75181542Y-78278458D01*
X75026912Y-78151557D01*
X74850496Y-78057260D01*
X74754784Y-78028226D01*
X74659071Y-77999192D01*
X74460000Y-77979586D01*
X74260928Y-77999192D01*
X74069501Y-78057261D01*
X73893087Y-78151557D01*
X73738458Y-78278458D01*
X73611557Y-78433087D01*
X73517261Y-78609501D01*
X73459192Y-78800928D01*
X73439586Y-79000000D01*
X72940414Y-79000000D01*
X72920807Y-78800927D01*
X72862740Y-78609504D01*
X72768443Y-78433088D01*
X72641542Y-78278458D01*
X72486912Y-78151557D01*
X72310496Y-78057260D01*
X72214784Y-78028226D01*
X72119071Y-77999192D01*
X71920000Y-77979586D01*
X71720928Y-77999192D01*
X71529501Y-78057261D01*
X71353087Y-78151557D01*
X71198458Y-78278458D01*
X71071557Y-78433087D01*
X70977261Y-78609501D01*
X70919192Y-78800928D01*
X70899586Y-79000000D01*
X70400414Y-79000000D01*
X70380807Y-78800927D01*
X70322740Y-78609504D01*
X70228443Y-78433088D01*
X70101542Y-78278458D01*
X69946912Y-78151557D01*
X69770496Y-78057260D01*
X69674784Y-78028226D01*
X69579071Y-77999192D01*
X69380000Y-77979586D01*
X69180928Y-77999192D01*
X68989501Y-78057261D01*
X68813087Y-78151557D01*
X68658458Y-78278458D01*
X68531557Y-78433087D01*
X68437261Y-78609501D01*
X68398161Y-78738398D01*
X68359863Y-78796837D01*
X68296051Y-78825293D01*
X68226984Y-78814733D01*
X68174590Y-78768509D01*
X68155500Y-78702403D01*
X68155500Y-77124000D01*
X68149661Y-77069687D01*
X68138455Y-77018176D01*
X68131219Y-76991802D01*
X68115099Y-76963493D01*
X68081894Y-76905181D01*
X68081890Y-76905176D01*
X68081888Y-76905172D01*
X68036133Y-76852368D01*
X68003359Y-76820743D01*
X67915024Y-76774535D01*
X67915023Y-76774534D01*
X67915022Y-76774534D01*
X67915022Y-76774533D01*
X67847990Y-76754851D01*
X67847978Y-76754848D01*
X67776001Y-76744500D01*
X67776000Y-76744500D01*
X63416506Y-76744500D01*
X63416502Y-76744500D01*
X63369997Y-76748768D01*
X63325604Y-76756986D01*
X63306677Y-76761239D01*
X63217143Y-76805083D01*
X63161606Y-76847452D01*
X63161588Y-76847466D01*
X63127987Y-76878206D01*
X63076373Y-76963490D01*
X63076372Y-76963492D01*
X63052552Y-77029177D01*
X63052552Y-77029179D01*
X63037743Y-77100368D01*
X63037741Y-77100386D01*
X62854030Y-80045660D01*
X62853812Y-80049647D01*
X62853635Y-80053406D01*
X54500500Y-80053406D01*
X54500500Y-56140000D01*
X65819586Y-56140000D01*
X65839192Y-56339071D01*
X65839193Y-56339073D01*
X65897260Y-56530496D01*
X65991557Y-56706912D01*
X66118458Y-56861542D01*
X66273088Y-56988443D01*
X66449504Y-57082740D01*
X66640927Y-57140807D01*
X66840000Y-57160414D01*
X67039073Y-57140807D01*
X67230496Y-57082740D01*
X67406912Y-56988443D01*
X67561542Y-56861542D01*
X67688443Y-56706912D01*
X67782740Y-56530496D01*
X67840807Y-56339073D01*
X67860414Y-56140000D01*
X68359586Y-56140000D01*
X68379192Y-56339071D01*
X68379193Y-56339073D01*
X68437260Y-56530496D01*
X68531557Y-56706912D01*
X68658458Y-56861542D01*
X68813088Y-56988443D01*
X68989504Y-57082740D01*
X69180927Y-57140807D01*
X69380000Y-57160414D01*
X69579073Y-57140807D01*
X69770496Y-57082740D01*
X69946912Y-56988443D01*
X70101542Y-56861542D01*
X70228443Y-56706912D01*
X70322740Y-56530496D01*
X70380807Y-56339073D01*
X70400414Y-56140000D01*
X70899586Y-56140000D01*
X70919192Y-56339071D01*
X70919193Y-56339073D01*
X70977260Y-56530496D01*
X71071557Y-56706912D01*
X71198458Y-56861542D01*
X71353088Y-56988443D01*
X71529504Y-57082740D01*
X71720927Y-57140807D01*
X71920000Y-57160414D01*
X72119073Y-57140807D01*
X72310496Y-57082740D01*
X72486912Y-56988443D01*
X72641542Y-56861542D01*
X72768443Y-56706912D01*
X72862740Y-56530496D01*
X72920807Y-56339073D01*
X72940414Y-56140000D01*
X73439586Y-56140000D01*
X73459192Y-56339071D01*
X73459193Y-56339073D01*
X73517260Y-56530496D01*
X73611557Y-56706912D01*
X73738458Y-56861542D01*
X73893088Y-56988443D01*
X74069504Y-57082740D01*
X74260927Y-57140807D01*
X74460000Y-57160414D01*
X74659073Y-57140807D01*
X74850496Y-57082740D01*
X75026912Y-56988443D01*
X75181542Y-56861542D01*
X75308443Y-56706912D01*
X75402740Y-56530496D01*
X75460807Y-56339073D01*
X75480414Y-56140000D01*
X75979586Y-56140000D01*
X75999192Y-56339071D01*
X75999193Y-56339073D01*
X76057260Y-56530496D01*
X76151557Y-56706912D01*
X76278458Y-56861542D01*
X76433088Y-56988443D01*
X76609504Y-57082740D01*
X76800927Y-57140807D01*
X77000000Y-57160414D01*
X77199073Y-57140807D01*
X77390496Y-57082740D01*
X77566912Y-56988443D01*
X77721542Y-56861542D01*
X77848443Y-56706912D01*
X77942740Y-56530496D01*
X78000807Y-56339073D01*
X78020414Y-56140000D01*
X78519586Y-56140000D01*
X78539192Y-56339071D01*
X78539193Y-56339073D01*
X78597260Y-56530496D01*
X78691557Y-56706912D01*
X78818458Y-56861542D01*
X78973088Y-56988443D01*
X79149504Y-57082740D01*
X79340927Y-57140807D01*
X79540000Y-57160414D01*
X79739073Y-57140807D01*
X79930496Y-57082740D01*
X80106912Y-56988443D01*
X80261542Y-56861542D01*
X80388443Y-56706912D01*
X80482740Y-56530496D01*
X80540807Y-56339073D01*
X80560414Y-56140000D01*
X81059586Y-56140000D01*
X81079192Y-56339071D01*
X81079193Y-56339073D01*
X81137260Y-56530496D01*
X81231557Y-56706912D01*
X81358458Y-56861542D01*
X81513088Y-56988443D01*
X81689504Y-57082740D01*
X81880927Y-57140807D01*
X82080000Y-57160414D01*
X82279073Y-57140807D01*
X82470496Y-57082740D01*
X82646912Y-56988443D01*
X82801542Y-56861542D01*
X82928443Y-56706912D01*
X83022740Y-56530496D01*
X83080807Y-56339073D01*
X83100414Y-56140000D01*
X83599586Y-56140000D01*
X83619192Y-56339071D01*
X83619193Y-56339073D01*
X83677260Y-56530496D01*
X83771557Y-56706912D01*
X83898458Y-56861542D01*
X84053088Y-56988443D01*
X84229504Y-57082740D01*
X84420927Y-57140807D01*
X84620000Y-57160414D01*
X84819073Y-57140807D01*
X85010496Y-57082740D01*
X85186912Y-56988443D01*
X85341542Y-56861542D01*
X85468443Y-56706912D01*
X85562740Y-56530496D01*
X85620807Y-56339073D01*
X85640414Y-56140000D01*
X86139586Y-56140000D01*
X86159192Y-56339071D01*
X86159193Y-56339073D01*
X86217260Y-56530496D01*
X86311557Y-56706912D01*
X86438458Y-56861542D01*
X86593088Y-56988443D01*
X86769504Y-57082740D01*
X86960927Y-57140807D01*
X87160000Y-57160414D01*
X87359073Y-57140807D01*
X87550496Y-57082740D01*
X87726912Y-56988443D01*
X87881542Y-56861542D01*
X88008443Y-56706912D01*
X88102740Y-56530496D01*
X88160807Y-56339073D01*
X88180414Y-56140000D01*
X88679586Y-56140000D01*
X88699192Y-56339071D01*
X88699193Y-56339073D01*
X88757260Y-56530496D01*
X88851557Y-56706912D01*
X88978458Y-56861542D01*
X89133088Y-56988443D01*
X89309504Y-57082740D01*
X89500927Y-57140807D01*
X89700000Y-57160414D01*
X89899073Y-57140807D01*
X90090496Y-57082740D01*
X90266912Y-56988443D01*
X90421542Y-56861542D01*
X90548443Y-56706912D01*
X90642740Y-56530496D01*
X90700807Y-56339073D01*
X90720414Y-56140000D01*
X91219586Y-56140000D01*
X91239192Y-56339071D01*
X91239193Y-56339073D01*
X91297260Y-56530496D01*
X91391557Y-56706912D01*
X91518458Y-56861542D01*
X91673088Y-56988443D01*
X91849504Y-57082740D01*
X92040927Y-57140807D01*
X92240000Y-57160414D01*
X92439073Y-57140807D01*
X92630496Y-57082740D01*
X92806912Y-56988443D01*
X92961542Y-56861542D01*
X93088443Y-56706912D01*
X93182740Y-56530496D01*
X93240807Y-56339073D01*
X93260414Y-56140000D01*
X93759586Y-56140000D01*
X93779192Y-56339071D01*
X93779193Y-56339073D01*
X93837260Y-56530496D01*
X93931557Y-56706912D01*
X94058458Y-56861542D01*
X94213088Y-56988443D01*
X94389504Y-57082740D01*
X94580927Y-57140807D01*
X94780000Y-57160414D01*
X94979073Y-57140807D01*
X95170496Y-57082740D01*
X95346912Y-56988443D01*
X95501542Y-56861542D01*
X95628443Y-56706912D01*
X95722740Y-56530496D01*
X95780807Y-56339073D01*
X95800414Y-56140000D01*
X96299586Y-56140000D01*
X96319192Y-56339071D01*
X96319193Y-56339073D01*
X96377260Y-56530496D01*
X96471557Y-56706912D01*
X96598458Y-56861542D01*
X96753088Y-56988443D01*
X96929504Y-57082740D01*
X97120927Y-57140807D01*
X97320000Y-57160414D01*
X97519073Y-57140807D01*
X97710496Y-57082740D01*
X97886912Y-56988443D01*
X98041542Y-56861542D01*
X98168443Y-56706912D01*
X98262740Y-56530496D01*
X98320807Y-56339073D01*
X98340414Y-56140000D01*
X98839586Y-56140000D01*
X98859192Y-56339071D01*
X98859193Y-56339073D01*
X98917260Y-56530496D01*
X99011557Y-56706912D01*
X99138458Y-56861542D01*
X99293088Y-56988443D01*
X99469504Y-57082740D01*
X99660927Y-57140807D01*
X99860000Y-57160414D01*
X100059073Y-57140807D01*
X100250496Y-57082740D01*
X100426912Y-56988443D01*
X100581542Y-56861542D01*
X100708443Y-56706912D01*
X100802740Y-56530496D01*
X100860807Y-56339073D01*
X100880414Y-56140000D01*
X101379586Y-56140000D01*
X101399192Y-56339071D01*
X101399193Y-56339073D01*
X101457260Y-56530496D01*
X101551557Y-56706912D01*
X101678458Y-56861542D01*
X101833088Y-56988443D01*
X102009504Y-57082740D01*
X102200927Y-57140807D01*
X102400000Y-57160414D01*
X102599073Y-57140807D01*
X102790496Y-57082740D01*
X102966912Y-56988443D01*
X103121542Y-56861542D01*
X103248443Y-56706912D01*
X103342740Y-56530496D01*
X103400807Y-56339073D01*
X103420414Y-56140000D01*
X103919586Y-56140000D01*
X103939192Y-56339071D01*
X103939193Y-56339073D01*
X103997260Y-56530496D01*
X104091557Y-56706912D01*
X104218458Y-56861542D01*
X104373088Y-56988443D01*
X104549504Y-57082740D01*
X104740927Y-57140807D01*
X104940000Y-57160414D01*
X105139073Y-57140807D01*
X105330496Y-57082740D01*
X105506912Y-56988443D01*
X105661542Y-56861542D01*
X105788443Y-56706912D01*
X105882740Y-56530496D01*
X105940807Y-56339073D01*
X105960414Y-56140000D01*
X106459586Y-56140000D01*
X106479192Y-56339071D01*
X106479193Y-56339073D01*
X106537260Y-56530496D01*
X106631557Y-56706912D01*
X106758458Y-56861542D01*
X106913088Y-56988443D01*
X107089504Y-57082740D01*
X107280927Y-57140807D01*
X107480000Y-57160414D01*
X107679073Y-57140807D01*
X107870496Y-57082740D01*
X108046912Y-56988443D01*
X108201542Y-56861542D01*
X108328443Y-56706912D01*
X108422740Y-56530496D01*
X108480807Y-56339073D01*
X108500414Y-56140000D01*
X108999586Y-56140000D01*
X109019192Y-56339071D01*
X109019193Y-56339073D01*
X109077260Y-56530496D01*
X109171557Y-56706912D01*
X109298458Y-56861542D01*
X109453088Y-56988443D01*
X109629504Y-57082740D01*
X109820927Y-57140807D01*
X110020000Y-57160414D01*
X110219073Y-57140807D01*
X110410496Y-57082740D01*
X110586912Y-56988443D01*
X110741542Y-56861542D01*
X110868443Y-56706912D01*
X110962740Y-56530496D01*
X111020807Y-56339073D01*
X111040414Y-56140000D01*
X111539586Y-56140000D01*
X111559192Y-56339071D01*
X111559193Y-56339073D01*
X111617260Y-56530496D01*
X111711557Y-56706912D01*
X111838458Y-56861542D01*
X111993088Y-56988443D01*
X112169504Y-57082740D01*
X112360927Y-57140807D01*
X112560000Y-57160414D01*
X112759073Y-57140807D01*
X112950496Y-57082740D01*
X113126912Y-56988443D01*
X113281542Y-56861542D01*
X113408443Y-56706912D01*
X113502740Y-56530496D01*
X113560807Y-56339073D01*
X113580414Y-56140000D01*
X113560807Y-55940927D01*
X113502740Y-55749504D01*
X113408443Y-55573088D01*
X113281542Y-55418458D01*
X113126912Y-55291557D01*
X112950496Y-55197260D01*
X112854784Y-55168226D01*
X112759071Y-55139192D01*
X112560000Y-55119586D01*
X112360928Y-55139192D01*
X112169501Y-55197261D01*
X111993087Y-55291557D01*
X111838458Y-55418458D01*
X111711557Y-55573087D01*
X111617261Y-55749501D01*
X111559192Y-55940928D01*
X111539586Y-56140000D01*
X111040414Y-56140000D01*
X111020807Y-55940927D01*
X110962740Y-55749504D01*
X110868443Y-55573088D01*
X110741542Y-55418458D01*
X110586912Y-55291557D01*
X110410496Y-55197260D01*
X110314784Y-55168226D01*
X110219071Y-55139192D01*
X110020000Y-55119586D01*
X109820928Y-55139192D01*
X109629501Y-55197261D01*
X109453087Y-55291557D01*
X109298458Y-55418458D01*
X109171557Y-55573087D01*
X109077261Y-55749501D01*
X109019192Y-55940928D01*
X108999586Y-56140000D01*
X108500414Y-56140000D01*
X108480807Y-55940927D01*
X108422740Y-55749504D01*
X108328443Y-55573088D01*
X108201542Y-55418458D01*
X108046912Y-55291557D01*
X107870496Y-55197260D01*
X107774784Y-55168226D01*
X107679071Y-55139192D01*
X107480000Y-55119586D01*
X107280928Y-55139192D01*
X107089501Y-55197261D01*
X106913087Y-55291557D01*
X106758458Y-55418458D01*
X106631557Y-55573087D01*
X106537261Y-55749501D01*
X106479192Y-55940928D01*
X106459586Y-56140000D01*
X105960414Y-56140000D01*
X105940807Y-55940927D01*
X105882740Y-55749504D01*
X105788443Y-55573088D01*
X105661542Y-55418458D01*
X105506912Y-55291557D01*
X105330496Y-55197260D01*
X105234784Y-55168226D01*
X105139071Y-55139192D01*
X104940000Y-55119586D01*
X104740928Y-55139192D01*
X104549501Y-55197261D01*
X104373087Y-55291557D01*
X104218458Y-55418458D01*
X104091557Y-55573087D01*
X103997261Y-55749501D01*
X103939192Y-55940928D01*
X103919586Y-56140000D01*
X103420414Y-56140000D01*
X103400807Y-55940927D01*
X103342740Y-55749504D01*
X103248443Y-55573088D01*
X103121542Y-55418458D01*
X102966912Y-55291557D01*
X102790496Y-55197260D01*
X102694784Y-55168226D01*
X102599071Y-55139192D01*
X102400000Y-55119586D01*
X102200928Y-55139192D01*
X102009501Y-55197261D01*
X101833087Y-55291557D01*
X101678458Y-55418458D01*
X101551557Y-55573087D01*
X101457261Y-55749501D01*
X101399192Y-55940928D01*
X101379586Y-56140000D01*
X100880414Y-56140000D01*
X100860807Y-55940927D01*
X100802740Y-55749504D01*
X100708443Y-55573088D01*
X100581542Y-55418458D01*
X100426912Y-55291557D01*
X100250496Y-55197260D01*
X100154784Y-55168226D01*
X100059071Y-55139192D01*
X99860000Y-55119586D01*
X99660928Y-55139192D01*
X99469501Y-55197261D01*
X99293087Y-55291557D01*
X99138458Y-55418458D01*
X99011557Y-55573087D01*
X98917261Y-55749501D01*
X98859192Y-55940928D01*
X98839586Y-56140000D01*
X98340414Y-56140000D01*
X98320807Y-55940927D01*
X98262740Y-55749504D01*
X98168443Y-55573088D01*
X98041542Y-55418458D01*
X97886912Y-55291557D01*
X97710496Y-55197260D01*
X97614784Y-55168226D01*
X97519071Y-55139192D01*
X97320000Y-55119586D01*
X97120928Y-55139192D01*
X96929501Y-55197261D01*
X96753087Y-55291557D01*
X96598458Y-55418458D01*
X96471557Y-55573087D01*
X96377261Y-55749501D01*
X96319192Y-55940928D01*
X96299586Y-56140000D01*
X95800414Y-56140000D01*
X95780807Y-55940927D01*
X95722740Y-55749504D01*
X95628443Y-55573088D01*
X95501542Y-55418458D01*
X95346912Y-55291557D01*
X95170496Y-55197260D01*
X95074784Y-55168226D01*
X94979071Y-55139192D01*
X94780000Y-55119586D01*
X94580928Y-55139192D01*
X94389501Y-55197261D01*
X94213087Y-55291557D01*
X94058458Y-55418458D01*
X93931557Y-55573087D01*
X93837261Y-55749501D01*
X93779192Y-55940928D01*
X93759586Y-56140000D01*
X93260414Y-56140000D01*
X93240807Y-55940927D01*
X93182740Y-55749504D01*
X93088443Y-55573088D01*
X92961542Y-55418458D01*
X92806912Y-55291557D01*
X92630496Y-55197260D01*
X92534784Y-55168226D01*
X92439071Y-55139192D01*
X92240000Y-55119586D01*
X92040928Y-55139192D01*
X91849501Y-55197261D01*
X91673087Y-55291557D01*
X91518458Y-55418458D01*
X91391557Y-55573087D01*
X91297261Y-55749501D01*
X91239192Y-55940928D01*
X91219586Y-56140000D01*
X90720414Y-56140000D01*
X90700807Y-55940927D01*
X90642740Y-55749504D01*
X90548443Y-55573088D01*
X90421542Y-55418458D01*
X90266912Y-55291557D01*
X90090496Y-55197260D01*
X89994784Y-55168226D01*
X89899071Y-55139192D01*
X89700000Y-55119586D01*
X89500928Y-55139192D01*
X89309501Y-55197261D01*
X89133087Y-55291557D01*
X88978458Y-55418458D01*
X88851557Y-55573087D01*
X88757261Y-55749501D01*
X88699192Y-55940928D01*
X88679586Y-56140000D01*
X88180414Y-56140000D01*
X88160807Y-55940927D01*
X88102740Y-55749504D01*
X88008443Y-55573088D01*
X87881542Y-55418458D01*
X87726912Y-55291557D01*
X87550496Y-55197260D01*
X87454784Y-55168226D01*
X87359071Y-55139192D01*
X87160000Y-55119586D01*
X86960928Y-55139192D01*
X86769501Y-55197261D01*
X86593087Y-55291557D01*
X86438458Y-55418458D01*
X86311557Y-55573087D01*
X86217261Y-55749501D01*
X86159192Y-55940928D01*
X86139586Y-56140000D01*
X85640414Y-56140000D01*
X85620807Y-55940927D01*
X85562740Y-55749504D01*
X85468443Y-55573088D01*
X85341542Y-55418458D01*
X85186912Y-55291557D01*
X85010496Y-55197260D01*
X84914784Y-55168226D01*
X84819071Y-55139192D01*
X84620000Y-55119586D01*
X84420928Y-55139192D01*
X84229501Y-55197261D01*
X84053087Y-55291557D01*
X83898458Y-55418458D01*
X83771557Y-55573087D01*
X83677261Y-55749501D01*
X83619192Y-55940928D01*
X83599586Y-56140000D01*
X83100414Y-56140000D01*
X83080807Y-55940927D01*
X83022740Y-55749504D01*
X82928443Y-55573088D01*
X82801542Y-55418458D01*
X82646912Y-55291557D01*
X82470496Y-55197260D01*
X82374784Y-55168226D01*
X82279071Y-55139192D01*
X82080000Y-55119586D01*
X81880928Y-55139192D01*
X81689501Y-55197261D01*
X81513087Y-55291557D01*
X81358458Y-55418458D01*
X81231557Y-55573087D01*
X81137261Y-55749501D01*
X81079192Y-55940928D01*
X81059586Y-56140000D01*
X80560414Y-56140000D01*
X80540807Y-55940927D01*
X80482740Y-55749504D01*
X80388443Y-55573088D01*
X80261542Y-55418458D01*
X80106912Y-55291557D01*
X79930496Y-55197260D01*
X79834784Y-55168226D01*
X79739071Y-55139192D01*
X79540000Y-55119586D01*
X79340928Y-55139192D01*
X79149501Y-55197261D01*
X78973087Y-55291557D01*
X78818458Y-55418458D01*
X78691557Y-55573087D01*
X78597261Y-55749501D01*
X78539192Y-55940928D01*
X78519586Y-56140000D01*
X78020414Y-56140000D01*
X78000807Y-55940927D01*
X77942740Y-55749504D01*
X77848443Y-55573088D01*
X77721542Y-55418458D01*
X77566912Y-55291557D01*
X77390496Y-55197260D01*
X77294784Y-55168226D01*
X77199071Y-55139192D01*
X77000000Y-55119586D01*
X76800928Y-55139192D01*
X76609501Y-55197261D01*
X76433087Y-55291557D01*
X76278458Y-55418458D01*
X76151557Y-55573087D01*
X76057261Y-55749501D01*
X75999192Y-55940928D01*
X75979586Y-56140000D01*
X75480414Y-56140000D01*
X75460807Y-55940927D01*
X75402740Y-55749504D01*
X75308443Y-55573088D01*
X75181542Y-55418458D01*
X75026912Y-55291557D01*
X74850496Y-55197260D01*
X74754784Y-55168226D01*
X74659071Y-55139192D01*
X74460000Y-55119586D01*
X74260928Y-55139192D01*
X74069501Y-55197261D01*
X73893087Y-55291557D01*
X73738458Y-55418458D01*
X73611557Y-55573087D01*
X73517261Y-55749501D01*
X73459192Y-55940928D01*
X73439586Y-56140000D01*
X72940414Y-56140000D01*
X72920807Y-55940927D01*
X72862740Y-55749504D01*
X72768443Y-55573088D01*
X72641542Y-55418458D01*
X72486912Y-55291557D01*
X72310496Y-55197260D01*
X72214784Y-55168226D01*
X72119071Y-55139192D01*
X71920000Y-55119586D01*
X71720928Y-55139192D01*
X71529501Y-55197261D01*
X71353087Y-55291557D01*
X71198458Y-55418458D01*
X71071557Y-55573087D01*
X70977261Y-55749501D01*
X70919192Y-55940928D01*
X70899586Y-56140000D01*
X70400414Y-56140000D01*
X70380807Y-55940927D01*
X70322740Y-55749504D01*
X70228443Y-55573088D01*
X70101542Y-55418458D01*
X69946912Y-55291557D01*
X69770496Y-55197260D01*
X69674784Y-55168226D01*
X69579071Y-55139192D01*
X69380000Y-55119586D01*
X69180928Y-55139192D01*
X68989501Y-55197261D01*
X68813087Y-55291557D01*
X68658458Y-55418458D01*
X68531557Y-55573087D01*
X68437261Y-55749501D01*
X68379192Y-55940928D01*
X68359586Y-56140000D01*
X67860414Y-56140000D01*
X67840807Y-55940927D01*
X67782740Y-55749504D01*
X67688443Y-55573088D01*
X67561542Y-55418458D01*
X67406912Y-55291557D01*
X67230496Y-55197260D01*
X67134784Y-55168226D01*
X67039071Y-55139192D01*
X66840000Y-55119586D01*
X66640928Y-55139192D01*
X66449501Y-55197261D01*
X66273087Y-55291557D01*
X66118458Y-55418458D01*
X65991557Y-55573087D01*
X65897261Y-55749501D01*
X65839192Y-55940928D01*
X65819586Y-56140000D01*
X54500500Y-56140000D01*
X54500500Y-54174500D01*
X54520185Y-54107461D01*
X54572989Y-54061706D01*
X54624500Y-54050500D01*
X123375500Y-54050500D01*
X123442539Y-54070185D01*
G37*
%TD.AperFunction*%
%TD*%
%TA.AperFunction,Conductor*%
%TO.N,+3.3V*%
G36*
X67843039Y-77019685D02*
G01*
X67888794Y-77072489D01*
X67900000Y-77124000D01*
X67900000Y-87651788D01*
X67880315Y-87718827D01*
X67827511Y-87764582D01*
X67758353Y-87774526D01*
X67694797Y-87745501D01*
X67669632Y-87715521D01*
X65907612Y-84774755D01*
X63126424Y-80133023D01*
X63108854Y-80065400D01*
X63109031Y-80061633D01*
X63292747Y-77116279D01*
X63316566Y-77050597D01*
X63372116Y-77008218D01*
X63416506Y-77000000D01*
X67776000Y-77000000D01*
X67843039Y-77019685D01*
G37*
%TD.AperFunction*%
%TD*%
M02*
