M48
; DRILL file {KiCad 8.99.0-unknown-a7d493a6a5~180~ubuntu22.04.1} date 2024-08-13T11:51:06-0300
; FORMAT={-:-/ absolute / inch / decimal}
; #@! TF.CreationDate,2024-08-13T11:51:06-03:00
; #@! TF.GenerationSoftware,Kicad,Pcbnew,8.99.0-unknown-a7d493a6a5~180~ubuntu22.04.1
; #@! TF.FileFunction,Plated,1,2,PTH
FMAT,2
INCH
; #@! TA.AperFunction,Plated,PTH,ViaDrill
T1C0.0118
; #@! TA.AperFunction,Plated,PTH,ComponentDrill
T2C0.0276
; #@! TA.AperFunction,Plated,PTH,ComponentDrill
T3C0.0374
; #@! TA.AperFunction,Plated,PTH,ComponentDrill
T4C0.0402
; #@! TA.AperFunction,Plated,PTH,ComponentDrill
T5C0.0433
%
G90
G05
T1
X3.3465Y-4.1665
X3.4724Y-4.4646
X3.5039Y-3.7992
X3.6181Y-4.1496
X3.6358Y-4.0906
X3.6496Y-4.6969
X3.662Y-4.1561
X3.6732Y-4.2303
X3.7402Y-3.4449
X3.8189Y-3.3465
X3.9016Y-4.2835
X4.0295Y-3.4882
X4.1024Y-4.2303
X4.1358Y-3.4724
X4.2303Y-3.7795
X4.3307Y-3.7402
X4.4291Y-3.7795
X4.5531Y-3.2913
T2
X2.5102Y-4.1142
X2.5602Y-4.1642
X2.6102Y-4.1142
X2.7323Y-4.685
X2.7323Y-4.785
X2.7823Y-4.735
X2.9421Y-3.7756
X2.9921Y-3.8256
X3.0421Y-3.7756
X3.1075Y-4.563
X3.1075Y-4.663
X3.1575Y-4.613
X3.339Y-4.6225
X3.389Y-4.6725
X3.439Y-4.6225
X3.4512Y-4.9016
X3.5012Y-4.9516
X3.5512Y-4.9016
X4.3094Y-4.8425
X4.3307Y-4.5669
X4.3594Y-4.7925
X4.3807Y-4.5169
X4.4094Y-4.8425
X4.4307Y-4.5669
T3
X2.2598Y-3.4528
X2.3583Y-3.4528
X2.4567Y-3.4528
X2.6929Y-3.437
X2.7913Y-3.437
X2.8898Y-3.437
X2.9882Y-3.437
T4
X2.5315Y-2.2102
X2.5315Y-3.1102
X2.6315Y-2.2102
X2.6315Y-3.1102
X2.7315Y-2.2102
X2.7315Y-3.1102
X2.8315Y-2.2102
X2.8315Y-3.1102
X2.9315Y-2.2102
X2.9315Y-3.1102
X3.0315Y-2.2102
X3.0315Y-3.1102
X3.1315Y-2.2102
X3.1315Y-3.1102
X3.2315Y-2.2102
X3.2315Y-3.1102
X3.3315Y-2.2102
X3.3315Y-3.1102
X3.4315Y-2.2102
X3.4315Y-3.1102
X3.5315Y-2.2102
X3.5315Y-3.1102
X3.6315Y-2.2102
X3.6315Y-3.1102
X3.7315Y-2.2102
X3.7315Y-3.1102
X3.8315Y-2.2102
X3.8315Y-3.1102
X3.9315Y-2.2102
X3.9315Y-3.1102
X4.0315Y-2.2102
X4.0315Y-3.1102
X4.1315Y-2.2102
X4.1315Y-3.1102
X4.2315Y-2.2102
X4.2315Y-3.1102
X4.3315Y-2.2102
X4.3315Y-3.1102
X4.4315Y-2.2102
X4.4315Y-3.1102
X4.5315Y-2.2102
X4.5315Y-3.1102
X4.6315Y-2.2102
X4.6315Y-3.1102
T5
X4.5827Y-3.4252
X4.7638Y-3.4252
M30
